<svg width="25" height="24" viewBox="0 0 25 24" fill="none" xmlns="http://www.w3.org/2000/svg">
<path d="M9.45937 10.87C9.35937 10.86 9.23937 10.86 9.12937 10.87C6.74937 10.79 4.85938 8.84 4.85938 6.44C4.85937 3.99 6.83938 2 9.29938 2C11.7494 2 13.7394 3.99 13.7394 6.44C13.7294 8.84 11.8394 10.79 9.45937 10.87Z" stroke="#555555" stroke-width="1.5" stroke-linecap="round" stroke-linejoin="round"/>
<path d="M16.7081 4C18.6481 4 20.2081 5.57 20.2081 7.5C20.2081 9.39 18.7081 10.93 16.8381 11C16.7581 10.99 16.6681 10.99 16.5781 11" stroke="#555555" stroke-width="1.5" stroke-linecap="round" stroke-linejoin="round"/>
<path d="M4.45953 14.56C2.03953 16.18 2.03953 18.82 4.45953 20.43C7.20953 22.27 11.7195 22.27 14.4695 20.43C16.8895 18.81 16.8895 16.17 14.4695 14.56C11.7295 12.73 7.21953 12.73 4.45953 14.56Z" stroke="#555555" stroke-width="1.5" stroke-linecap="round" stroke-linejoin="round"/>
<path d="M18.6387 20C19.3587 19.85 20.0387 19.56 20.5987 19.13C22.1587 17.96 22.1587 16.03 20.5987 14.86C20.0487 14.44 19.3787 14.16 18.6687 14" stroke="#555555" stroke-width="1.5" stroke-linecap="round" stroke-linejoin="round"/>
</svg>
