<svg width="11" height="10" viewBox="0 0 11 10" fill="none" xmlns="http://www.w3.org/2000/svg">
<path d="M7.2832 5.58329V6.83329C7.2832 8.49996 6.61654 9.16663 4.94987 9.16663H3.36654C1.69987 9.16663 1.0332 8.49996 1.0332 6.83329V5.24996C1.0332 3.58329 1.69987 2.91663 3.36654 2.91663H4.61654" stroke="#7999FF" stroke-linecap="round" stroke-linejoin="round"/>
<path d="M7.28385 5.58329H5.95052C4.95052 5.58329 4.61719 5.24996 4.61719 4.24996V2.91663L7.28385 5.58329Z" stroke="#7999FF" stroke-linecap="round" stroke-linejoin="round"/>
<path d="M5.0332 0.833374H6.69987" stroke="#7999FF" stroke-linecap="round" stroke-linejoin="round"/>
<path d="M3.11719 2.08337C3.11719 1.39171 3.67552 0.833374 4.36719 0.833374H5.45885" stroke="#7999FF" stroke-linecap="round" stroke-linejoin="round"/>
<path d="M9.36712 3.33337V5.91254C9.36712 6.55837 8.84212 7.08337 8.19629 7.08337" stroke="#7999FF" stroke-linecap="round" stroke-linejoin="round"/>
<path d="M9.36719 3.33337H8.11719C7.17969 3.33337 6.86719 3.02087 6.86719 2.08337V0.833374L9.36719 3.33337Z" stroke="#7999FF" stroke-linecap="round" stroke-linejoin="round"/>
</svg>
