<svg width="25" height="24" viewBox="0 0 25 24" fill="none" xmlns="http://www.w3.org/2000/svg">
<path d="M22.3684 18.33C22.3684 18.69 22.2884 19.06 22.1184 19.42C21.9484 19.78 21.7284 20.12 21.4384 20.44C20.9484 20.98 20.4084 21.37 19.7984 21.62C19.1984 21.87 18.5484 22 17.8484 22C16.8284 22 15.7384 21.76 14.5884 21.27C13.4384 20.78 12.2884 20.12 11.1484 19.29C9.99844 18.45 8.90844 17.52 7.86844 16.49C6.83844 15.45 5.90844 14.36 5.07844 13.22C4.25844 12.08 3.59844 10.94 3.11844 9.81C2.63844 8.67 2.39844 7.58 2.39844 6.54C2.39844 5.86 2.51844 5.21 2.75844 4.61C2.99844 4 3.37844 3.44 3.90844 2.94C4.54844 2.31 5.24844 2 5.98844 2C6.26844 2 6.54844 2.06 6.79844 2.18C7.05844 2.3 7.28844 2.48 7.46844 2.74L9.78844 6.01C9.96844 6.26 10.0984 6.49 10.1884 6.71C10.2784 6.92 10.3284 7.13 10.3284 7.32C10.3284 7.56 10.2584 7.8 10.1184 8.03C9.98844 8.26 9.79844 8.5 9.55844 8.74L8.79844 9.53C8.68844 9.64 8.63844 9.77 8.63844 9.93C8.63844 10.01 8.64844 10.08 8.66844 10.16C8.69844 10.24 8.72844 10.3 8.74844 10.36C8.92844 10.69 9.23844 11.12 9.67844 11.64C10.1284 12.16 10.6084 12.69 11.1284 13.22C11.6684 13.75 12.1884 14.24 12.7184 14.69C13.2384 15.13 13.6684 15.43 14.0084 15.61C14.0584 15.63 14.1184 15.66 14.1884 15.69C14.2684 15.72 14.3484 15.73 14.4384 15.73C14.6084 15.73 14.7384 15.67 14.8484 15.56L15.6084 14.81C15.8584 14.56 16.0984 14.37 16.3284 14.25C16.5584 14.11 16.7884 14.04 17.0384 14.04C17.2284 14.04 17.4284 14.08 17.6484 14.17C17.8684 14.26 18.0984 14.39 18.3484 14.56L21.6584 16.91C21.9184 17.09 22.0984 17.3 22.2084 17.55C22.3084 17.8 22.3684 18.05 22.3684 18.33Z" stroke="#969696" stroke-width="1.5" stroke-miterlimit="10"/>
</svg>
