<svg width="24" height="24" viewBox="0 0 24 24" fill="none" xmlns="http://www.w3.org/2000/svg">
<path fill-rule="evenodd" clip-rule="evenodd" d="M2 11.1199V12.8799C2 13.9199 2.85 14.7799 3.9 14.7799C5.71 14.7799 6.45 16.0599 5.54 17.6299C5.02 18.5299 5.33 19.6999 6.24 20.2199L7.97 21.2099C8.76 21.6799 9.78 21.3999 10.25 20.6099L10.36 20.4199C11.27 18.8499 12.75 18.8499 13.65 20.4199L13.76 20.6099C14.23 21.3999 15.25 21.6799 16.04 21.2099L17.77 20.2199C18.68 19.6999 18.99 18.5399 18.47 17.6299C17.56 16.0599 18.3 14.7799 20.11 14.7799C21.16 14.7799 22.01 13.9199 22.01 12.8799V11.1199C22.01 10.0699 21.15 9.21994 20.11 9.21994C18.3 9.21994 17.56 7.93994 18.47 6.36994C18.99 5.46994 18.68 4.29994 17.77 3.77994L16.04 2.78994C15.25 2.31994 14.23 2.59994 13.76 3.38994L13.65 3.57994C12.74 5.14994 11.26 5.14994 10.36 3.57994L10.25 3.38994C9.78 2.59994 8.76 2.31994 7.97 2.78994L6.24 3.77994C5.33 4.29994 5.02 5.46994 5.54 6.36994C6.45 7.93994 5.71 9.21994 3.9 9.21994C2.85 9.21994 2 10.0799 2 11.1199ZM15 11.9999C15 13.6568 13.6569 14.9999 12 14.9999C10.3431 14.9999 9 13.6568 9 11.9999C9 10.3431 10.3431 8.99994 12 8.99994C13.6569 8.99994 15 10.3431 15 11.9999Z" fill="#46B093"/>
</svg>
