<svg width="25" height="24" viewBox="0 0 25 24" fill="none" xmlns="http://www.w3.org/2000/svg">
<path d="M12.3008 6.43994V9.76994" stroke="#222222" stroke-width="1.5" stroke-miterlimit="10" stroke-linecap="round"/>
<path d="M12.3217 2C8.64166 2 5.66166 4.98 5.66166 8.66V10.76C5.66166 11.44 5.38166 12.46 5.03166 13.04L3.76166 15.16C2.98166 16.47 3.52166 17.93 4.96166 18.41C9.74166 20 14.9117 20 19.6917 18.41C21.0417 17.96 21.6217 16.38 20.8917 15.16L19.6217 13.04C19.2717 12.46 18.9917 11.43 18.9917 10.76V8.66C18.9817 5 15.9817 2 12.3217 2Z" stroke="#222222" stroke-width="1.5" stroke-miterlimit="10" stroke-linecap="round"/>
<path d="M15.6307 18.8201C15.6307 20.6501 14.1307 22.1501 12.3007 22.1501C11.3907 22.1501 10.5507 21.7701 9.9507 21.1701C9.3507 20.5701 8.9707 19.7301 8.9707 18.8201" stroke="#222222" stroke-width="1.5" stroke-miterlimit="10"/>
</svg>
