<svg width="84" height="102" viewBox="0 0 84 102" fill="none" xmlns="http://www.w3.org/2000/svg">
<g clip-path="url(#clip0_30_587)">
<path d="M2.18066 15.3046C2.66612 14.3114 3.46227 13.561 4.16132 12.741C5.45749 11.2211 6.88959 9.80943 8.11051 8.23424C9.48192 6.46426 11.3922 6.10593 13.3704 6.14681C15.0695 6.18048 16.7807 6.3873 18.3924 7.08471C18.975 7.33722 19.6328 7.54645 20.3124 7.40456C20.5794 7.46228 20.8149 7.60417 21.0843 7.64505C21.2538 7.67991 21.4202 7.72817 21.5819 7.78935C22.2882 8.14286 23.0941 8.19817 23.8028 8.53726C24.1815 8.77774 24.4534 9.18176 24.9291 9.28757C25.1888 9.39339 25.4 9.58578 25.6573 9.6916C26.0942 9.81425 26.4486 10.1028 26.8709 10.264C27.2367 10.4075 27.5677 10.6264 27.8418 10.9061C27.9268 10.9758 28.0045 11.0479 28.0846 11.1201C28.3273 11.3413 28.672 11.3606 28.9462 11.5193C29.1671 11.6852 29.4128 11.8159 29.6744 11.9065C30.689 12.6039 31.7303 13.258 32.7474 13.9458C33.1302 14.1121 33.4777 14.3488 33.7717 14.6432C34.0799 15.0016 34.5848 15.0496 34.9295 15.3527C35.2451 15.6862 35.6162 15.9636 36.0266 16.1727C37.0291 16.8701 38.1044 17.4545 39.0267 18.2722C40.0462 19.1788 40.318 19.1379 41.3181 18.164C41.7574 17.7383 42.1798 17.2982 42.6021 16.8557C42.8145 16.6365 43.0487 16.4391 43.3011 16.2665C43.3877 16.2307 43.4805 16.2123 43.5742 16.2123C43.668 16.2123 43.7608 16.2307 43.8473 16.2665C44.1102 16.4356 44.3344 16.6577 44.5051 16.9182C44.7478 17.4714 44.6507 18.1207 45.0318 18.6401C45.0841 18.7503 45.1248 18.8655 45.1532 18.984C45.2033 19.3992 45.3595 19.7949 45.6071 20.1335C45.716 20.4194 45.7847 20.7189 45.811 21.0233C46.3959 22.2065 46.4809 23.5869 47.3013 24.6739C47.6096 25.2607 47.4518 25.9654 47.7868 26.5473C47.8377 26.7205 47.8741 26.8936 47.913 27.0692C48.0219 27.4156 48.1574 27.7533 48.3183 28.0792C48.3908 28.2611 48.4453 28.4496 48.481 28.642C49.2601 30.8352 50.0781 33.014 50.8451 35.2097C51.066 35.847 51.5029 36.6526 50.3961 37.0374C47.7625 36.7536 45.1653 36.2101 42.5802 35.6858C39.2573 35.0101 35.864 34.7071 32.5896 33.7956C31.9391 33.6128 31.2716 33.6778 30.6138 33.6176C29.6793 33.5335 28.8758 33.2497 28.6088 32.218C28.5725 32.0035 28.5652 31.7851 28.587 31.5687C28.5989 31.4323 28.6291 31.298 28.6768 31.1695C29.2278 30.4721 30.1477 30.1522 30.6016 29.349C31.24 28.7021 31.1672 28.2812 30.3953 27.6776C28.0301 25.8299 25.5722 24.1018 23.031 22.4999C19.3901 20.2009 15.5525 18.1543 11.4504 16.6777C9.50861 15.9827 7.51825 15.7158 5.51332 15.4272C5.09583 15.3647 4.72688 15.5138 4.33366 15.5523C3.60063 15.6412 2.83603 15.8769 2.18066 15.3046Z" fill="#ECD354"/>
<path d="M47.5837 26.6675C47.1323 26.1288 47.0716 25.506 47.1808 24.847C47.9867 24.063 49.0522 23.5676 49.7173 22.6249C49.8587 22.4255 50.0128 22.2351 50.1785 22.055C50.7853 21.6077 51.2586 21.9732 51.7052 22.3291C52.4893 22.9568 53.2878 23.5676 54.0621 24.2073C55.5111 25.2242 56.8602 26.3739 58.0914 27.6415C58.1958 27.7064 58.2953 27.7762 58.3948 27.8483C59.8512 28.9161 61.1352 30.1834 62.4532 31.4003C63.713 32.5643 65.0116 33.6753 66.3369 34.7671C67.6525 36.1884 69.1501 37.4389 70.4074 38.9179C71.6453 40.0073 72.6041 41.3444 73.677 42.5781C75.0168 43.884 76.3688 45.1802 77.1115 46.943C78.8762 49.1723 80.6068 51.4233 82.2525 53.7416C82.755 54.451 82.8545 54.9223 82.3035 55.6943C77.648 62.1875 72.5483 68.3006 66.3951 73.4903C64.832 74.8082 64.8344 74.8202 63.5431 73.2042C63.4211 73.0226 63.2334 72.8943 63.0188 72.8458C62.7178 72.6535 62.5794 72.3288 62.3707 72.057C62.2955 71.9705 62.2226 71.8791 62.1522 71.7877C61.1619 70.5227 60.2735 69.1832 59.1012 68.0674C58.2468 67.1054 57.5744 66.0184 56.7443 65.0444C53.8315 61.6127 50.6105 58.484 47.3968 55.3408C43.177 51.2273 38.7082 47.3724 34.0153 43.7974C33.4763 43.4152 32.9742 42.9845 32.5152 42.5108C32.395 42.2823 32.3444 42.0241 32.3696 41.7677C32.7045 40.5653 33.8623 40.0049 34.5735 39.0935C34.8284 38.853 35.0978 38.6486 35.3406 38.4033C35.5008 38.2374 35.6415 38.0546 35.7945 37.8838C35.9672 37.7107 36.1861 37.5897 36.4255 37.5351C36.8212 37.5063 37.2872 37.4101 37.4474 37.8886C37.5712 38.2638 37.2338 38.538 36.9887 38.7833C36.2386 39.536 35.6974 40.4667 34.8745 41.1545C34.2968 41.6354 34.292 41.9841 34.9401 42.4723C37.411 44.3361 39.7946 46.3033 42.1394 48.3258C46.6978 52.3143 51.0375 56.5417 55.1398 60.9898C58.4905 64.5681 61.6001 68.3607 64.4484 72.3432C64.9655 73.0647 65.4194 72.7881 65.8587 72.3673C67.3782 70.8883 69.0894 69.6161 70.5288 68.0385C74.0265 64.234 77.4101 60.3429 80.4369 56.1488C81.4539 54.7396 81.4612 54.7708 80.4175 53.3279C75.6356 46.7611 70.2297 40.6633 64.2737 35.1182C60.3124 31.4027 56.1593 27.9036 51.931 24.4743C51.2028 23.8731 50.6227 23.7167 49.9746 24.5777C49.6081 25.0587 49.1372 25.4819 48.761 25.9701C48.4551 26.3405 48.2124 26.8262 47.5837 26.6675Z" fill="#68B754"/>
<path d="M51.8354 2.59972C52.4592 2.96766 52.6849 3.60495 52.9447 4.2182C53.1043 4.33855 53.2336 4.49389 53.3224 4.67205C53.4113 4.85021 53.4573 5.04635 53.4568 5.24507C53.4131 7.79183 52.8961 10.1751 50.981 12.0557C49.6023 12.1014 48.5537 12.7771 47.7017 13.7872C47.6001 13.9322 47.4706 14.0559 47.3207 14.1512C47.1707 14.2465 47.0033 14.3116 46.8279 14.3427C46.6938 14.2964 46.5758 14.2129 46.4881 14.1022C45.908 12.9479 45.7381 11.6733 45.4322 10.4444C44.7647 7.76057 44.0001 5.10559 43.2477 2.4434C42.8569 1.05339 43.2598 0.608489 44.6725 0.868215C46.6726 1.23856 48.6629 1.66182 50.6606 2.04419C51.0997 2.10781 51.5093 2.30145 51.8354 2.59972Z" fill="#3775A7"/>
<path d="M2.18086 15.3047C3.12992 15.2494 4.13967 15.0642 4.99893 15.0642C6.15925 15.0651 7.31621 15.1877 8.45052 15.4297C12.0744 16.2522 15.327 17.9837 18.6451 19.5397C19.1767 19.7802 19.5577 20.2419 20.0529 20.4896C23.6477 22.2908 26.8493 24.662 30.0047 27.1054C30.138 27.2191 30.281 27.3213 30.4319 27.4108C32.0169 28.2718 32.0194 28.2693 30.7936 29.5632C30.1431 29.7916 29.8372 29.1447 29.3372 29.0028C28.2412 28.0639 27.0867 27.1941 25.8808 26.3984C25.6235 26.2444 25.3347 26.1458 25.0846 25.9799C23.9293 24.9891 22.6185 24.2244 21.3272 23.4332C19.497 22.3582 17.7154 21.199 15.7736 20.3213C15.1012 19.9244 14.3852 19.5998 13.7007 19.2318C13.325 19.0395 12.9336 18.8786 12.5308 18.7509C11.9749 18.5104 11.3851 18.3348 10.8123 18.1304C10.5702 17.9478 10.295 17.8131 10.0015 17.7336C9.26122 17.5316 8.51119 17.3609 7.76359 17.1925C6.47083 16.9077 5.1383 16.8451 3.82413 17.0073C1.95027 17.2719 1.2585 18.229 1.59589 20.1337C1.89687 21.8387 2.80953 23.3105 3.55956 24.8376C3.69548 25.1118 3.84354 25.3811 4.00131 25.6408C4.59357 26.8192 5.49167 27.8269 5.96499 29.0726C5.96499 29.4117 6.12276 29.895 5.78294 30.0345C5.33147 30.2125 5.13 29.7051 4.92125 29.402C2.89933 26.4801 1.25607 23.3658 0.219622 19.9629C-0.292534 18.2434 0.479337 16.4759 2.18086 15.3047Z" fill="#EFDB6E"/>
<path d="M43.8431 71.0422L43.3576 70.2606C43.0566 69.8374 43.2629 69.6642 43.6901 69.5993C43.9295 69.7858 44.2124 69.9095 44.5128 69.9591C44.8131 70.0087 45.1212 69.9825 45.4087 69.8831C46.6344 69.5344 47.8505 69.1424 49.1005 68.8851C50.1637 68.6638 50.2122 68.1997 49.4938 67.5047C48.482 66.3498 47.2925 65.3605 45.9694 64.5731C44.9111 63.943 44.7557 64.032 44.712 65.2946C44.7298 65.9489 44.7039 66.6036 44.6344 67.2546C44.314 67.9928 44.8188 68.9957 43.894 69.5392C43.3091 69.2867 43.2751 68.7937 43.3261 68.2646C43.61 67.2401 43.4814 66.1892 43.4887 65.1383C43.4887 64.2557 43.1028 63.9358 42.2386 64.3086C40.9158 64.8906 39.5371 65.3619 38.355 66.2108C37.2579 66.7736 36.1583 67.3339 35.3039 68.255C35.1291 68.4426 34.8379 68.6037 34.8888 68.8851C34.9592 69.2698 35.35 69.2458 35.634 69.2867C37.6414 69.5777 39.6536 69.835 41.6537 70.1596C42.0979 70.2318 42.6755 70.0971 42.8479 70.7392C42.6173 70.8017 42.3624 70.8306 42.2386 71.0735C39.957 71.35 37.7749 70.6959 35.5612 70.352C35.3476 70.3184 35.151 70.1885 34.9495 70.2174C35.4107 70.2871 35.85 70.4194 35.9204 71.0134C35.6777 71.2539 35.6292 71.9753 35.0636 71.3212C32.8426 69.6883 30.2358 68.736 27.8934 67.3171C25.5972 65.9247 23.3277 64.5034 21.4709 62.63C21.5267 63.3971 22.4151 64.1234 21.7136 65.0349C20.5679 64.525 20.6723 63.3178 20.216 62.4208C20.1601 61.5406 19.3955 61.0067 19.1188 60.2299C19.0751 59.8884 19.0994 59.571 19.4441 59.3714C19.7696 59.3212 20.1026 59.385 20.3859 59.5517C20.6868 59.7754 20.9005 60.088 21.182 60.3333C23.1675 63.3514 26.2502 65.0445 29.192 66.8024C27.02 64.5386 25.1444 62.0129 23.6093 59.2848C23.4127 58.9433 23.2161 58.5922 23.267 58.1714C23.2954 58.0807 23.3443 57.9976 23.4099 57.9285C23.4755 57.8593 23.5561 57.8059 23.6457 57.7722C24.4952 58.1136 24.6457 59.0058 25.1385 59.6287C26.9735 62.8943 29.4386 65.7705 32.3936 68.0938C32.9664 68.5387 33.3354 68.7071 33.8937 68.0121C34.668 67.0501 35.7675 66.4225 36.8064 65.7515C38.5225 64.6573 40.3866 63.8444 42.5882 62.9089C37.2482 59.8668 32.2188 56.8727 27.0536 54.1336C26.7682 53.9726 26.5311 53.7394 26.3667 53.4578C26.2502 53.2173 26.0973 52.9768 26.3376 52.7364C26.4548 52.669 26.5862 52.6297 26.7214 52.6213C26.8566 52.613 26.992 52.6359 27.1167 52.6883C32.1266 55.7545 37.3113 58.5297 42.3916 61.4732C43.2314 61.9542 43.7484 61.6993 43.9547 60.8119C44.2363 59.6095 44.4887 58.407 44.8383 57.2311C44.979 56.7501 45.0324 56.1392 45.8092 56.2691C45.967 56.4815 46.0365 56.7457 46.0033 57.0074C45.7994 58.2098 45.4912 59.4123 45.2023 60.5955C45.1222 60.9273 44.9353 61.3169 45.2339 61.5911C45.5325 61.8652 45.9014 61.5911 46.2048 61.4636C47.1757 61.0668 48.1272 60.581 49.1467 60.2756C49.3377 60.2551 49.5302 60.2991 49.6928 60.4007C49.9598 61.0716 49.3748 61.2135 48.9986 61.442C48.2461 61.9013 47.4039 62.1755 46.5932 62.517C45.7825 62.8584 45.8116 63.1591 46.5446 63.6016C48.1248 64.5635 49.6491 65.6 50.6953 67.1752C51.1953 68.3367 52.0133 67.6562 52.7366 67.5191C52.8587 67.5252 52.974 67.5767 53.0594 67.6634C53.1808 67.8047 53.2731 67.968 53.3313 68.1444C53.3844 68.3235 53.3706 68.5156 53.2925 68.6855C53.2206 68.7863 53.131 68.8735 53.0279 68.9428C51.654 69.229 50.6856 70.1693 49.6467 70.9989C49.3797 71.213 49.7098 71.2394 49.7341 71.3645C49.0884 71.6819 48.4452 71.9176 47.8262 71.3116C48.1054 70.3496 48.9889 70.162 49.8117 69.7316C48.2801 70.3592 46.7437 70.6767 45.2315 71.0855C44.746 71.1865 44.2775 71.4486 43.8431 71.0422Z" fill="#DAE6EF"/>
<path d="M69.9261 12.4741C70.9626 13.6381 71.5694 15.0642 72.3534 16.3797C73.4263 17.3175 73.8243 18.645 74.3147 19.8908C75.0818 21.7553 75.5881 23.715 75.8196 25.7154C75.8657 26.1578 76.1934 26.7807 75.6011 26.9947C75.0598 27.1919 74.7807 26.5739 74.5064 26.2132C73.6102 25.0195 72.6122 23.9044 71.5233 22.88C70.414 21.567 69.0717 20.4944 67.812 19.3376C67.0668 18.6547 66.892 17.9813 67.6663 17.2165C68.5895 16.1383 69.1734 14.8156 69.346 13.412C69.3946 13.0513 69.2004 12.4597 69.9261 12.4741Z" fill="#99CF8B"/>
<path d="M32.6772 42.5349C34.687 43.7109 36.4492 45.2332 38.2186 46.7074C41.2843 49.2637 44.1873 52.0125 47.1535 54.6867C47.3039 54.8454 47.4411 55.0159 47.5637 55.1966C48.8695 56.7261 50.321 58.1233 51.7192 59.5686C53.1173 61.0139 54.3236 62.6324 55.5737 64.2052C55.7946 64.4793 55.9416 64.8045 56.0009 65.1503C56.5519 66.9588 57.581 68.57 58.1854 70.352C58.3311 70.7825 58.7 70.7681 59.0398 70.833C59.4573 71.0735 59.9185 71.2996 59.2825 71.795L57.7752 72.8411C56.9742 71.6843 57.1344 70.1717 56.1101 69.2001C55.729 68.8875 55.6465 68.3945 55.3819 68.0145C55.3091 67.8582 55.2508 67.6971 55.1926 67.5335C54.9866 67.2008 54.8088 66.8517 54.661 66.4898C54.5591 66.2806 54.394 66.1123 54.2896 65.9054C53.4814 63.7771 51.809 62.2068 50.6147 60.3286C48.9909 58.5946 47.7336 56.5361 45.8451 55.0378C44.1461 53.5949 42.413 52.2193 40.7139 50.798C39.2745 49.5956 37.9007 48.3066 36.3763 47.1907C36.1991 47.0296 36.0389 46.8493 35.852 46.7098C34.818 46.0725 33.9928 45.161 32.9393 44.5454C32.6467 44.3594 32.4386 44.0679 32.3592 43.7325C32.3058 43.2924 32.2694 42.8572 32.6772 42.5349Z" fill="#448840"/>
<path d="M51.8358 2.59959C49.3745 2.11861 46.9109 1.63764 44.4545 1.14224C43.5758 0.961872 43.117 0.945038 43.4835 2.10419C44.7773 6.1107 45.7846 10.1749 46.7555 14.2536C46.7795 14.3837 46.7567 14.5179 46.691 14.6331C46.6254 14.7482 46.5211 14.8369 46.3963 14.8837C46.3322 14.8811 46.2696 14.8636 46.2135 14.8327C46.1574 14.8018 46.1095 14.7583 46.0735 14.7057C45.0443 10.7064 44.0515 6.69508 42.85 2.74147C42.4932 1.56309 42.4908 1.53904 41.4252 2.27253C40.2553 3.06854 39.0975 3.88138 37.9397 4.69423C37.2964 5.14394 36.8959 5.68503 37.544 6.43776C38.2292 7.5068 39.023 8.50361 39.913 9.41259C41.4689 11.69 43.6923 13.3662 45.4812 15.4248C45.5397 15.533 45.583 15.6487 45.6098 15.7687C45.8671 16.6945 45.6511 17.1298 44.6122 16.7066C44.4367 16.122 44.1075 15.5941 43.6583 15.1771C41.9252 13.6283 40.5029 11.779 38.8742 10.1268C37.9833 9.0735 37.2285 7.91676 36.3813 6.83216C36.0124 6.28145 35.6046 6.4089 35.1871 6.76963C34.8012 7.06303 34.5075 7.51274 33.9444 7.51755C33.8505 7.49777 33.7647 7.4509 33.6978 7.38284C33.6308 7.31479 33.5857 7.22861 33.5681 7.13518C33.5687 6.87697 33.6665 6.62827 33.8424 6.43776C35.7066 5.22089 34.0026 3.97518 33.8691 2.57314C31.6433 4.01606 30.3301 6.01451 29.3738 8.29913C29.0716 8.96322 28.8279 9.65198 28.6456 10.3577C28.5655 10.7521 28.5291 11.2427 27.9393 11.2764L27.7912 11.0359C27.4757 10.6246 27.4732 10.1533 27.5485 9.67472C28.9393 6.23816 30.5656 2.97475 34.0609 1.10617C34.1157 1.06914 34.1603 1.01921 34.1908 0.960867C34.2213 0.902522 34.2367 0.837584 34.2356 0.771886C34.8594 0.182692 35.4735 0.718978 36.0901 0.786314C36.2163 1.3202 35.6677 1.3731 35.4468 1.65928C34.8764 2.39758 34.9905 3.15511 35.4881 3.8381C35.9857 4.52108 36.6216 4.14111 37.1314 3.82127C38.999 2.65901 40.7906 1.38109 42.4957 -0.00488281H43.0394C45.3841 0.59393 47.7895 0.889729 50.1489 1.42361C50.7411 1.55828 51.3916 1.56309 51.8261 2.09456L51.8358 2.59959Z" fill="#DAEAF2"/>
<path d="M67.2835 10.3096C67.7204 10.8435 68.5554 10.8988 68.8612 11.5938C68.4656 12.6183 67.6767 13.0512 66.6087 13.0512C65.6888 13.0512 64.7664 13.1353 63.8562 12.9574C62.662 12.5077 62.0916 11.3822 61.3658 10.4924C59.8536 8.63823 58.0186 7.15202 56.2345 5.59607C55.8729 5.28103 55.4263 5.04055 55.4238 4.47541C55.4453 4.37835 55.4927 4.28877 55.561 4.21602C55.6293 4.14327 55.716 4.09 55.8122 4.06177C57.4045 4.21087 58.6497 5.18965 60.0187 5.84858C62.2032 6.89951 64.2518 8.1789 66.3005 9.45589C66.6597 9.68916 67.0723 9.89598 67.2835 10.3096Z" fill="#3775A7"/>
<path d="M5.97699 29.0676C5.04249 28.161 4.44052 27.0355 3.84584 25.9028C3.7548 25.7278 3.70055 25.5364 3.68636 25.34C3.67218 25.1437 3.69836 24.9465 3.76331 24.7605C4.55461 22.2402 5.74154 19.9003 7.09354 17.6397C7.28145 17.338 7.54481 17.0895 7.85813 16.9182C8.70767 16.9326 9.47227 17.2813 10.2733 17.493C10.4262 17.6661 10.5815 17.9234 10.4602 18.087C9.5378 19.3423 9.24653 20.956 8.16397 22.1127C7.09597 24.3324 6.61051 26.7229 5.97699 29.0676Z" fill="#D09C35"/>
<path d="M11.4218 53.8523C8.42167 50.4638 7.3294 46.3419 6.79297 42.0059C6.82246 41.9026 6.87988 41.8092 6.95902 41.7359C7.03816 41.6626 7.13601 41.6121 7.24202 41.5898C9.47511 42.2151 10.0649 42.9654 10.0747 45.1972C10.0832 45.3285 10.0832 45.4602 10.0747 45.5915C9.75911 48.0157 10.6572 49.9371 12.7204 51.1949C14.5457 52.3083 14.684 53.809 14.1598 55.5982C14.1147 55.6758 14.0517 55.7418 13.9761 55.7908C13.9005 55.8398 13.8142 55.8705 13.7244 55.8803C13.6346 55.8902 13.5437 55.8789 13.4591 55.8474C13.3744 55.816 13.2985 55.7652 13.2374 55.6992C12.5796 55.1437 11.7713 54.7132 11.4218 53.8523Z" fill="#24527D"/>
<path d="M34.2355 0.795898C34.3156 0.913737 34.8666 0.889688 34.4782 1.11094C31.2305 2.98433 29.3809 5.92068 27.995 9.2394C27.9505 9.31482 27.8976 9.38501 27.8372 9.44862C27.6026 9.93128 27.205 10.3175 26.7134 10.5404L25.4585 9.95124C25.4293 9.22978 26.0289 8.92436 26.4294 8.50832C26.927 8.00089 26.8032 7.81812 26.1866 7.52713C25.5701 7.23615 24.973 7.74117 24.4633 7.28665C24.1793 6.2237 24.5094 5.3892 25.4123 4.76634C27.5508 2.56108 30.4829 2.03681 33.2379 1.1422C33.5825 1.02436 33.9078 0.908927 34.2355 0.795898Z" fill="#3875A7"/>
<path d="M43.8432 69.5465C43.4719 69.6403 43.2801 69.8591 43.3578 70.2535C43.3166 70.3692 43.2479 70.4733 43.1575 70.557C43.0671 70.6408 42.9576 70.7017 42.8383 70.7345L33.8574 69.3157C34.9982 67.6467 36.5711 66.7136 38.2532 65.908C39.7096 66.1076 41.1344 66.3889 42.5762 66.6294C43.4816 66.7785 43.9525 67.1849 43.6369 68.1517C43.5639 68.6389 43.6373 69.1366 43.8481 69.5826L43.8432 69.5465Z" fill="#23527E"/>
<path d="M21.9729 65.0829L20.9316 62.0744C21.0943 61.8123 21.2132 61.9542 21.2763 62.0167C24.473 65.2079 28.3324 67.4084 32.3957 69.2986C33.4054 69.7796 34.2647 70.441 35.1288 71.1143C35.1506 71.1311 35.1506 71.2009 35.1288 71.2346C35.1069 71.2682 35.0632 71.2899 35.0293 71.3187C33.437 70.8378 31.8155 70.453 30.2621 69.8758C27.3494 68.8056 24.4366 67.7355 22.2399 65.4052C22.2006 65.4025 22.1622 65.3919 22.1272 65.3741C22.0921 65.3562 22.0612 65.3314 22.0361 65.3012C22.0111 65.271 21.9926 65.2361 21.9818 65.1985C21.9709 65.161 21.9679 65.1216 21.9729 65.0829Z" fill="#25527D"/>
<path d="M6.83887 29.1085C7.1714 27.2399 7.28792 25.2992 8.64234 23.7673C9.12779 22.9881 9.88996 22.6586 10.7201 22.4157C10.9894 22.3345 11.2754 22.3237 11.5502 22.3845C11.6683 22.4736 11.7536 22.5986 11.7929 22.7404C11.6279 24.6859 11.2298 26.5882 11.0405 28.5433C10.9264 29.7121 10.9555 30.8809 10.8536 32.0448C10.8318 32.2548 10.7585 32.4563 10.64 32.6316C10.0065 32.9827 9.88025 32.3911 9.71519 32.0713C9.16905 30.9867 8.98701 29.5871 7.23451 29.7241C6.9481 29.7458 6.94809 29.3345 6.83887 29.1085Z" fill="#509768"/>
<path d="M77.0964 46.9503C75.8561 45.5074 74.7347 43.9683 73.3366 42.6625C73.0016 41.7462 73.3948 41.1185 74.1982 40.7386C75.4519 40.0983 76.6347 39.3302 77.7275 38.4467C78.0018 38.2351 78.3052 37.8792 78.6402 38.0547C79.0674 38.276 78.8659 38.7281 78.7712 39.0984C78.3974 41.7486 78.0188 44.406 77.0964 46.9503Z" fill="#3775A7"/>
<path d="M6.83931 29.1086C6.96796 29.2241 7.12088 29.4573 7.2204 29.4381C9.16222 29.0461 9.43407 30.4914 9.8904 31.7708C10.0455 32.1238 10.2315 32.4625 10.4462 32.7833L10.6234 32.9083C10.8468 34.041 10.4875 35.1136 10.2205 36.1814C10.0749 36.7561 9.63554 37.0207 9.00688 36.7465C8.18888 36.013 7.26166 35.3709 6.80533 34.3152C5.68636 32.5644 6.49464 30.8426 6.83931 29.1086Z" fill="#24527E"/>
<path d="M55.8186 65.2417C54.6948 63.3178 53.1874 61.6704 51.7287 60.0039C50.515 58.6235 49.2261 57.32 47.964 55.9877C47.8462 55.8896 47.7497 55.7689 47.68 55.633C47.6104 55.4971 47.5691 55.3486 47.5586 55.1965C49.9373 57.3609 52.2845 59.5397 54.3331 62.0095C55.1657 63.01 56.4012 63.6641 56.8915 64.9531C58.5795 67.3012 60.0323 69.8069 61.229 72.4346C61.8067 72.4924 61.979 71.807 62.4961 71.8262C62.6477 71.9526 62.7715 72.1085 62.8596 72.2844C62.9477 72.4602 62.9983 72.6522 63.0082 72.8483C60.9183 74.7241 60.9159 74.7241 59.7338 72.235C59.6984 72.1327 59.639 72.0401 59.5605 71.9649C59.4821 71.8897 59.3867 71.8339 59.2823 71.8022C59.5129 71.427 59.411 71.1745 58.9935 71.0374C58.6828 70.7464 58.224 70.6045 58.0687 70.1524C57.4837 68.4402 56.5492 66.8866 55.8186 65.2417Z" fill="#519D45"/>
<path d="M42.496 0.0193348C42.6077 0.582074 42.1586 0.776867 41.8067 1.02457C40.3503 2.03461 38.9231 3.0639 37.4522 4.04028C36.7118 4.53328 35.9084 5.27398 35.1365 4.04028C34.4083 2.8667 34.6001 1.76286 35.6632 1.12076C35.8137 1.02938 35.9497 0.921158 36.0904 0.820153C38.1609 0.0217364 40.3212 -0.0431919 42.496 0.0193348Z" fill="#3875A7"/>
<path d="M67.2834 10.3096C63.9896 8.5324 60.8341 6.48826 57.4359 4.90826C56.9189 4.66777 56.3922 4.44412 55.8679 4.21325C55.681 4.12668 55.4626 4.17959 55.2805 4.08099C55.2805 4.27338 55.5014 4.36717 55.5232 4.56196C58.4772 7.03417 61.2929 9.64105 63.6279 12.7193L63.4799 12.8443C63.2978 12.9232 63.0941 12.9385 62.9022 12.8876C62.7798 12.8469 62.6674 12.7814 62.5721 12.6952C60.1108 9.54726 57.1592 6.90431 53.8581 4.33109C54.3436 7.17846 53.2999 9.48233 52.0571 11.7357C51.7367 12.1229 51.6202 12.6976 51.0304 12.8395C50.8947 12.839 50.7647 12.7854 50.6687 12.6904C50.5425 12.4211 50.5255 12.1734 50.8143 11.9906C52.5547 9.68193 53.4334 7.14239 52.9406 4.2349C53.0741 3.65773 53.6081 3.39319 53.9455 2.97474C54.7465 2.49377 55.3849 3.0517 56.0184 3.35231C59.5501 5.03572 63.0357 6.79368 66.2712 8.99895C66.6742 9.19374 66.9048 9.57131 67.4193 9.72041C68.2203 9.9128 67.4849 10.122 67.2834 10.3096Z" fill="#DAEAF2"/>
<path d="M78.4291 32.8049C78.6282 34.0074 78.9146 35.2098 78.8272 36.4579C78.7499 36.4968 78.6807 36.5499 78.6233 36.6143C77.0067 38.4251 76.5116 38.4059 74.8974 36.4652C74.8564 36.3305 74.8415 36.1893 74.8538 36.0491C75.2106 34.2527 75.5285 32.4418 75.9363 30.6646C76.0213 30.2919 76.082 29.8373 76.565 29.758C77.048 29.6786 77.2519 30.0922 77.4752 30.4025C78.0015 31.1059 78.3306 31.9348 78.4291 32.8049Z" fill="#99CE8B"/>
<path d="M78.4288 32.8048C77.7443 31.9174 77.538 30.7294 76.5331 29.8781C75.7904 31.9871 75.8049 34.1948 75.0452 36.2125C74.9232 36.1472 74.8168 36.0567 74.733 35.9472C74.6493 35.8377 74.5902 35.7117 74.5598 35.5776C74.6135 34.1873 74.831 32.808 75.2078 31.4677C75.6787 29.8637 75.4845 28.4592 74.5233 27.1269C73.7789 26.0973 72.9809 25.1067 72.1325 24.1593C71.8169 23.8034 71.4213 23.4907 71.4043 22.9569C71.4109 22.8891 71.4358 22.8243 71.4764 22.7693C71.517 22.7143 71.5717 22.6711 71.6349 22.6442C73.2636 23.724 74.2005 25.4387 75.6399 26.973C75.351 23.0531 73.9991 19.667 72.3631 16.3651C73.5257 16.1246 73.5888 17.0866 73.9141 17.7575C74.2296 19.1644 75.1035 20.35 75.5015 21.7232C76.1496 23.3176 76.2734 25.0275 76.5477 26.694C76.822 28.3606 77.5477 29.7987 78.5138 31.1454C79.0672 31.7394 78.4798 32.2637 78.4288 32.8048Z" fill="#E4EFDD"/>
<path d="M63.6329 12.7026C64.1177 12.6727 64.6038 12.6671 65.0892 12.6858C66.497 12.8036 67.8345 12.7195 68.8709 11.594L69.1646 12.1567C69.8418 13.7319 68.9923 15.0257 68.3563 16.346C68.2183 16.671 68.0161 16.9653 67.7617 17.2118C67.2204 17.7817 66.548 17.7529 66.1572 17.1949C65.1863 15.7664 64.1135 14.3861 63.5576 12.7195L63.6329 12.7026Z" fill="#99CE8B"/>
<path d="M19.2936 60.2636C19.7329 60.9226 20.6334 61.3338 20.4368 62.3366C20.597 63.0893 20.6189 63.7795 19.6164 63.9527C17.6604 62.5 15.9193 60.7831 14.4439 58.852C14.2837 58.2075 13.8662 57.6038 14.1138 56.892C14.2254 56.7261 14.4002 56.6515 14.5604 56.7477C16.2036 57.8347 18.0071 58.7101 19.2936 60.2636Z" fill="#519769"/>
<path d="M19.2938 60.2635L14.2305 56.8053C12.9247 56.5336 12.33 55.2975 11.2863 54.6698C10.9877 54.3452 10.5459 53.9989 11.4125 53.8522L13.9563 55.8506C15.585 56.3196 16.5704 57.7529 17.7889 58.3637C16.869 57.6158 16.2185 56.3484 15.534 55.146C13.2596 51.1467 11.7062 46.8492 10.5022 42.4242C10.3937 42.0413 10.3575 41.6418 10.3954 41.2458C10.4116 41.1137 10.46 40.9874 10.5366 40.878C10.6132 40.7687 10.7155 40.6795 10.8348 40.6182C11.563 40.9067 11.4707 41.621 11.6261 42.1765C13.1286 47.5394 15.0121 52.7267 18.3084 57.3272C18.7623 57.9621 19.454 58.4527 19.6337 59.2703L19.5536 59.4555C19.2477 59.6455 19.3278 59.9798 19.2938 60.2635Z" fill="#DDEAE2"/>
<path d="M66.2754 8.98212C65.9963 9.38614 65.8458 8.98212 65.6759 8.8715C62.3755 6.85568 58.9558 5.03833 55.4352 3.42928C54.9643 3.21765 54.5129 2.90502 53.9497 2.9483C53.5832 2.83287 53.2216 2.72224 52.8502 2.5996C52.3526 2.43125 52.3186 2.01281 52.4424 1.63765C52.605 1.13984 52.9691 1.52221 53.1997 1.59195C57.8164 2.98107 62.0982 5.28961 65.7827 8.3761C65.9666 8.56167 66.1316 8.76464 66.2754 8.98212Z" fill="#3C75A5"/>
<path d="M74.7522 35.6499C74.8493 35.8399 74.9488 36.0299 75.0459 36.2223C75.0459 36.2848 75.0459 36.3497 75.0604 36.4147C75.3784 37.7061 74.3735 38.7137 74.2789 40.034C75.4221 39.654 76.2717 38.9278 77.1479 38.2376C77.5484 37.9249 77.8178 37.391 78.4562 37.4704C78.9587 37.9345 79.3009 38.4324 78.7742 39.0889C78.7523 38.7883 78.7305 38.4877 78.6941 38.0139C77.2626 39.3026 75.6644 40.3968 73.9415 41.2677C73.439 41.525 73.4754 42.1647 73.3516 42.6625C72.2076 41.3799 71.066 40.0925 69.9268 38.8003C70.4122 38.6752 70.769 38.9181 71.1525 39.1466C72.1744 39.7574 72.2108 39.719 72.2691 38.4901C72.3249 37.3886 72.07 36.3257 71.9632 35.2387C71.9171 34.7577 71.7327 34.2912 72.0045 33.8294C72.079 33.7573 72.173 33.7082 72.2752 33.6881C72.3773 33.6681 72.4832 33.6779 72.5798 33.7164C72.7467 33.8335 72.869 34.003 72.9269 34.1974C73.291 35.5922 73.3371 37.0351 73.5288 38.4684C73.9924 37.6604 74.0143 36.6984 74.4682 35.888C74.5434 35.7883 74.6405 35.7069 74.7522 35.6499Z" fill="#DDE9EF"/>
<path d="M78.5096 31.1598C78.4222 31.2921 78.461 31.6745 78.1479 31.2801C76.592 29.3225 76.0968 26.985 75.8711 24.6114C75.774 23.5941 75.2036 22.7187 75.2449 21.7015C75.1284 21.3936 75.0774 21.1171 75.558 21.1267C77.0599 24.2996 78.0556 27.6843 78.5096 31.1598Z" fill="#9ACF8D"/>
<path d="M6.3 40.5991C6.33641 38.6944 5.69561 36.797 6.23932 34.8899C7.43111 34.8899 7.98939 35.657 8.42387 36.6046C8.51891 37.4672 8.53273 38.3367 8.46513 39.2018C8.41416 39.9666 7.90686 40.4644 7.39713 40.9502C7.15441 41.1738 6.98935 41.6235 6.567 41.4311C6.2466 41.2844 6.46263 40.8588 6.3 40.5991Z" fill="#54986C"/>
<path d="M78.4558 37.4703C77.0998 38.8906 75.4585 40.0137 73.6377 40.7674C74.1571 39.1825 74.6086 37.7974 75.0601 36.4146C76.2907 38.1412 77.5577 37.4823 78.8272 36.4675L78.4558 37.4703Z" fill="#3A76A5"/>
<path d="M51.8258 2.126L43.5536 0.509922C43.2721 0.45461 43.0488 0.356011 43.0391 0.0289481C45.7091 -0.00472004 48.3232 0.425757 50.9229 0.974068C51.5273 1.09912 52.1729 1.24581 51.8258 2.126Z" fill="#4176A4"/>
<path d="M35.8913 71.0109L34.7529 70.1788L34.7966 69.9768L42.2144 71.071C40.6294 72.6462 38.8356 71.7925 37.1001 71.4823C36.682 71.3663 36.277 71.2084 35.8913 71.0109Z" fill="#2D557F"/>
<path d="M43.8427 71.0423L50.1002 69.4575C49.44 70.369 48.5273 70.7177 47.804 71.2973C46.7522 71.6933 45.6438 71.9222 44.5199 71.9754C43.5999 72.038 43.4883 71.7638 43.8427 71.0423Z" fill="#2B537B"/>
<path d="M49.6996 71.3428L48.7627 71.2899C50.2336 70.2222 51.2482 68.7335 53.1488 68.6614C53.6342 69.1279 53.8187 69.6474 53.4304 70.263C52.2507 70.8402 50.9327 70.9508 49.6996 71.3428Z" fill="#29537C"/>
<path d="M23.7988 8.69609C22.908 8.6504 22.0342 8.5518 21.3594 7.86881C21.6798 6.8756 22.4444 6.30083 23.3206 5.82948L24.3741 4.97095C24.4639 4.97095 24.6168 5.01183 24.6168 5.03588C24.4056 6.26957 24.7624 7.62833 23.7988 8.69609Z" fill="#3B75A5"/>
<path d="M53.4303 70.2631C53.3381 69.7292 53.2442 69.1953 53.1488 68.6614L53.1221 68.623C53.8017 67.964 54.5663 67.5624 55.5493 67.827C55.7628 67.9828 55.9282 68.1945 56.0268 68.4384C56.1254 68.6823 56.1534 68.9486 56.1076 69.2073C55.3185 69.7758 54.3979 70.1389 53.4303 70.2631Z" fill="#1A3C61"/>
<path d="M8.16211 22.12C8.59659 20.4582 9.68158 19.0898 10.2714 17.5002C10.336 17.4855 10.4032 17.4853 10.4679 17.4996C10.5326 17.514 10.5933 17.5425 10.6454 17.5831C10.6975 17.6236 10.7398 17.6753 10.7692 17.7342C10.7986 17.7931 10.8143 17.8578 10.8151 17.9235C11.1525 19.0489 10.2811 19.792 9.88305 20.665C9.55537 21.3865 9.50196 21.8675 10.3054 22.2089C9.83935 22.851 9.37575 23.4931 8.41455 23.2262C8.33445 22.8559 9.18399 22.2787 8.16211 22.12Z" fill="#7AABA9"/>
<path d="M11.2959 54.6699C12.5775 54.9753 13.2377 56.1128 14.2402 56.8054C14.279 57.4908 14.6213 58.145 14.4441 58.852C13.1576 57.6327 12.3299 56.0744 11.2959 54.6699Z" fill="#385D7D"/>
<path d="M67.5107 17.1517C68.5787 15.6558 69.2268 14.0253 69.154 12.1567C69.4429 12.188 69.7948 12.0653 69.9259 12.4742C69.5764 14.0566 69.3288 15.6775 68.2899 17.017C68.1462 17.1745 67.9913 17.3216 67.8263 17.4571C67.7475 17.4466 67.6742 17.4113 67.6174 17.3562C67.5605 17.3012 67.5231 17.2294 67.5107 17.1517Z" fill="#D8E9D0"/>
<path d="M23.7988 8.69592C23.9202 7.44298 24.4857 6.25739 24.3741 4.97078C24.6338 4.45373 25.01 4.4898 25.4275 4.75674C25.0562 5.57921 24.5076 6.35117 24.6459 7.32514C25.0586 8.01294 25.3086 8.71756 24.8717 9.48953C24.1823 9.66027 24.0367 9.12158 23.7988 8.69592Z" fill="#D8E3E7"/>
<path d="M19.6162 63.9528C20.007 63.4718 20.5531 63.0678 20.4342 62.3367C21.0095 63.2169 20.8371 64.501 21.9707 65.083L22.2425 65.4101C20.9682 65.6313 20.4585 64.5011 19.6162 63.9528Z" fill="#33597B"/>
<path d="M75.5572 21.1268C75.3145 21.247 75.2854 21.4755 75.2441 21.7015C74.7732 20.4005 73.829 19.2558 73.9091 17.772C74.5111 18.8566 75.2053 19.9147 75.5572 21.1268Z" fill="#ADD4A5"/>
<path d="M23.3201 5.82944L21.3613 7.86877H20.7982C20.6695 7.13288 21.4026 6.98859 21.7181 6.55811C22.0701 5.91601 22.4827 5.38935 23.3201 5.82944Z" fill="#C3D5E1"/>
<path d="M6.30031 40.599C6.40711 40.8275 6.51635 41.056 6.6547 41.347L8.17903 39.4495C8.18449 39.3692 8.20619 39.2907 8.24283 39.2188C8.27948 39.1469 8.33033 39.0831 8.39236 39.0311C8.45439 38.979 8.52634 38.9399 8.60395 38.9159C8.68155 38.8919 8.76321 38.8837 8.8441 38.8916C8.97039 38.9074 9.0906 38.9546 9.19363 39.0287C9.3684 39.7958 8.6475 40.0411 8.31739 40.5149C7.90961 40.9117 7.64989 41.46 7.10375 41.7173L6.80034 42.0131C6.33673 41.6379 6.1207 41.1858 6.30031 40.599Z" fill="#D3E0E3"/>
<path d="M8.16169 36.4435C7.67623 35.7365 6.94805 35.318 6.24414 34.8875C6.43104 34.6976 6.61794 34.5052 6.80727 34.3152L8.94327 36.4387C8.92966 36.5188 8.89519 36.594 8.84325 36.6568C8.79131 36.7197 8.72371 36.768 8.64714 36.797C8.37286 36.8211 8.25878 36.6527 8.16169 36.4435Z" fill="#C0D0D9"/>
<path d="M8.4043 23.2263C9.15918 23.1709 9.6592 22.6274 10.2587 22.2643C10.2997 22.1753 10.3703 22.1029 10.4586 22.0591C10.5469 22.0154 10.6477 22.0029 10.7442 22.0238C11.2491 22.2427 11.1277 22.4663 10.7442 22.69L8.62518 23.7577L8.4043 23.2263Z" fill="#CEE2D4"/>
<path d="M41.9492 71.9754C42.2987 71.5642 42.6628 71.2852 43.1629 71.4392C43.2114 71.4536 43.2551 71.6917 43.209 71.771C42.8861 72.3121 42.3861 72.0043 41.9492 71.9754Z" fill="#58738C"/>
<path d="M21.7179 6.55078L20.798 7.86144C20.429 7.92637 20.3805 7.65703 20.3125 7.40451C20.7834 7.12555 21.1208 6.63014 21.7179 6.55078Z" fill="#60849C"/>
<path d="M50.5273 37.0231C50.8986 36.4964 50.77 35.9673 50.571 35.4142C49.7505 33.1344 48.9471 30.845 48.1437 28.5627C49.0102 27.5479 49.8428 26.6148 51.4448 26.7711C52.2347 26.8062 52.9904 27.1006 53.5929 27.608C56.4911 30.1307 59.4596 32.5765 62.1831 35.3036C62.6224 35.7413 63.1273 36.102 63.586 36.506C63.8287 36.7177 64.0181 36.975 63.9161 37.3165C63.7972 37.7037 63.4574 37.658 63.1467 37.6556C56.7605 37.6123 51.0953 42.8453 49.6365 48.6627C49.452 49.4034 49.5321 50.1489 49.4932 50.892C49.4665 51.3729 49.6146 51.9718 49.1364 52.2267C48.6097 52.5104 48.2699 51.9501 47.9228 51.6591C45.5271 49.7016 43.345 47.5059 40.9711 45.5195C40.3958 45.0385 39.8642 44.4613 39.221 44.1078C37.8132 43.3383 37.6724 42.0012 37.6967 40.741C37.721 39.5987 38.7793 38.9085 39.5657 38.151C39.6875 38.096 39.8167 38.0588 39.9492 38.0403C42.5876 38.2808 45.146 38.983 47.7626 39.363C48.651 39.4929 48.8791 39.1971 48.8088 38.4275C49.4059 37.9971 50.2554 37.8552 50.5273 37.0231Z" fill="#68B953"/>
<path d="M48.0927 28.0094C47.9624 27.9115 47.8552 27.7865 47.7789 27.6432C47.7026 27.4998 47.6589 27.3416 47.651 27.1797C48.3597 26.2178 49.2166 25.3881 50.0127 24.5055C50.6656 23.7841 51.2263 23.8273 51.9278 24.4117C55.0056 26.9272 58.0664 29.462 61.0301 32.1073C68.3265 38.6341 75.0088 45.7117 80.7542 53.6381C81.3003 54.3908 81.3901 54.9776 80.8173 55.7496C76.4482 61.6415 71.8096 67.293 66.2099 72.0907C65.1176 73.031 64.8798 73.0358 64.0254 71.8502C59.064 65.0083 53.3332 58.8374 47.2213 53.0056C43.6223 49.5534 39.8297 46.3049 35.8617 43.2755C35.6296 43.068 35.3866 42.873 35.1335 42.6911C34.2281 42.15 34.3592 41.532 34.9951 40.8779C35.8253 40.0217 36.6239 39.1368 37.3982 38.2325C37.5181 38.0727 37.6791 37.9478 37.8644 37.8708C38.0497 37.7938 38.2525 37.7676 38.4516 37.7948C38.9225 37.8598 39.2308 38.0497 38.937 38.5812C38.8324 38.8251 38.672 39.0416 38.4686 39.2137C37.1336 40.0867 37.8156 41.4069 37.687 42.5445C37.653 42.8403 37.9055 43.0254 38.1093 43.1769C41.8134 46.1181 45.2989 49.3069 48.736 52.5559C48.9536 52.779 49.2202 52.9494 49.5151 53.0537C48.9107 48.5999 50.486 44.9517 53.576 41.8615C56.6659 38.7712 60.2922 37.2201 64.8725 37.879C63.2341 35.9695 61.3578 34.4857 59.6102 32.8913C57.678 31.1333 55.7362 29.4091 53.7337 27.7545C51.9958 26.3116 50.6875 26.237 48.9034 27.7256C48.668 27.9108 48.4544 28.1609 48.0927 28.0094Z" fill="#68B854"/>
<path d="M48.0935 28.0095C49.0984 27.2111 49.9018 26.2154 51.4917 26.3261C52.1245 26.3268 52.7377 26.5443 53.2272 26.9417C55.5137 28.8872 57.8244 30.8063 60.0017 32.8673C61.8464 34.6132 63.9096 36.1476 65.764 38.3985C60.81 37.2826 56.9627 38.8626 53.7393 42.1212C50.5596 45.3366 48.9309 49.1074 50.0547 54.0254C49.2149 53.3376 48.5984 52.9119 48.0862 52.4021C44.8676 49.2517 41.4622 46.3081 37.9645 43.4704C37.479 43.0832 37.5033 42.6335 37.3504 42.1164C36.8164 40.3368 37.9499 39.3581 38.9888 38.1869C38.2946 37.9897 37.8212 37.9897 37.4741 38.5308C37.38 38.6799 37.2762 38.8229 37.1635 38.9588C36.3358 39.9617 34.5784 40.7745 34.8381 41.924C35.0663 42.9413 36.6756 43.6772 37.7193 44.4852C43.3943 48.8741 48.6081 53.7728 53.5257 58.9601C57.3705 63.0148 61.0503 67.2281 64.2421 71.8358C64.7737 72.6078 65.1864 72.7016 65.9971 72.0018C71.5094 67.2353 76.1164 61.6945 80.4515 55.8891C81.2282 54.8526 80.8666 54.237 80.2646 53.3977C75.2596 46.4236 69.3588 40.2334 63.1256 34.3439C59.4725 30.8929 55.5889 27.6968 51.6834 24.5272C51.0669 24.027 50.7635 24.1521 50.2659 24.6258C49.3824 25.4699 48.6784 26.4944 47.6493 27.1918L47.5837 26.6796C48.4624 25.7585 49.3605 24.8543 50.2149 23.9116C50.6348 23.4498 50.9091 23.3055 51.4892 23.7937C53.8752 25.8138 56.3826 27.6944 58.7298 29.7554C62.1765 32.7807 65.582 35.8566 68.786 39.1344C73.2637 43.7497 77.4145 48.6657 81.2088 53.8474C81.6481 54.4438 81.7307 54.9272 81.2307 55.6005C78.6359 59.0948 75.9805 62.5386 73.0337 65.7539C70.9432 68.0808 68.716 70.2835 66.3636 72.3505C64.963 73.5529 64.9946 73.5962 63.9606 72.1677C58.3948 64.4721 51.8242 57.6375 44.887 51.1636C41.5767 48.0638 38.0772 45.1685 34.4085 42.494C33.7191 41.9938 33.8745 41.698 34.3745 41.1882C35.3867 40.1589 36.3285 39.0598 37.2872 37.9945C36.9887 37.6578 36.6489 37.8213 36.3697 37.7372C36.4304 36.7993 37.1343 36.3953 37.8431 35.9912C38.6538 35.9912 39.4669 35.9744 40.166 36.4866C40.598 37.2947 39.7024 37.7083 39.5932 38.3552C39.1465 38.8987 38.7023 39.4446 38.2509 39.9857C37.962 40.3368 37.9863 42.6792 38.3358 42.9485C42.035 45.8079 45.3361 49.1194 49.1275 52.3275C48.8192 48.0156 50.4091 44.6488 53.2393 41.7605C56.0695 38.8723 59.4871 37.2706 63.6766 37.3283C63.6499 36.6069 62.9096 36.4866 62.5139 36.0898C59.7347 33.3098 56.72 30.7991 53.7587 28.2115C51.9116 26.6026 50.4479 26.6267 48.8095 28.4303C48.775 28.4846 48.7299 28.5316 48.6768 28.5683C48.6237 28.6051 48.5637 28.6309 48.5004 28.6444C48.4371 28.6578 48.3717 28.6586 48.308 28.6466C48.2444 28.6346 48.1838 28.6101 48.1299 28.5746L48.0935 28.0095Z" fill="#448D41"/>
<path d="M36.5395 6.63028L39.1148 10.1414C39.2629 10.6729 38.8308 10.9254 38.5662 11.2597C37.0516 13.1547 35.2579 14.4966 32.6413 14.2321L29.4154 12.123C29.385 12.0405 29.377 11.9514 29.3924 11.8649C29.4077 11.7784 29.4458 11.6973 29.5028 11.63C30.9252 10.1486 32.231 8.54696 33.9665 7.39022L35.003 6.61585C35.5151 6.31765 36.0297 6.24791 36.5395 6.63028Z" fill="#98CF8A"/>
<path d="M40.1196 36.7128C39.3429 36.3521 38.5006 36.316 37.6656 36.2319C37.0491 36.5565 36.452 36.2535 35.8355 36.2006C34.651 35.9601 33.4762 35.6763 32.2747 35.52C32.0708 35.5513 31.8717 35.6018 31.6654 35.621C30.7843 35.5753 29.9906 35.1978 29.1702 34.9332C28.8269 34.85 28.5245 34.6491 28.3166 34.366C28.1086 34.083 28.0086 33.7361 28.0342 33.3869C28.0249 33.1731 28.0363 32.9589 28.0682 32.7472C28.1823 32.3191 28.2988 31.8935 28.8886 31.9392C28.993 33.0166 29.7552 33.2739 30.6557 33.2643C32.4664 33.245 34.1679 33.7669 35.8913 34.207C37.0297 34.4979 38.2312 34.5797 39.3744 34.7312C41.7459 35.0463 44.0397 35.7365 46.4257 35.9769C47.5811 36.0924 48.7122 36.5493 49.9185 36.4579C50.2972 36.4291 50.4647 36.6792 50.5278 37.0159C50.5278 38.1293 50.1103 38.6993 48.9064 38.3049C48.1588 38.5934 47.433 38.3409 46.7097 38.199C44.7679 37.8239 42.8139 37.5618 40.8842 37.112C40.5949 37.0573 40.3287 36.9183 40.1196 36.7128Z" fill="#F0DF7C"/>
<path d="M32.6406 14.232C32.8834 13.4432 33.546 13.7992 33.978 13.8352C35.1286 13.929 36.0218 13.5947 36.7282 12.6905C37.4345 11.7863 38.4806 11.1394 39.1142 10.1414L44.7624 15.7832C45.0853 16.1054 44.7964 16.3291 44.6265 16.5672C44.3838 16.9952 44.1799 16.7091 43.9639 16.5527L43.2527 16.4253C43.1874 16.4846 43.1109 16.5305 43.0275 16.5602C42.9442 16.5899 42.8557 16.6029 42.7672 16.5984C39.7817 16.0525 36.699 16.0429 33.8276 14.8645C33.2984 14.8982 33.1358 14.2561 32.6406 14.232Z" fill="#3775A7"/>
<path d="M49.9788 22.7645C49.1778 23.6302 48.4884 24.6475 47.1801 24.8471C45.9665 24.6547 46.6146 23.4378 46.0927 22.7909C45.8063 22.4398 45.5708 21.6847 45.4932 21.0594C46.4374 20.7396 46.8889 19.7247 47.8476 19.4265C49.0418 20.237 49.27 21.651 49.9788 22.7645Z" fill="#99CE8B"/>
<path d="M42.7989 16.8003C42.3377 17.8464 41.3231 18.4212 40.6508 19.2869C40.2818 19.7679 40.0755 19.4072 39.8061 19.2124C38.4881 18.2504 37.1676 17.3101 35.8472 16.3578C35.5899 15.8071 35.9564 15.6917 36.3763 15.6123C38.4152 15.747 40.4032 16.2448 42.4251 16.4853C42.5125 16.4934 42.5953 16.5279 42.6622 16.5843C42.7291 16.6407 42.7768 16.7161 42.7989 16.8003Z" fill="#3A75A5"/>
<path d="M27.9492 11.2981L29.0803 8.20308C29.587 8.20718 30.0883 8.09895 30.5473 7.88632C31.0064 7.67369 31.4116 7.36204 31.7333 6.97419C32.3474 6.25272 33.1897 5.98098 34.066 6.65915L33.714 7.14012C32.2746 8.81151 30.9226 10.5743 28.925 11.6661C28.5973 11.5579 28.1143 11.8248 27.9492 11.2981Z" fill="#99CE8D"/>
<path d="M28.9349 31.2297L28.9179 31.3043C28.5489 32.0258 27.5683 31.4871 27.163 32.1316C26.9494 32.425 26.6241 32.5789 26.3474 32.7929C26.1928 32.8954 26.0192 32.9664 25.8368 33.0019C25.6543 33.0374 25.4665 33.0367 25.2843 32.9997C24.992 32.9104 24.7256 32.7529 24.5075 32.5404C24.3182 32.4009 24.1192 32.271 23.9395 32.1195C23.8742 32.062 23.8257 31.9881 23.7992 31.9056C23.7727 31.823 23.7692 31.7349 23.7891 31.6506C24.011 31.2662 24.0844 30.8149 23.9954 30.3808C24.0009 30.298 24.0307 30.2186 24.0812 30.1524C24.1316 30.0862 24.2005 30.036 24.2794 30.0081C24.4304 30.0429 24.5891 30.0227 24.7264 29.9512C24.8637 29.8797 24.9704 29.7616 25.027 29.6185C25.2333 29.378 25.2697 28.897 25.7818 29.0533C26.51 29.6954 27.2504 30.3111 28.1654 30.679C28.3254 30.7126 28.4764 30.7789 28.6089 30.8738C28.7414 30.9686 28.8525 31.0899 28.9349 31.2297Z" fill="#EFF3F4"/>
<path d="M43.9647 16.5528L44.6249 16.5696C45.4429 16.9327 45.4744 16.4205 45.4526 15.8481C45.9745 15.6966 46.2196 15.2637 46.4793 14.8477C46.4753 14.7345 46.4983 14.6219 46.5464 14.5192C46.5944 14.4164 46.6663 14.3263 46.756 14.2561H46.8288C47.2488 14.5976 47.273 15.1026 47.3871 15.5716C47.4478 16.0766 48.0619 15.9347 48.2537 16.293C48.3459 16.4301 48.426 16.5744 48.5279 16.7067C48.7901 17.0241 49.4989 16.8173 49.4624 17.4858C49.0547 17.8321 48.4527 17.7937 48.0692 18.1857C47.9029 18.3571 47.6942 18.4826 47.4639 18.5497C47.2336 18.6168 46.9896 18.6231 46.756 18.568C46.0788 18.342 45.6249 19.1524 44.955 18.9528C44.9299 18.8742 44.8904 18.8008 44.8385 18.7364C44.7196 18.14 45.4696 17.2935 44.3336 16.9904C44.1419 16.8942 43.802 16.9327 43.9647 16.5528Z" fill="#F0F5EF"/>
<path d="M24.8717 9.48951C24.6727 8.78604 24.5972 8.05394 24.6483 7.32513C25.5683 6.55076 26.3911 7.3564 27.2213 7.54879C27.6897 7.65701 27.2819 8.05621 27.1023 8.25101C26.5732 8.83298 26.0125 9.38611 25.4615 9.95125C25.0828 10.0234 25.1289 9.56647 24.8717 9.48951Z" fill="#A7D2A5"/>
<path d="M42.7993 16.8004L36.3718 15.8265C35.8621 15.6004 35.2334 16.0285 34.7747 15.5355C34.5684 15.1579 33.7868 15.5836 33.8256 14.8645L43.2532 16.4253C43.2629 16.7427 43.1318 16.8894 42.7993 16.8004Z" fill="#CBDFEC"/>
<path d="M47.8116 19.4434C47.0712 20.0278 46.7921 21.2615 45.4935 21.0595C45.4547 20.7565 45.4183 20.4535 45.3794 20.148C44.9134 19.025 45.5202 18.5777 46.5154 18.3708C47.1829 18.4478 47.7436 18.6522 47.8116 19.4434Z" fill="#3A77A4"/>
<path d="M28.9347 31.2296C28.6352 31.2315 28.3456 31.1236 28.1215 30.9266C27.2987 30.4697 27.3812 29.9983 28.09 29.5005C28.4928 29.1824 28.957 28.9492 29.4541 28.8151C30.0755 28.7646 30.3425 29.3394 30.8037 29.5703C30.5051 30.4817 29.6313 30.7583 28.9347 31.2296Z" fill="#202E54"/>
<path d="M28.9243 11.6756C30.5182 10.1654 32.1146 8.65671 33.7133 7.14966L33.9561 7.39015L29.4146 12.1229C29.0772 12.1614 28.9049 12.0195 28.9243 11.6756Z" fill="#DFECD6"/>
<path d="M27.0101 32.0016C26.8329 31.4846 27.2528 31.5591 27.5198 31.5206C27.9859 31.4533 28.4907 31.6072 28.9179 31.3042L28.8888 31.9463C28.532 32.1219 28.4616 32.4802 28.3354 32.8024C27.6703 32.901 27.3014 32.5138 27.0101 32.0016Z" fill="#4F7796"/>
<path d="M44.3281 16.9905C45.7845 17.231 45.7845 17.231 44.8354 18.7364C44.1048 18.3132 44.4568 17.5821 44.3281 16.9905Z" fill="#B0D18D"/>
<path d="M46.7558 18.4574C45.6902 18.5368 45.4038 19.2366 45.3771 20.1408C44.7436 19.9172 44.8916 19.4194 44.9426 18.9384C45.5227 18.6979 45.9135 17.9764 46.7072 18.2626C46.8173 18.277 46.8609 18.3083 46.8383 18.3564C46.8164 18.4286 46.7898 18.4574 46.7558 18.4574Z" fill="#6B8D8F"/>
<path d="M26.7158 10.5405C26.9496 10.0573 27.3474 9.67081 27.8397 9.44873C27.8275 9.98502 27.8129 10.5237 27.8008 11.06C27.3178 11.1369 27.1673 10.5309 26.7158 10.5405Z" fill="#9ACB9E"/>
<path d="M34.7744 15.5354C35.306 15.6412 35.8885 15.4657 36.3716 15.8264C36.0536 15.8673 35.8254 15.9923 35.8473 16.3579C35.2769 16.3579 35.1045 15.8528 34.7744 15.5354Z" fill="#738D98"/>
<path d="M25.2357 32.7904C25.5925 32.7664 25.9808 32.877 26.2697 32.55C27.2746 32.069 27.8086 32.7087 28.3304 33.3869C28.2358 34.0314 28.4421 34.433 29.1436 34.6037C30.0659 34.8274 30.964 35.1424 31.8718 35.4166C31.8933 35.4757 31.9009 35.5389 31.8942 35.6013C31.8875 35.6638 31.8665 35.724 31.833 35.7773C31.4179 36.2366 30.8427 36.4988 30.3766 36.8932C30.1849 37.0615 29.8693 37.1866 29.913 37.4751C29.9713 37.8551 30.3669 37.8238 30.6412 37.8984C31.6607 38.1677 32.7287 38.1798 33.7481 38.4347C34.1462 38.5333 34.7627 38.4178 34.7676 39.1249C34.2675 40.1782 33.1461 40.7289 32.6073 41.751C32.1971 42.4556 32.2723 43.1699 32.5733 43.8841L33.1995 44.442C33.1607 45.2477 33.1097 46.0389 33.8986 46.6064C34.1413 46.7724 34.037 47.0874 33.7602 47.2509C32.3767 47.6333 31.0004 48.059 29.5392 47.6934C29.2608 47.4808 29.0399 47.2032 28.896 46.8854C28.2261 45.7719 27.3959 44.9879 25.9323 45.202C25.6474 45.2614 25.3513 45.2383 25.0793 45.1356C24.8073 45.0328 24.5709 44.8547 24.3983 44.6224C23.7089 43.6051 22.7307 42.838 22.0292 41.8352C21.9255 41.6411 21.8658 41.4268 21.8545 41.2075C21.8432 40.9881 21.8805 40.769 21.9637 40.5654C22.6797 38.312 23.4589 36.0827 24.3497 33.8919C24.5415 33.4614 24.7599 33.0189 25.2357 32.7904Z" fill="#3774A7"/>
<path d="M66.1738 34.8753C65.0694 34.4545 64.3606 33.5262 63.5038 32.7927C61.7003 31.2464 59.9648 29.6255 58.2002 28.0359C58.4672 27.3288 59.1565 27.0162 59.6566 26.5208C61.6469 24.5151 63.698 22.572 65.3752 20.2681C66.4117 18.8541 67.2248 18.9527 68.0088 20.5086C69.8947 24.2913 71.2816 28.2986 72.1352 32.432C72.21 32.6863 72.2183 32.9552 72.1595 33.2136C71.674 33.6633 71.3609 33.2136 71.0502 32.9538C70.6497 32.6147 70.2492 32.2757 69.8705 31.9125C69.7783 31.8356 69.6909 31.7538 69.6011 31.672C68.7419 31.4051 67.902 31.3257 67.05 31.7394C66.9772 31.8404 66.9044 31.939 66.8389 32.0448C66.2685 32.9153 66.9505 34.0649 66.1738 34.8753Z" fill="#99CF8A"/>
<path d="M47.916 18.0126C48.2024 17.255 48.8869 17.5316 49.4306 17.445C50.3797 17.0843 51.3724 17.2743 52.2948 17.4162C54.7998 17.8058 57.3387 17.4162 59.8364 17.8659C61.5816 18.1761 63.3608 18.1304 65.1302 18.1857C66.2541 18.2194 66.5575 18.7821 65.9579 19.5974C63.9167 22.4141 61.5448 24.9804 58.8921 27.2425C58.7389 27.4017 58.5381 27.5079 58.3193 27.5455C57.7586 26.2396 57.0401 25.0853 55.5134 24.7198C55.0085 24.5971 54.4332 24.7198 54.0157 24.3037C52.9793 24.0632 52.387 23.1903 51.5885 22.6203C51.154 22.3101 50.7996 21.9181 50.2025 22.1946C49.8263 22.286 49.6442 22.0431 49.4743 21.7786C48.8456 20.8311 48.4379 19.7657 47.8238 18.8086C47.6781 18.5873 47.5373 18.2338 47.916 18.0126Z" fill="#99CF8A"/>
<path d="M69.9867 31.689L71.9576 33.2882C72.2489 33.3868 72.2367 33.584 72.1348 33.8125C72.3193 35.544 72.6785 37.2587 72.6397 39.0118C72.6397 39.4375 72.7974 39.9738 72.3387 40.2143C71.8799 40.4547 71.6785 39.9112 71.3678 39.7333C70.8823 39.4495 70.3969 39.1248 69.926 38.8146C68.6638 37.5184 67.171 36.441 66.1855 34.8875C66.3846 34.2887 66.2195 33.685 66.2147 33.079C66.2147 32.5523 66.154 32.0209 66.7268 31.7106C67.7732 31.3033 68.9349 31.2956 69.9867 31.689Z" fill="#3775A8"/>
<path d="M72.1356 33.8125L71.9608 33.2882C71.1654 29.0837 69.8105 25.0023 67.9316 21.1508C66.8951 19.037 66.7009 19.0273 65.3223 20.8671C63.4144 23.4114 61.1376 25.6095 58.7686 27.7185C58.5937 27.8426 58.4067 27.9489 58.2103 28.036L57.8875 27.8941C57.822 27.5815 57.8875 27.3626 58.2734 27.4011C61.0672 25.2199 63.3246 22.5288 65.5358 19.8017C65.7616 19.5227 66.1936 19.1909 66.0213 18.7917C65.849 18.3925 65.315 18.5367 64.9339 18.5127C60.2056 18.2313 55.4675 17.9644 50.7513 17.6782C50.3122 17.6251 49.8768 17.5448 49.4479 17.4377C49.1445 16.9327 48.4066 17.4377 48.125 16.8798C49.6008 16.1703 51.0717 16.8966 52.5451 16.9231C56.2539 16.9856 59.9507 17.3776 63.6547 17.5676C65.2616 17.6518 65.3271 17.392 64.6693 15.9202C64.1839 14.8188 63.0503 14.0348 63.06 12.6953L63.5649 12.7121C64.4751 13.7679 65.1353 14.9751 65.8101 16.1848C66.1427 16.7812 66.4145 17.7912 67.5286 17.1467L67.8442 17.4521C67.2034 18.0726 67.4607 18.5512 68.0238 19.0754C69.2666 20.2322 70.6792 21.2182 71.6477 22.6467C71.5919 22.6948 71.5385 22.7477 71.4851 22.8006C70.0287 22.7549 69.6695 21.2711 68.7034 20.8045C70.6453 24.5056 71.8273 28.6468 72.8298 32.8481C72.9123 33.1944 72.9463 33.5503 72.6065 33.8101L72.1356 33.8125Z" fill="#E6F0E0"/>
<path d="M34.779 39.1297C33.3227 38.4588 31.6818 38.6103 30.1672 38.1485C29.8177 38.0403 29.2861 38.1654 29.1963 37.6411C29.1065 37.1168 29.5992 37.0182 29.9245 36.809C30.541 36.4002 31.041 35.8014 31.825 35.6643C33.2814 36.0347 34.3397 37.0663 35.5121 37.9032C35.5587 37.9337 35.5977 37.9742 35.6262 38.0218C35.6546 38.0693 35.6719 38.1226 35.6765 38.1777C35.6812 38.2328 35.6732 38.2883 35.6531 38.3399C35.6331 38.3915 35.6014 38.4379 35.5606 38.4756C35.3276 38.7233 35.199 39.0985 34.779 39.1297Z" fill="#0E2A48"/>
<path d="M58.2679 27.4011L57.8819 27.8941C56.8061 26.7832 55.6314 25.7707 54.3721 24.8688C54.1294 24.7005 53.9473 24.6043 54.0201 24.294C55.0736 24.2267 56.0396 24.3421 56.979 24.9722C57.9183 25.6023 58.4475 26.2756 58.2679 27.4011Z" fill="#3977A4"/>
<path d="M62.4962 71.8262C62.2098 72.1533 61.9355 72.49 61.6394 72.8074C61.4282 73.0311 61.1248 73.1129 61.001 72.7858C59.9427 70.0106 58.1489 67.6201 56.8916 64.9531C57.928 65.7395 58.4863 66.9011 59.2436 67.9063C59.9236 68.6943 60.4614 69.5924 60.8335 70.5613C61.1442 71.3934 61.6369 71.7974 62.4986 71.8142L62.4962 71.8262Z" fill="#357338"/>
<path d="M62.4918 71.8238C61.5768 72.3216 61.0597 72.2037 60.7248 71.0686C60.3898 69.9335 59.7539 68.9548 59.2441 67.9062C60.6156 68.9764 61.4748 70.465 62.4918 71.8238Z" fill="#519D45"/>
<path d="M47.9163 18.0125C48.4124 19.5332 49.1875 20.9502 50.2028 22.1921C50.13 22.3845 50.0547 22.5745 49.9795 22.7645C48.7658 21.9757 48.6809 20.4582 47.8119 19.4458C47.4842 19.0971 47.2828 18.6161 46.756 18.4574C46.7442 18.3959 46.7272 18.3356 46.7051 18.277C46.9144 18.3205 47.1306 18.3195 47.3394 18.2739C47.5482 18.2283 47.7449 18.1391 47.9163 18.0125Z" fill="#DAE9D6"/>
<path d="M35.8035 35.9047C36.4397 35.8996 37.0712 36.013 37.6652 36.239L36.3763 37.7348C36.1943 37.8478 36.0147 37.9633 35.835 38.0787C35.7271 37.9646 35.64 37.8328 35.5777 37.6891C35.454 37.0711 35.3472 36.453 35.8035 35.9047Z" fill="#264B3B"/>
<path d="M35.804 37.7781C35.804 37.8791 35.8259 37.9777 35.8356 38.0787C35.7943 38.2447 35.8137 38.4515 35.5613 38.4755C34.5904 37.1769 32.9568 36.7513 31.8281 35.6643C31.8498 35.5855 31.8644 35.5051 31.8718 35.4238L32.1145 35.2434C33.4665 35.9023 34.821 36.5733 35.804 37.7781Z" fill="#294B68"/>
<path d="M32.5853 43.889C31.7624 43.1675 31.8352 42.4461 32.6193 41.7559C32.6362 42.0156 32.6532 42.2753 32.6727 42.535L32.5853 43.889Z" fill="#408376"/>
<path d="M47.0344 15.8361C46.9665 15.3095 46.8961 14.7804 46.8281 14.2513C47.4544 13.6044 48.0418 12.9214 48.7165 12.3274C49.3137 11.7935 50.0564 11.7358 50.8186 11.9811C50.7749 12.2072 50.7336 12.4356 50.6899 12.6617C50.2482 13.8353 49.3549 14.689 48.5394 15.5884C48.1389 16.0237 47.6267 16.2786 47.0344 15.8361Z" fill="#97CB8D"/>
<path d="M7.85589 16.9327C6.46507 19.3376 5.12521 21.7665 4.21498 24.4022C4.0475 24.8832 3.97226 25.4075 3.8339 25.9101C2.6324 23.777 1.24157 21.7256 1.1639 19.1428C1.12506 17.9404 1.71974 17.2357 2.7926 16.9015C4.44485 16.4052 6.21001 16.4161 7.85589 16.9327Z" fill="#DBB03D"/>
<path d="M21.4969 23.2454C22.8465 24.0342 24.264 24.7292 25.349 25.8907C25.6476 26.7589 25.5917 27.6391 25.4194 28.5192C24.9048 29.2912 24.4097 28.6924 23.963 28.4591C22.5601 27.7377 21.293 26.742 19.8124 26.1649C19.3269 25.9244 18.8779 25.6238 18.7031 25.0658C19.5697 24.3564 20.5527 23.837 21.4969 23.2454Z" fill="#1A2953"/>
<path d="M21.4973 23.2454C20.7861 24.2074 19.9268 24.9288 18.6525 24.9601C18.4316 25.1813 18.2763 24.9841 18.1064 24.8783C17.9016 24.6983 17.6806 24.5373 17.4462 24.3973C16.8345 23.7192 16.4413 22.8919 15.8709 22.1849C15.4388 21.4802 14.9728 20.7756 15.8903 20.083C17.9001 20.8886 19.7084 22.0478 21.4973 23.2454Z" fill="#438140"/>
<path d="M29.4537 28.8152C29.211 29.2961 28.6915 29.5366 28.257 29.7483C27.473 30.1258 27.8395 30.501 28.1211 30.9266C27.8784 30.6645 26.7546 31.7202 27.2594 30.3398C27.3735 30.0272 27.0167 30.1186 26.8274 30.0994C26.2206 30.032 25.7715 29.7723 25.6696 29.1158C25.4098 28.0721 25.1186 27.0283 25.8686 26.0496C27.0944 26.9201 28.4779 27.6151 29.4537 28.8152Z" fill="#273B60"/>
<path d="M10.7716 22.1681L10.2691 22.2715C9.15018 22.3677 8.73026 22.0815 9.38805 20.944C9.94389 19.982 10.3444 18.9335 10.8153 17.9235C11.5313 17.8177 12.0945 18.188 12.677 18.503C13.0241 19.5708 12.4173 20.4582 12.1236 21.4081C11.8542 21.9829 11.3177 22.0863 10.7716 22.1681Z" fill="#224527"/>
<path d="M11.9043 21.4684L12.6762 18.5032C13.0867 18.558 13.4665 18.7487 13.7539 19.0443C14.2393 19.5373 15.101 19.9221 14.3122 20.8143C13.533 21.1149 12.8582 21.7978 11.9043 21.4684Z" fill="#438141"/>
<path d="M14.245 20.5953C14.6066 19.9148 13.7231 19.6214 13.7595 19.0442C14.5524 19.1923 15.2903 19.5495 15.8955 20.0783C15.3227 20.9056 15.9319 21.5477 16.2353 22.2427C15.6334 22.5842 15.1406 21.9348 14.5629 22.0647C14.1454 22.031 14.0071 21.6727 13.7862 21.4082C13.7164 21.3147 13.6638 21.2096 13.6309 21.098C13.6309 20.6843 14.0896 20.8238 14.245 20.5953Z" fill="#70ADB0"/>
<path d="M25.881 26.0471C25.5193 27.05 25.8155 28.0937 25.682 29.1133C25.245 29.2023 25.5218 29.7073 25.2281 29.8805C25.1447 29.8137 25.0766 29.7302 25.0282 29.6354C24.9798 29.5407 24.9522 29.4369 24.9471 29.3308C24.9421 29.2248 24.9598 29.1188 24.999 29.02C25.0382 28.9212 25.0981 28.8317 25.1747 28.7574C25.3033 27.8075 25.0217 26.8335 25.3615 25.8956C25.4518 25.8535 25.5546 25.8457 25.6503 25.8736C25.746 25.9015 25.8281 25.9633 25.881 26.0471Z" fill="#6595AA"/>
<path d="M45.6683 56.2956C44.7241 57.1397 44.8916 58.371 44.6198 59.422C43.7921 62.6565 43.9353 62.7695 40.8939 61.002C36.6219 58.5177 32.3062 56.1104 28.0123 53.6599C27.6444 53.4237 27.2888 53.1693 26.9468 52.8975C26.5414 51.962 26.7162 51.1636 27.7842 50.9736C28.9153 50.7692 29.2648 50.2089 29.1167 49.1628C29.0865 48.8526 29.1636 48.5414 29.3352 48.2802C29.8911 47.4914 30.8158 47.8401 31.5513 47.6477C32.3632 47.4456 33.1918 47.3168 34.0271 47.2629C34.2331 47.2232 34.4449 47.2232 34.6509 47.2629C36.4981 48.2249 37.9593 49.7111 39.5953 50.9616C41.6876 52.5633 43.5348 54.4631 45.729 55.9445C45.7533 56.0027 45.7606 56.0666 45.7498 56.1287C45.7391 56.1909 45.7108 56.2487 45.6683 56.2956Z" fill="#3774A7"/>
<path d="M24.8325 59.696C24.4247 59.0547 24.0161 58.4134 23.6067 57.7721C23.5681 57.7253 23.5451 57.6678 23.5408 57.6076C23.5364 57.5473 23.551 57.4872 23.5824 57.4354C24.7329 56.1993 25.9369 55.0113 27.1602 53.8281L43.3162 62.8873C41.1196 63.805 38.9755 64.8414 36.8936 65.992C33.6216 65.3619 30.7599 63.7915 27.9248 62.1442C26.7662 61.5007 25.7216 60.6737 24.8325 59.696Z" fill="#3774A7"/>
<path d="M24.832 59.696C28.4123 62.2644 32.2328 64.3711 36.466 65.6938C36.6217 65.77 36.7656 65.868 36.8932 65.9848C35.7548 66.8096 34.4829 67.495 33.694 68.7095C33.279 69.3468 32.9804 68.9187 32.6551 68.6806C29.4073 66.2975 26.7351 63.2286 24.832 59.696Z" fill="#23527E"/>
<path d="M50.4962 67.298C49.1702 65.7586 47.574 64.4697 45.7848 63.4935C45.5421 63.3564 45.1222 63.3059 45.1999 62.8947C45.2557 62.5964 45.6174 62.6133 45.8358 62.481C47.0616 61.7596 48.6539 61.7066 49.6369 60.5138C49.688 60.4636 49.7548 60.4322 49.8263 60.4248C49.8978 60.4174 49.9697 60.4344 50.0302 60.4729C50.9487 61.9117 51.7358 63.4288 52.3822 65.0061C52.6443 65.6747 53.2584 66.3937 52.6249 67.0671C52.0642 67.6755 51.2341 67.4495 50.4962 67.298Z" fill="#3775A7"/>
<path d="M23.3134 58.1114C25.101 61.4999 27.3467 64.631 29.9884 67.4182C26.5732 65.5376 23.0294 63.8758 20.8691 60.4441C21.2648 59.3835 22.1386 58.7366 22.9663 58.0392L23.1508 58.0176L23.3134 58.1114Z" fill="#24527E"/>
<path d="M27.1604 53.8499C26.3278 55.4059 24.903 56.4087 23.636 57.5606C23.551 57.5318 23.4466 57.5125 23.3932 57.4452C22.0461 55.4107 20.9635 53.2463 20.6553 50.7693C20.691 50.6372 20.7547 50.5143 20.8422 50.4085C21.347 50.1127 21.7864 50.3845 22.2063 50.6033C23.7209 51.3945 25.2161 52.2218 26.5171 53.3449L27.1604 53.8499Z" fill="#98CE8B"/>
<path d="M29.5219 48.4075C29.4958 48.7111 29.5015 49.0165 29.5389 49.319C29.8374 50.6729 29.2549 51.2429 27.9102 51.2429C26.6577 51.2429 27.2694 52.3467 26.9514 52.9022L26.2572 52.7748C24.5314 51.9547 22.7449 51.2356 21.3711 49.836C21.4609 49.444 21.774 49.2877 22.0993 49.1434C24.4537 48.7322 26.7839 48.1526 29.1942 48.1213C29.2652 48.1451 29.3308 48.1827 29.3871 48.2318C29.4433 48.281 29.4891 48.3407 29.5219 48.4075Z" fill="#97CC8B"/>
<path d="M43.8426 69.5465L43.8305 69.5825C44.3305 68.8154 43.9543 67.8606 44.3718 67.0743C46.168 66.9059 47.9642 66.7111 49.7288 67.2859C49.9715 67.5913 50.2361 67.8799 50.457 68.2021C50.6997 68.5845 50.6099 68.8058 50.1244 68.9236C48.2579 69.4046 46.3986 69.912 44.5417 70.4315C43.5053 70.7224 43.9033 69.9673 43.8426 69.5465Z" fill="#26537F"/>
<path d="M50.4961 67.2978C50.5277 67.2689 50.5592 67.2232 50.5957 67.216C52.6758 66.7807 52.6006 66.8048 51.8991 64.7221C51.3967 63.2311 50.1636 62.1008 49.916 60.5088C50.0884 60.1529 50.3141 59.9485 50.717 60.2178C52.3045 61.9373 53.8118 63.7121 54.5327 65.9895C54.4186 66.9515 53.6103 67.2064 52.8821 67.5383C52.7219 67.61 52.5691 67.697 52.4258 67.798C51.535 68.5435 50.8821 68.4713 50.4961 67.2978Z" fill="#23537F"/>
<path d="M49.1828 60.4609C47.9837 60.9964 46.7838 61.5327 45.5831 62.0698C44.8039 62.4161 44.4568 62.1347 44.6413 61.3483C44.9739 59.9054 45.3695 58.4889 45.7433 57.058C45.8459 56.9698 45.979 56.9243 46.1147 56.9311C46.2504 56.9378 46.3782 56.9962 46.4715 57.0941C47.4528 57.8821 48.3492 58.7686 49.1463 59.7395C49.2396 59.8349 49.2947 59.9607 49.3014 60.0934C49.3081 60.2261 49.2659 60.3567 49.1828 60.4609Z" fill="#3875A7"/>
<path d="M43.6151 68.1564C43.6151 67.4565 43.4161 67.0693 42.5738 67.0261C41.5277 66.9413 40.4903 66.7724 39.4718 66.521C39.0276 66.4273 38.5009 66.42 38.2314 65.915C39.5664 64.9651 41.1126 64.4408 42.6005 63.7819C43.2098 63.5101 43.8142 63.5631 43.8142 64.3975C43.7996 65.6457 43.9987 66.9154 43.6151 68.1564Z" fill="#3875A7"/>
<path d="M49.7243 67.286C47.9378 67.286 46.1344 67.6034 44.3673 67.0743C44.3552 66.1941 44.3527 65.3164 44.3309 64.429C44.3091 63.5416 44.7265 63.4309 45.4062 63.8374C46.9985 64.7897 48.6005 65.7516 49.7243 67.286Z" fill="#3775A6"/>
<path d="M49.1833 60.4609C48.2901 59.0709 47.2075 57.8733 45.7439 57.0484C45.7196 56.8079 45.6929 56.5674 45.6662 56.3077C45.6662 56.2091 45.6808 56.1081 45.6905 56.0071C45.3871 55.5887 45.5934 55.3001 45.9332 55.0452C47.2561 55.6752 48.159 56.8224 48.9746 57.9166C49.545 58.6837 50.4625 59.2248 50.7076 60.2301L49.9115 60.509H49.6299L49.1833 60.4609Z" fill="#25547D"/>
<path d="M23.0051 58.1257L20.8691 60.4368C20.5002 60.3238 20.4347 59.9991 20.3497 59.6913C19.437 58.3951 19.3788 56.9522 19.6215 55.4611C19.7866 55.0884 20.0924 55.0307 20.3643 55.2663C21.3425 56.1321 22.4541 56.8704 23.0051 58.1257Z" fill="#509669"/>
<path d="M19.8491 55.199C19.7156 56.7285 20.0457 58.2098 20.3491 59.6912C20.0651 59.6768 19.7593 59.7273 19.5627 59.4508L19.604 59.3882C18.837 57.7048 18.9195 55.9012 18.9292 54.1144C19.0675 52.9119 18.6039 51.6638 19.3273 50.5335C19.9681 50.1583 20.3297 50.4325 20.5409 51.0457C20.55 51.1936 20.5319 51.3419 20.4875 51.4834C20.1574 52.1664 20.2229 52.8999 20.1987 53.6238C20.1841 54.1649 20.2982 54.7444 19.8491 55.199Z" fill="#DDEAE2"/>
<path d="M20.8905 50.7067C21.3372 53.1765 22.5678 55.336 23.6358 57.5606C23.6358 57.6352 23.626 57.7096 23.6067 57.7818L23.313 58.1113L23.211 58.056C21.6167 56.1082 20.6298 53.7424 20.3711 51.2478L20.4148 51.1684C20.5896 51.0313 20.4585 50.5864 20.8905 50.7067Z" fill="#DEECDA"/>
<path d="M21.4389 49.9226C23.0361 50.8846 24.7983 51.5723 26.2522 52.7748L26.5144 53.3447C25.1357 52.8758 24.0458 51.9018 22.7594 51.2549C22.1817 50.9687 21.672 50.4926 20.9608 50.5334C20.7423 50.0284 21.1064 49.9899 21.4389 49.9226Z" fill="#E0EDD9"/>
<path d="M54.9596 66.3384L55.4863 67.3003C54.8285 67.94 54.0105 68.1492 53.1197 68.1541L52.9668 67.9136C53.4547 67.1753 54.0712 66.5885 54.9596 66.3384Z" fill="#1F4665"/>
<path d="M53.1201 68.1565L55.4891 67.3027C55.5086 67.4759 55.5304 67.6466 55.5522 67.8198L53.125 68.6158C53.1201 68.4691 53.1201 68.3176 53.1201 68.1565Z" fill="#6C9CB0"/>
<path d="M54.9596 66.3382L52.9668 67.9207C52.9377 67.7932 52.911 67.6802 52.8818 67.5431L54.5227 65.9919C54.7484 66.0232 54.9839 66.0208 54.9596 66.3382Z" fill="#669AB4"/>
<path d="M45.9423 55.033C45.8574 55.3529 45.7748 55.6751 45.6996 55.995C44.6073 56.0695 44.083 55.1413 43.4349 54.5809C40.6217 52.1448 37.7138 49.8265 34.7744 47.5443C35.0924 46.6088 35.8206 47.008 36.4371 47.0417C37.357 47.3591 38.0245 48.0613 38.7454 48.6457C41.0513 50.5191 43.282 52.4935 45.5612 54.3934C45.7674 54.5494 45.9041 54.7788 45.9423 55.033Z" fill="#24537E"/>
<path d="M33.9833 46.9718C33.862 46.8468 33.7625 46.6664 33.6144 46.6063C32.3134 46.0916 32.6823 45.286 33.2115 44.4419C34.3402 44.9229 35.0513 45.9522 36.0587 46.6063C35.7553 47.3277 34.9591 46.8468 34.5076 47.2147C34.4062 47.2258 34.3036 47.2091 34.2111 47.1662C34.1186 47.1234 34.0398 47.0561 33.9833 46.9718Z" fill="#24537F"/>
<path d="M55.819 65.2417C56.6705 66.412 57.3717 67.6827 57.9065 69.0246C58.1856 69.7292 58.6347 70.3689 58.9939 71.0374C58.5085 71.1481 58.1444 71.4126 57.8677 70.5565C57.3409 68.9524 56.5327 67.4301 55.8166 65.8958C55.705 65.6553 55.4938 65.4629 55.819 65.2417Z" fill="#2F6532"/>
<path d="M34.4683 47.0344C34.9295 46.6472 35.5557 46.842 36.0582 46.5967C36.398 46.5678 36.3373 46.8636 36.4271 47.0392C35.9708 47.5202 35.2135 47.0608 34.7669 47.5442L34.2232 47.525C34.0897 47.2556 34.3251 47.1666 34.4683 47.0344Z" fill="#56879D"/>
<path d="M45.343 15.586C43.3842 13.6621 41.2312 11.9306 39.7384 9.58829C40.168 8.71291 39.8937 8.1141 39.0102 7.77021C38.3888 7.52972 37.9519 7.02469 37.4058 6.67839C36.4082 5.95693 36.5174 5.28598 37.4786 4.62464C39.1777 3.45106 40.8768 2.26787 42.6997 1.01733C44.0055 5.67797 45.4668 10.1366 46.2823 14.766C46.2022 15.2974 45.9207 15.6053 45.343 15.586Z" fill="#3775A7"/>
<path d="M34.0657 6.65909C32.971 6.41861 32.1239 6.6591 31.5074 7.70521C30.9394 8.6383 30 8.55894 29.0801 8.20062C30.0631 5.625 31.7112 3.58326 34.1919 1.92871C34.1569 2.92118 34.4492 3.89795 35.0245 4.71115C35.7454 5.81017 34.5026 6.06269 34.0657 6.65909Z" fill="#3875A7"/>
<path d="M37.3984 6.67822C38.549 6.88264 39.4519 7.57283 40.2796 8.2943C41.1073 9.01576 39.9932 9.17688 39.7383 9.58812C38.7777 8.77534 37.9834 7.78752 37.3984 6.67822Z" fill="#96CA90"/>
<path d="M45.3428 15.586L46.27 14.7683C46.3323 14.8088 46.4013 14.8381 46.4739 14.8549C46.4739 15.5403 46.7166 16.4493 45.4471 15.8553L45.3428 15.586Z" fill="#9AC99B"/>
<path d="M36.5394 6.63011H35.0029C35.5175 5.91827 36.0297 5.78119 36.5394 6.63011Z" fill="#528188"/>
<path d="M55.5279 4.54519C54.9589 4.2955 54.4888 3.86698 54.1904 3.32593L55.8774 4.2013L55.5279 4.54519Z" fill="#6A88A3"/>
<path d="M7.09668 41.7029C7.30835 41.2002 7.66564 40.7709 8.12342 40.4692C8.95355 40.183 9.54338 40.9189 10.308 40.9694C10.4195 41.0122 10.5187 41.0816 10.5968 41.1714C12.1673 47.5948 14.3955 53.7297 18.8229 59.2945C17.1033 58.291 15.4786 57.136 13.9683 55.8435C14.0241 55.0138 14.0508 54.1842 14.1455 53.3617C14.2062 52.823 13.8712 52.5921 13.5265 52.3108C12.7814 51.7096 12.0993 51.0218 11.3129 50.4831C10.0385 49.6077 9.76669 48.3596 9.76183 46.9672C9.73517 46.6623 9.73517 46.3557 9.76183 46.0509C10.1356 43.8408 9.22297 42.4244 7.09668 41.7029Z" fill="#509768"/>
<path d="M10.5718 32.2253C10.4671 28.946 10.8175 25.668 11.6131 22.4831C12.3923 22.0935 13.0015 22.3893 13.5549 22.9521C13.9603 24.2892 12.953 25.28 12.5986 26.4127C12.0621 28.125 11.5039 29.8228 11.1034 31.5735C11.0257 31.8645 10.9941 32.2012 10.5718 32.2253Z" fill="#97CD8C"/>
<path d="M10.572 32.2254C11.1788 29.0413 12.441 26.0617 13.458 23.0051L13.6036 22.8824C13.6942 22.8522 13.7923 22.852 13.8829 22.882C13.9736 22.9119 14.052 22.9703 14.1061 23.0484C14.1604 23.1616 14.1926 23.284 14.2008 23.4091C14.0648 24.5081 13.3342 25.4436 13.3075 26.5739C12.4531 28.1635 11.9968 29.8758 11.6982 31.6386C11.7177 32.247 12.072 32.9444 11.2565 33.3412C11.1393 33.387 11.0126 33.4035 10.8875 33.3893C10.5938 33.2979 10.7273 32.9468 10.5234 32.8001L10.4385 32.7833C10.4846 32.5981 10.5283 32.4105 10.572 32.2254Z" fill="#D7E7DC"/>
<path d="M13.4584 23.0051L11.6137 22.4832L11.3467 22.4472C11.7836 21.377 12.9147 21.5718 13.7181 21.1702C13.7836 21.175 13.8493 21.175 13.9147 21.1702C14.3492 21.9109 14.2084 22.5145 13.4705 22.9714L13.4584 23.0051Z" fill="#448547"/>
<path d="M13.7181 21.17C13.0919 21.8914 12.019 21.7952 11.3443 22.447C11.2857 22.5438 11.1981 22.6201 11.0937 22.6654C10.9893 22.7106 10.8733 22.7225 10.7617 22.6995C10.8224 22.5239 11.1112 22.3508 10.7617 22.168L11.8953 21.4682L14.2352 20.5952L13.7181 21.17Z" fill="#629F8F"/>
<path d="M10.5233 32.8049C10.766 32.9059 10.766 33.1416 10.8049 33.3436C11.2199 33.8246 11.0476 34.3465 10.9262 34.8659C10.8097 35.5393 10.7927 36.1934 11.2636 36.7658C11.3738 36.917 11.4379 37.0965 11.4481 37.2828C11.3947 37.8215 11.3874 38.365 11.2976 38.8989C11.1641 39.2837 11.2612 39.6853 11.2126 40.0773C11.1882 40.1904 11.141 40.2974 11.0738 40.392C11.0067 40.4866 10.921 40.5669 10.8219 40.628C10.7442 40.8131 10.6641 40.9983 10.5791 41.1835H10.4869C9.87521 40.6111 10.1301 39.5193 9.22471 39.1273L8.78537 39.0576C8.95531 38.6826 9.0321 38.2727 9.00929 37.8622C8.98649 37.4518 8.86476 37.0527 8.6543 36.6984L8.93343 36.4579C9.70773 37.011 9.90435 36.4916 10.0233 35.8711C10.2078 34.837 10.3582 33.8174 10.5233 32.8049Z" fill="#E8EEF2"/>
<path d="M51.7754 11.6419C53.6225 8.18374 53.8167 7.28192 53.4211 3.64575C57.062 6.31997 60.2976 9.12886 62.8729 12.6424C62.1933 14.3378 61.1253 15.4537 59.0888 15.1867C58.6493 15.1362 58.2054 15.1362 57.7659 15.1867C55.9115 15.3695 54.3192 15.0304 53.489 13.1378C53.1492 12.3634 52.0157 12.5005 51.7754 11.6419Z" fill="#3775A7"/>
<path d="M51.7755 11.6421C52.9673 11.8826 53.7756 12.5872 54.3096 13.6526C54.7707 14.5688 55.5232 14.9704 56.5621 14.7877C56.8269 14.7504 57.0958 14.7504 57.3606 14.7877C59.584 15.0281 61.6278 14.8526 62.873 12.6425C62.9257 12.6726 62.9819 12.696 63.0405 12.7123C63.8827 14.0397 64.8197 15.3071 65.4677 16.7548C65.8877 17.6807 65.725 18.0559 64.657 17.9837C59.7127 17.6567 54.7659 17.3464 49.8215 17.0218C49.2487 16.9857 48.6734 16.9352 48.1006 16.8919V16.3965C48.9148 15.0429 49.9038 13.8003 51.0424 12.7002L51.7755 11.6421Z" fill="#98CE8B"/>
<path d="M51.0426 12.6954C50.2598 14.0702 49.2675 15.317 48.1007 16.3917C47.7731 16.1512 47.1298 16.4975 47.0352 15.8362C47.7342 16.1176 48.0837 15.6101 48.4915 15.2085C49.2852 14.4053 49.7561 13.3279 50.7028 12.6545L51.0426 12.6954Z" fill="#E3EEDD"/>
<path d="M72.5815 33.8125C71.8467 29.5528 70.5321 25.4115 68.6735 21.502L67.7852 19.6382C69.2706 20.6506 70.1445 21.9877 71.4673 22.803C72.5111 24.0848 73.5694 25.357 74.5985 26.6508C75.8122 28.1659 76.1059 29.8012 75.4966 31.689C75.0864 32.9588 74.9893 34.3343 74.7514 35.6498L74.6568 35.9167C73.6082 35.8855 73.2295 35.0005 72.6518 34.368L72.5815 33.8125Z" fill="#99CF8B"/>
<path d="M10.8321 40.6229C10.8175 40.3825 10.8078 40.154 11.0869 40.0458C12.2205 39.9808 12.3661 40.8899 12.6865 41.6306C13.7788 45.5313 15.6842 49.0328 18.0702 52.2938C18.512 52.8974 19.0217 53.4577 19.2839 54.1792L19.6188 59.3833C15.2788 54.4173 13.0482 48.4556 11.3418 42.2414C11.1767 41.7027 10.9923 41.1616 10.8321 40.6229Z" fill="#509768"/>
<path d="M72.6523 34.3679C73.5456 34.6084 73.9315 35.4766 74.6573 35.9191C74.3223 37.1431 74.1111 38.4177 73.2009 39.8149C73.1557 37.9882 72.9723 36.1675 72.6523 34.3679Z" fill="#3D76A4"/>
<path d="M8.65967 36.6863C9.72039 37.4077 9.72767 38.2061 8.79074 39.0454L8.17664 39.4494C8.17664 38.449 8.17017 37.447 8.15723 36.4434L8.65967 36.6863Z" fill="#2E577C"/>
<path d="M9.22988 39.1152C9.73476 38.6799 10.0236 38.995 10.1547 39.4447C10.3197 40.005 10.3828 40.5942 10.4921 41.1714C9.53572 41.496 8.93618 40.6303 8.12305 40.4764L9.22988 39.1152Z" fill="#2B577D"/>
<path d="M40.8961 36.7825L48.9062 38.312C49.1149 38.7761 49.5203 39.3292 49.1877 39.7381C48.8552 40.1469 48.2969 39.7621 47.8285 39.6779C45.1584 39.197 42.4884 38.7448 39.8184 38.2831C39.7747 37.4967 40.4447 37.2226 40.8961 36.7825Z" fill="#498C41"/>
<path d="M40.8958 36.7824C40.8351 37.4894 40.0826 37.7131 39.8278 38.283L39.5996 38.3528C38.9418 37.5471 40.306 37.3716 40.1191 36.7126L40.8958 36.7824Z" fill="#376B34"/>
<path d="M68.9481 41.4624C71.1326 43.3863 72.8002 45.5507 74.5867 47.5972C75.9168 49.1171 77.111 50.7548 78.3611 52.342C79.6864 54.0254 79.6742 55.3096 78.3781 57.0676C75.1276 61.5062 71.4765 65.6428 67.4699 69.4262C66.9626 69.9072 66.4674 69.8783 65.7489 69.9289C63.2901 70.1044 62.7682 68.142 61.6226 66.8891C59.0157 64.0249 56.4792 61.0982 53.9184 58.1931C53.7533 58.0055 53.4815 57.866 53.5762 57.3899C58.3385 58.5682 62.1663 56.7502 65.4213 53.4747C68.6762 50.1993 70.237 46.301 68.9481 41.4624Z" fill="#428A41"/>
<path d="M62.3197 39.0576C65.997 38.692 69.4874 42.1695 68.0213 47.2918C66.5795 52.3228 61.424 56.9739 55.885 56.5578C54.5578 56.4661 53.3077 55.9063 52.3614 54.9797C51.4151 54.0532 50.8352 52.8214 50.727 51.5076C50.261 46.0341 55.1713 40.4668 60.5939 39.1802C61.1473 39.0335 61.7444 39.0864 62.3197 39.0576Z" fill="#458F42"/>
<path d="M35.8037 37.7781C34.539 36.9773 33.2138 36.2654 32.1045 35.241C33.3604 35.311 34.6028 35.5339 35.8037 35.9047V37.7781Z" fill="#152D46"/>
<path d="M28.3303 33.3917C27.6021 33.1873 27.1968 32.2542 26.2695 32.5548C26.3375 32.1364 26.8472 32.2975 26.9977 32.0017L28.323 32.8025C28.3327 32.9997 28.3303 33.1945 28.3303 33.3917Z" fill="#BED5E5"/>
<path d="M10.6328 34.8442C10.6894 34.3407 10.7469 33.8389 10.8052 33.3387C10.8634 33.3171 10.9241 33.3002 10.9848 33.2834C12.0965 33.0285 11.7494 32.3647 11.4314 31.7106C11.6231 29.8613 11.9872 28.0648 13.1305 26.5233C13.4752 25.2223 14.6961 24.6403 15.4825 23.7C16.4534 23.0483 16.8903 24.2531 17.6671 24.2988C17.9729 24.2796 18.2181 24.3421 18.2302 24.7148C19.7525 26.4233 21.4259 27.9935 23.2304 29.4067C23.575 29.6833 23.9586 29.9118 24.1285 30.3494C24.5727 30.9146 24.6139 31.4076 23.8663 31.7539C23.6673 32.1411 23.2862 32.2661 22.9124 32.4008C19.2715 33.7066 15.6136 34.9836 12.1232 36.6743C11.8905 36.8045 11.6201 36.8529 11.3561 36.8113C10.4969 36.3761 10.9799 35.4622 10.6328 34.8442Z" fill="#3775A7"/>
<path d="M11.1401 39.0407C10.8973 38.401 10.7687 37.7686 11.3003 37.1938C12.8295 35.9529 14.6985 35.3998 16.4922 34.7072C19.0214 33.7284 21.5118 32.6173 24.1794 32.0161L24.5896 32.2566C24.7224 32.4026 24.8059 32.5861 24.8285 32.7813C24.8511 32.9766 24.8117 33.174 24.7158 33.346C23.6357 35.7894 22.7983 38.3217 21.9536 40.8516C21.9208 40.978 21.8604 41.0957 21.7764 41.1963C21.6925 41.2969 21.5873 41.3779 21.4681 41.4336C19.2472 41.7823 18.786 41.5779 17.6694 39.7502C17.4825 39.4424 17.2932 39.0576 16.9267 39.0504C15.281 39.0143 13.5649 38.4491 12.0552 39.6035C11.4896 39.8271 11.225 39.5746 11.1401 39.0407Z" fill="#3775A8"/>
<path d="M24.1816 32.0161C20.8562 33.31 17.5235 34.5942 14.203 35.9072C13.22 36.2968 12.2612 36.7634 11.3024 37.1938L10.999 36.9533C10.9869 36.7345 11.0888 36.6263 11.3146 36.6455C15.3954 34.7707 19.5859 33.1397 23.8636 31.7612L24.1816 32.0161Z" fill="#D1E4EF"/>
<path d="M25.1529 28.7575C25.1699 29.1326 25.1893 29.5078 25.2063 29.8805C25.0218 30.2677 24.7209 30.2148 24.3932 30.1018C22.5145 29.0893 20.8445 27.8532 19.8008 25.939C21.3931 26.2997 22.5752 27.4324 23.9927 28.1274C24.398 28.3198 24.7767 28.5482 25.1529 28.7575Z" fill="#3972A4"/>
<path d="M21.5242 41.2603C22.4951 38.6318 23.4514 36.0032 24.4369 33.3795C24.5752 33.0044 24.7524 32.6581 24.5971 32.2468L25.2428 32.7903C24.1217 35.361 23.1334 37.9865 22.2815 40.6567C22.1795 40.9717 21.9611 41.3012 22.1747 41.6619C22.2232 42.0563 22.1116 42.3401 21.6601 42.3834C21.5899 42.3763 21.5223 42.3534 21.4625 42.3163C21.4027 42.2791 21.3524 42.2289 21.3154 42.1693C21.1746 41.823 21.1382 41.4936 21.5242 41.2603Z" fill="#D4E4EE"/>
<path d="M19.8129 25.939C21.0799 27.6224 22.83 28.7599 24.4053 30.1018L24.1261 30.3423C21.9416 29.0509 20.2231 27.2159 18.4827 25.4219C18.3897 25.3278 18.3194 25.2139 18.2774 25.0889C18.2353 24.9639 18.2225 24.8311 18.24 24.7004L18.6648 24.9409L19.8129 25.939Z" fill="#C9DDEA"/>
<path d="M21.7397 42.2751L22.1669 41.6619C22.5601 42.0539 23.0237 42.4002 23.332 42.8499C24.3175 44.2928 25.4364 45.1129 27.405 45.0143C28.5628 44.9517 29.0701 46.4163 29.4949 47.4937C29.4609 47.5586 29.4245 47.6211 29.3905 47.6885C27.7739 48.624 25.8903 48.3835 24.1524 48.8115C23.2786 49.028 22.3392 49.1025 21.4387 49.3118C20.9897 49.3358 20.73 49.0905 20.5625 48.7105C20.1902 46.4951 20.6063 44.2202 21.7397 42.2751Z" fill="#98CE8B"/>
<path d="M34.4684 47.0345L34.2257 47.5155C32.6455 47.756 31.029 47.7969 29.5168 48.3981C29.4803 48.3551 29.453 48.3052 29.4367 48.2514C29.3891 48.2136 29.3507 48.1656 29.3243 48.1111C29.2979 48.0565 29.2842 47.9968 29.2842 47.9364C29.2842 47.8759 29.2979 47.8162 29.3243 47.7617C29.3507 47.7072 29.3891 47.6592 29.4367 47.6213C29.4491 47.57 29.4704 47.5211 29.4998 47.477C31.0387 47.6718 32.4926 47.1452 33.9878 46.9624L34.4684 47.0345Z" fill="#CCDFE7"/>
<path d="M66.7705 31.4293C67.2704 31.2228 67.8066 31.1165 68.3482 31.1165C68.8898 31.1165 69.4261 31.2228 69.926 31.4293C68.8852 31.6427 67.8113 31.6427 66.7705 31.4293Z" fill="#90D0B8"/>
<path d="M66.7711 31.4292H69.9266C69.9436 31.5134 69.963 31.5975 69.9824 31.6817H66.7129C66.7347 31.6023 66.7517 31.5182 66.7711 31.4292Z" fill="#4D8C75"/>
<path d="M17.6627 24.2989C17.7088 24.7558 17.5874 24.9314 17.1918 24.5514C16.7524 24.1257 16.3252 23.688 15.6262 23.7963C14.9417 23.9814 14.4465 23.676 14.0217 23.1878C14.0023 23.1205 13.9853 23.0532 13.9708 22.9858C13.8227 22.476 14.2523 22.2379 14.4902 21.9108C15.2475 21.0908 15.6189 22.2908 16.2306 22.2379C16.8859 22.8055 17.1432 23.6351 17.6627 24.2989Z" fill="#448242"/>
<path d="M14.4902 21.9108C14.5581 22.3918 14.2134 22.6612 13.9707 22.9858H13.4707C13.7426 22.4159 14.1455 21.8772 13.9149 21.1846C14.3567 21.2303 14.1576 21.7738 14.4902 21.9108Z" fill="#629F8F"/>
<path d="M20.3707 51.2478C21.1579 53.5793 22.1068 55.8541 23.2106 58.056C23.1504 58.0992 23.0785 58.1234 23.0043 58.1257L19.8488 55.199C20.0333 53.8835 19.3901 52.4599 20.3707 51.2478Z" fill="#9BCF8E"/>
<path d="M20.8642 48.6145C20.9565 48.8815 21.0827 49.1099 21.4201 49.0955C21.7332 48.9704 22.0196 48.8983 21.9954 49.4009C21.8497 49.6149 21.4541 49.5644 21.4395 49.9156L20.9541 50.5168C20.9468 50.5827 20.9225 50.6456 20.8837 50.6995L20.3982 51.1613C20.3424 50.714 19.9128 50.6514 19.6336 50.4398C19.1919 50.3653 19.0778 50.031 18.9977 49.6654C18.937 49.1003 18.9515 48.5472 19.3326 48.071C19.5485 47.8186 19.8167 47.6152 20.1191 47.4746C20.8011 47.5876 20.2987 48.4366 20.8642 48.6145Z" fill="#F8FAF6"/>
<path d="M21.9971 49.3984C21.8782 49.1579 21.6428 49.1387 21.4219 49.093C22.9656 48.3715 24.689 48.4749 26.3153 48.131C27.3453 47.9092 28.3864 47.7414 29.4343 47.6284C29.4343 47.84 29.4343 48.0493 29.4343 48.2585L21.9971 49.3984Z" fill="#D8E8D1"/>
<path d="M19.308 49.6605L19.6502 50.4373C19.0216 51.6397 19.5119 52.9432 19.2667 54.1793C16.0218 50.6135 13.6731 46.3385 12.4121 41.7028C12.9898 41.4094 13.218 41.9072 13.468 42.215C15.0419 44.1626 16.7319 46.0152 18.5288 47.7631C19.0847 48.2994 19.0847 49.0184 19.308 49.6605Z" fill="#98CE8B"/>
<path d="M14.0213 23.1853L15.6257 23.7937C14.9727 24.8615 13.9946 25.6383 13.1329 26.5209C12.6668 25.5854 13.6183 24.9721 13.6863 24.1473C13.7562 23.8138 13.8688 23.4905 14.0213 23.1853Z" fill="#95CB8B"/>
<path d="M11.431 31.7107C12.1422 32.6919 12.0378 33.0646 10.9844 33.2835C11.6543 32.9059 11.4431 32.2806 11.431 31.7107Z" fill="#569580"/>
<path d="M19.3082 49.6605C18.8931 48.5663 18.0363 47.8112 17.2571 46.9839C15.6211 45.2452 14.024 43.468 12.4026 41.6932C12.0676 41.0535 11.8297 40.3368 11.0676 40.0338C11.0287 39.6947 10.5554 39.3316 11.1307 39.0286L11.7763 39.5721C12.1453 39.6851 12.3298 40.0001 12.5409 40.2743C14.679 43.0619 17.0324 45.6806 19.58 48.1069C19.2062 48.5807 19.3519 49.1362 19.3082 49.6605Z" fill="#E2EEDD"/>
<path d="M11.3176 36.6383L11.0021 36.9461C10.2521 36.3545 10.5166 35.5849 10.638 34.8442C11.439 35.2266 10.7497 36.1717 11.3176 36.6383Z" fill="#376183"/>
<path d="M55.1367 58.4961C64.9259 57.1687 69.5013 52.5537 70.0281 43.3455C70.9529 44.3339 71.8218 45.166 72.5767 46.0942C74.4627 48.4125 76.2953 50.7765 78.1594 53.1188C78.5198 53.5539 78.7245 54.095 78.7417 54.6576C78.7588 55.2202 78.5873 55.7725 78.2541 56.2284C74.9409 60.7911 71.2159 65.046 67.125 68.9405C66.6396 69.3878 64.3652 69.3565 63.9696 68.8467C61.1782 65.2971 58.1077 61.9784 55.1367 58.4961Z" fill="#68B953"/>
<path d="M51.2828 50.3821C51.1542 48.3812 51.9406 46.5968 53.1251 45.0456C55.4286 42.0275 58.1472 39.6876 62.3221 39.5698C66.3854 39.4543 68.4704 42.5734 67.7107 46.3371C66.6621 51.5268 62.1862 55.6728 56.9068 56.1417C54.0669 56.3942 50.9115 54.5786 51.2828 50.3821Z" fill="#67B953"/>
<path d="M19.5923 48.119C19.3787 48.0733 19.0874 48.1021 18.9636 47.9747C16.415 45.3101 13.7595 42.7344 11.7861 39.5841C11.7922 39.3839 11.8637 39.1911 11.9897 39.0346C12.1157 38.8781 12.2896 38.7663 12.4852 38.7159C14.0945 38.4754 15.7232 38.5404 17.3397 38.5933C17.8252 38.6077 17.7767 39.1199 17.8543 39.4013C18.2621 40.8995 19.284 41.3565 20.7258 41.2218C20.9893 41.2155 21.253 41.2283 21.5147 41.2603C21.471 41.5873 21.4249 41.9168 21.3787 42.2439C20.9782 44.0186 20.801 45.8512 20.1238 47.5562C20.1094 47.6947 20.0496 47.8246 19.9536 47.9262C19.8576 48.0278 19.7307 48.0955 19.5923 48.119Z" fill="#99CF8B"/>
<path d="M20.1309 47.5563C20.3396 45.7382 20.5556 43.9201 21.3858 42.2439L21.7401 42.2752C21.3833 43.9586 21.0314 45.6588 20.6624 47.3494C20.5629 47.8064 20.7207 48.2056 20.8639 48.6144C20.1721 48.5663 20.5265 47.8064 20.1309 47.5563Z" fill="#DEEBD6"/>
<path d="M65.4119 43.4271C64.3585 44.2833 64.5284 45.1106 65.3949 45.7599C65.9362 46.1687 65.7663 46.4477 65.4507 46.806C65.0187 47.287 64.5721 47.7679 63.9701 48.4413C63.5939 47.2389 64.4313 46.325 63.9458 45.3462C63.0938 45.7623 62.5598 46.5751 61.8923 47.2292C61.5185 47.5972 61.8923 47.982 61.9967 48.3307C62.4312 49.7736 62.3705 51.0578 61.1739 52.1977C59.9772 53.3376 58.6422 53.9869 56.9844 53.3208C56.4091 53.0803 55.9746 53.1957 55.6081 53.6046C55.0474 53.1476 55.9819 52.8566 55.5693 52.4021C55.0838 51.861 54.7926 52.5657 54.2804 52.4406C55.0086 51.267 54.3484 50.5167 53.4163 49.9636C52.9721 49.7038 52.8823 49.5764 53.227 49.2301C53.9285 48.5207 54.6348 47.816 55.6227 46.8252C55.2948 48.1376 55.1882 49.4946 55.3071 50.8414C56.3557 50.2594 56.982 49.3672 57.7344 48.6217C58.1009 48.2561 57.7344 47.8617 57.6252 47.5178C57.1155 45.9715 57.4577 44.6512 58.6568 43.569C59.7539 42.583 61.0574 42.1429 62.4409 42.8163C63.2686 43.2203 63.5162 42.4628 64.14 42.2632C64.2055 42.8404 63.0914 43.2396 63.9167 43.8215C64.5599 44.2592 64.6546 43.2901 65.4119 43.4271Z" fill="#41863F"/>
<path d="M58.669 49.5572C58.669 49.8914 56.4432 52.2314 56.2417 52.1664C55.7344 52.0077 55.4747 51.6542 55.8728 51.1901C56.4747 50.4951 57.1374 49.853 57.7782 49.194C57.9384 49.0305 58.1301 48.8958 58.3389 49.1147C58.4601 49.2537 58.5704 49.4016 58.669 49.5572Z" fill="#68B554"/>
<path d="M61.7071 46.7819C61.0421 46.5871 60.7654 46.3346 61.0518 45.957C61.5612 45.3071 62.1057 44.6849 62.6829 44.0933C62.9523 43.8071 63.2921 43.7373 63.6004 44.0692C63.9087 44.4011 63.6684 44.6199 63.4572 44.8532C62.8455 45.5242 62.2363 46.1999 61.7071 46.7819Z" fill="#67B556"/>
<path d="M56.6543 52.7435C57.2951 52.0221 57.8024 51.4305 58.3364 50.8653C58.5039 50.6874 58.7272 50.4541 59.016 50.6513C59.2588 50.8173 59.2709 51.0986 59.2588 51.3728C59.169 52.4213 58.3752 52.8878 56.6543 52.7435Z" fill="#67B654"/>
<path d="M60.334 44.5165C60.4675 43.5401 61.1277 43.1505 62.0331 43.0735C62.2758 43.0543 62.6957 43.2202 62.538 43.4776C62.0889 44.2134 61.5015 44.9349 60.7102 45.2644C60.2272 45.4808 60.4529 44.8123 60.334 44.5165Z" fill="#67B354"/>
</g>
<path d="M2.68919 85.7531V100.921H0.0693359V85.7531H2.68919ZM8.88916 92.3893V94.4624H2.02118V92.3893H8.88916ZM9.75549 85.7531V87.8367H2.02118V85.7531H9.75549Z" fill="white"/>
<path d="M14.2854 89.6494V100.921H11.7595V89.6494H14.2854ZM11.5925 86.6907C11.5925 86.3087 11.7178 85.9927 11.9683 85.7427C12.2257 85.4857 12.5806 85.3572 13.0329 85.3572C13.4783 85.3572 13.8297 85.4857 14.0871 85.7427C14.3446 85.9927 14.4733 86.3087 14.4733 86.6907C14.4733 87.0658 14.3446 87.3783 14.0871 87.6283C13.8297 87.8783 13.4783 88.0034 13.0329 88.0034C12.5806 88.0034 12.2257 87.8783 11.9683 87.6283C11.7178 87.3783 11.5925 87.0658 11.5925 86.6907Z" fill="white"/>
<path d="M17.0514 84.9197H19.5669V98.5149L19.3268 100.921H17.0514V84.9197ZM26.9359 95.1812V95.4C26.9359 96.2334 26.8419 97.0009 26.6541 97.7024C26.4731 98.3969 26.1948 99.0011 25.819 99.5151C25.4503 100.029 24.991 100.428 24.4413 100.713C23.8985 100.991 23.2688 101.13 22.5521 101.13C21.8493 101.13 21.2369 100.998 20.715 100.734C20.1931 100.47 19.7548 100.095 19.3999 99.6088C19.052 99.1227 18.7701 98.5427 18.5544 97.869C18.3387 97.1954 18.1856 96.4522 18.0952 95.6396V94.9416C18.1856 94.1221 18.3387 93.379 18.5544 92.7122C18.7701 92.0385 19.052 91.4586 19.3999 90.9724C19.7548 90.4793 20.1897 90.1008 20.7046 89.8369C21.2265 89.573 21.8353 89.441 22.5312 89.441C23.2549 89.441 23.8916 89.5799 24.4413 89.8577C24.998 90.1355 25.4607 90.5314 25.8295 91.0454C26.1983 91.5524 26.4731 92.1566 26.6541 92.8581C26.8419 93.5595 26.9359 94.3339 26.9359 95.1812ZM24.4204 95.4V95.1812C24.4204 94.6742 24.3787 94.1985 24.2952 93.754C24.2116 93.3026 24.0725 92.9067 23.8776 92.5664C23.6898 92.2261 23.4323 91.9587 23.1053 91.7642C22.7852 91.5628 22.3851 91.4621 21.9049 91.4621C21.4596 91.4621 21.0769 91.5385 20.7568 91.6913C20.4367 91.8441 20.1688 92.0524 19.9531 92.3163C19.7374 92.5803 19.5669 92.8858 19.4416 93.2331C19.3233 93.5804 19.2433 93.9554 19.2016 94.3582V96.2439C19.2642 96.7648 19.3964 97.244 19.5982 97.6815C19.807 98.1121 20.0992 98.4594 20.475 98.7233C20.8507 98.9803 21.3343 99.1088 21.9258 99.1088C22.392 99.1088 22.7852 99.015 23.1053 98.8275C23.4253 98.64 23.6793 98.3795 23.8672 98.0461C24.062 97.7058 24.2012 97.31 24.2847 96.8585C24.3752 96.4071 24.4204 95.9209 24.4204 95.4Z" fill="white"/>
<path d="M29.3157 85.7531H34.6911C35.8462 85.7531 36.8308 85.9267 37.6449 86.274C38.4591 86.6213 39.0818 87.1352 39.5133 87.8158C39.9516 88.4895 40.1708 89.3229 40.1708 90.3161C40.1708 91.0731 40.0317 91.7399 39.7533 92.3163C39.475 92.8928 39.0818 93.379 38.5739 93.7748C38.0659 94.1638 37.4605 94.4659 36.7577 94.6812L35.9645 95.0666H31.1318L31.1109 92.9935H34.7328C35.3591 92.9935 35.881 92.8824 36.2985 92.6601C36.716 92.4379 37.0291 92.1358 37.2379 91.7538C37.4536 91.3648 37.5614 90.9273 37.5614 90.4411C37.5614 89.9133 37.457 89.4549 37.2483 89.066C37.0465 88.6701 36.7334 88.368 36.3089 88.1596C35.8844 87.9443 35.3452 87.8367 34.6911 87.8367H31.9355V100.921H29.3157V85.7531ZM37.9894 100.921L34.4197 94.1082L37.1648 94.0978L40.7867 100.786V100.921H37.9894Z" fill="white"/>
<path d="M47.5085 101.13C46.6735 101.13 45.9185 100.994 45.2435 100.724C44.5755 100.446 44.0049 100.06 43.5318 99.5672C43.0655 99.074 42.7072 98.4941 42.4567 97.8274C42.2062 97.1606 42.0809 96.4418 42.0809 95.6709V95.2542C42.0809 94.3721 42.2097 93.5734 42.4671 92.8581C42.7246 92.1427 43.0829 91.5315 43.5422 91.0245C44.0015 90.5106 44.5442 90.1182 45.1705 89.8473C45.7967 89.5764 46.4752 89.441 47.2058 89.441C48.013 89.441 48.7193 89.5764 49.3247 89.8473C49.9301 90.1182 50.4311 90.5002 50.8277 90.9933C51.2313 91.4794 51.5305 92.0594 51.7253 92.7331C51.9271 93.4067 52.028 94.1499 52.028 94.9625V96.0355H43.3021V94.2332H49.5439V94.0353C49.5299 93.5838 49.4395 93.1602 49.2725 92.7643C49.1124 92.3684 48.8654 92.0489 48.5314 91.8059C48.1974 91.5628 47.7521 91.4412 47.1954 91.4412C46.7779 91.4412 46.4056 91.5315 46.0786 91.7121C45.7585 91.8857 45.4906 92.1392 45.2749 92.4726C45.0591 92.806 44.8921 93.2088 44.7738 93.6811C44.6625 94.1464 44.6068 94.6708 44.6068 95.2542V95.6709C44.6068 96.164 44.6729 96.6224 44.8052 97.046C44.9443 97.4627 45.1461 97.8274 45.4105 98.1399C45.675 98.4524 45.9951 98.699 46.3708 98.8796C46.7466 99.0532 47.1745 99.14 47.6546 99.14C48.26 99.14 48.7993 99.0185 49.2725 98.7754C49.7457 98.5323 50.1562 98.1885 50.5041 97.744L51.8297 99.0254C51.5862 99.3796 51.2696 99.7199 50.8799 100.046C50.4902 100.366 50.0136 100.626 49.4499 100.828C48.8932 101.029 48.2461 101.13 47.5085 101.13Z" fill="white"/>
<path d="M56.5058 91.9413V100.921H53.9903V89.6494H56.3597L56.5058 91.9413ZM56.0987 94.8687L55.2428 94.8583C55.2428 94.0804 55.3402 93.3616 55.5351 92.7018C55.7299 92.042 56.0152 91.469 56.391 90.9829C56.7667 90.4897 57.2329 90.1112 57.7896 89.8473C58.3532 89.5764 59.0039 89.441 59.7415 89.441C60.2564 89.441 60.7261 89.5174 61.1505 89.6702C61.582 89.8161 61.9542 90.0487 62.2674 90.3682C62.5875 90.6877 62.831 91.0975 62.998 91.5975C63.172 92.0976 63.2589 92.7018 63.2589 93.4102V100.921H60.7435V93.629C60.7435 93.0803 60.66 92.6497 60.493 92.3372C60.3329 92.0246 60.0998 91.8024 59.7936 91.6704C59.4944 91.5315 59.1361 91.4621 58.7186 91.4621C58.2454 91.4621 57.8418 91.5524 57.5078 91.7329C57.1808 91.9135 56.9128 92.1601 56.7041 92.4726C56.4953 92.7851 56.3423 93.1463 56.2448 93.5561C56.1474 93.9658 56.0987 94.4034 56.0987 94.8687ZM63.1024 94.202L61.9229 94.4624C61.9229 93.7818 62.0169 93.1393 62.2047 92.5351C62.3996 91.9239 62.6814 91.3892 63.0502 90.9308C63.426 90.4654 63.8887 90.1008 64.4384 89.8369C64.9881 89.573 65.6179 89.441 66.3276 89.441C66.9052 89.441 67.4201 89.5209 67.8724 89.6806C68.3316 89.8334 68.7213 90.0765 69.0414 90.4099C69.3615 90.7432 69.605 91.1773 69.772 91.7121C69.9391 92.2399 70.0226 92.8789 70.0226 93.629V100.921H67.4966V93.6186C67.4966 93.0491 67.4131 92.608 67.2461 92.2955C67.0861 91.983 66.8565 91.7677 66.5573 91.6496C66.258 91.5246 65.8997 91.4621 65.4822 91.4621C65.0925 91.4621 64.7481 91.535 64.4488 91.6809C64.1566 91.8198 63.9096 92.0177 63.7078 92.2747C63.506 92.5247 63.3529 92.8129 63.2485 93.1393C63.1511 93.4658 63.1024 93.82 63.1024 94.202Z" fill="white"/>
<path d="M75.304 89.6494V100.921H72.7781V89.6494H75.304ZM72.6111 86.6907C72.6111 86.3087 72.7364 85.9927 72.9869 85.7427C73.2443 85.4857 73.5992 85.3572 74.0515 85.3572C74.4968 85.3572 74.8482 85.4857 75.1057 85.7427C75.3632 85.9927 75.4919 86.3087 75.4919 86.6907C75.4919 87.0658 75.3632 87.3783 75.1057 87.6283C74.8482 87.8783 74.4968 88.0034 74.0515 88.0034C73.5992 88.0034 73.2443 87.8783 72.9869 87.6283C72.7364 87.3783 72.6111 87.0658 72.6111 86.6907Z" fill="white"/>
<path d="M83.2366 89.6494V91.4829H76.8697V89.6494H83.2366ZM78.7067 86.8886H81.2222V97.8065C81.2222 98.1538 81.2709 98.4212 81.3683 98.6087C81.4727 98.7893 81.6153 98.9108 81.7962 98.9733C81.9772 99.0358 82.1894 99.0671 82.4329 99.0671C82.6069 99.0671 82.7739 99.0567 82.9339 99.0358C83.094 99.015 83.2227 98.9942 83.3201 98.9733L83.3306 100.89C83.1218 100.953 82.8783 101.008 82.5999 101.057C82.3286 101.106 82.0154 101.13 81.6605 101.13C81.083 101.13 80.5715 101.029 80.1262 100.828C79.6809 100.619 79.3329 100.283 79.0824 99.8172C78.8319 99.3518 78.7067 98.7337 78.7067 97.9628V86.8886Z" fill="white"/>
<defs>
<clipPath id="clip0_30_587">
<rect width="82.5929" height="74.45" fill="white" transform="translate(0.0693359)"/>
</clipPath>
</defs>
</svg>
