<svg width="25" height="24" viewBox="0 0 25 24" fill="none" xmlns="http://www.w3.org/2000/svg">
<path d="M17.3984 21H7.39844C3.39844 21 2.39844 20 2.39844 16V8C2.39844 4 3.39844 3 7.39844 3H17.3984C21.3984 3 22.3984 4 22.3984 8V16C22.3984 20 21.3984 21 17.3984 21Z" stroke="#969696" stroke-width="1.5" stroke-linecap="round" stroke-linejoin="round"/>
<path d="M14.3984 8H19.3984" stroke="#969696" stroke-width="1.5" stroke-linecap="round" stroke-linejoin="round"/>
<path d="M15.3984 12H19.3984" stroke="#969696" stroke-width="1.5" stroke-linecap="round" stroke-linejoin="round"/>
<path d="M17.3984 16H19.3984" stroke="#969696" stroke-width="1.5" stroke-linecap="round" stroke-linejoin="round"/>
<path d="M8.89789 11.29C9.89753 11.29 10.7079 10.4796 10.7079 9.48C10.7079 8.48036 9.89753 7.67 8.89789 7.67C7.89826 7.67 7.08789 8.48036 7.08789 9.48C7.08789 10.4796 7.89826 11.29 8.89789 11.29Z" stroke="#969696" stroke-width="1.5" stroke-linecap="round" stroke-linejoin="round"/>
<path d="M12.3984 16.33C12.2584 14.88 11.1084 13.74 9.65844 13.61C9.15844 13.56 8.64844 13.56 8.13844 13.61C6.68844 13.75 5.53844 14.88 5.39844 16.33" stroke="#969696" stroke-width="1.5" stroke-linecap="round" stroke-linejoin="round"/>
</svg>
