<svg width="23" height="24" viewBox="0 0 23 24" fill="none" xmlns="http://www.w3.org/2000/svg">
<path d="M11.6929 2.72447L20.1681 6.11449C20.4976 6.24633 20.7613 6.64182 20.7613 6.99025V10.1166C20.7613 10.6346 20.3376 11.0583 19.8196 11.0583H2.86941C2.35149 11.0583 1.92773 10.6346 1.92773 10.1166V6.99025C1.92773 6.64182 2.19141 6.24633 2.521 6.11449L10.9961 2.72447C11.1844 2.64914 11.5046 2.64914 11.6929 2.72447Z" stroke="#0A9A9E" stroke-miterlimit="10" stroke-linecap="round" stroke-linejoin="round"/>
<path d="M20.7613 21.4169H1.92773V18.5918C1.92773 18.0739 2.35149 17.6501 2.86941 17.6501H19.8196C20.3376 17.6501 20.7613 18.0739 20.7613 18.5918V21.4169Z" stroke="#0A9A9E" stroke-miterlimit="10" stroke-linecap="round" stroke-linejoin="round"/>
<path d="M3.8125 17.6501V11.0583" stroke="#0A9A9E" stroke-miterlimit="10" stroke-linecap="round" stroke-linejoin="round"/>
<path d="M7.57812 17.6501V11.0583" stroke="#0A9A9E" stroke-miterlimit="10" stroke-linecap="round" stroke-linejoin="round"/>
<path d="M11.3457 17.6501V11.0583" stroke="#0A9A9E" stroke-miterlimit="10" stroke-linecap="round" stroke-linejoin="round"/>
<path d="M15.1113 17.6501V11.0583" stroke="#0A9A9E" stroke-miterlimit="10" stroke-linecap="round" stroke-linejoin="round"/>
<path d="M18.8789 17.6501V11.0583" stroke="#0A9A9E" stroke-miterlimit="10" stroke-linecap="round" stroke-linejoin="round"/>
<path d="M0.986328 21.417H21.7033" stroke="#0A9A9E" stroke-miterlimit="10" stroke-linecap="round" stroke-linejoin="round"/>
<path d="M11.3442 8.70419C12.1243 8.70419 12.7567 8.07178 12.7567 7.29167C12.7567 6.51156 12.1243 5.87915 11.3442 5.87915C10.564 5.87915 9.93164 6.51156 9.93164 7.29167C9.93164 8.07178 10.564 8.70419 11.3442 8.70419Z" stroke="#0A9A9E" stroke-miterlimit="10" stroke-linecap="round" stroke-linejoin="round"/>
</svg>
