<svg width="13" height="12" viewBox="0 0 13 12" fill="none" xmlns="http://www.w3.org/2000/svg">
<path d="M10.7403 4.29002V7.71C10.7403 8.27 10.4403 8.79002 9.95527 9.07502L6.98527 10.79C6.50027 11.07 5.90027 11.07 5.41027 10.79L2.44027 9.07502C1.95527 8.79502 1.65527 8.275 1.65527 7.71V4.29002C1.65527 3.73002 1.95527 3.21 2.44027 2.925L5.41027 1.21C5.89527 0.93 6.49527 0.93 6.98527 1.21L9.95527 2.925C10.4403 3.21 10.7403 3.72502 10.7403 4.29002Z" stroke="#969696" stroke-linecap="round" stroke-linejoin="round"/>
<path d="M6.20016 5.50003C6.84357 5.50003 7.36516 4.97843 7.36516 4.33502C7.36516 3.69161 6.84357 3.17004 6.20016 3.17004C5.55674 3.17004 5.03516 3.69161 5.03516 4.33502C5.03516 4.97843 5.55674 5.50003 6.20016 5.50003Z" stroke="#969696" stroke-linecap="round" stroke-linejoin="round"/>
<path d="M8.2002 8.33005C8.2002 7.43005 7.3052 6.70007 6.2002 6.70007C5.0952 6.70007 4.2002 7.43005 4.2002 8.33005" stroke="#969696" stroke-linecap="round" stroke-linejoin="round"/>
</svg>
