<svg width="25" height="24" viewBox="0 0 25 24" fill="none" xmlns="http://www.w3.org/2000/svg">
<g clip-path="url(#clip0_330_3512)">
<path d="M12.3897 24C19.0662 24 24.4786 18.6274 24.4786 12C24.4786 5.37258 19.0662 0 12.3897 0C5.71316 0 0.300781 5.37258 0.300781 12C0.300781 18.6274 5.71316 24 12.3897 24Z" fill="#F0F0F0"/>
<path d="M12.3897 0C7.19191 0 2.76081 3.2565 1.05273 7.82611H23.7267C22.0186 3.2565 17.5875 0 12.3897 0Z" fill="#A2001D"/>
<path d="M12.3897 23.9999C17.5875 23.9999 22.0186 20.7434 23.7267 16.1738H1.05273C2.76081 20.7434 7.19191 23.9999 12.3897 23.9999Z" fill="black"/>
<path d="M9.49914 11.2175C9.49253 11.2175 9.48606 11.2179 9.47945 11.218V11.2175H7.16853C7.28569 10.7681 7.69643 10.4348 8.18513 10.4348V8.86963C6.73602 8.86963 5.55712 10.0399 5.55712 11.4783V12.7566V12.7827H9.47945H9.49914C9.64406 12.7827 9.76193 12.8998 9.76193 13.0436V13.5653H4.50586V15.1305H11.3387V13.0435C11.3387 12.0366 10.5135 11.2175 9.49914 11.2175Z" fill="#496E2D"/>
<path d="M13.442 13.5653V8.86963H11.8652V15.1305H14.4932V13.5653H13.442Z" fill="#496E2D"/>
<path d="M18.6968 13.5653V8.86963H17.12V13.5653H16.5944V12.0001H15.0176V15.1306H19.748V13.5653H18.6968Z" fill="#496E2D"/>
</g>
<defs>
<clipPath id="clip0_330_3512">
<rect width="24.1778" height="24" fill="white" transform="translate(0.300781)"/>
</clipPath>
</defs>
</svg>
