<svg width="25" height="24" viewBox="0 0 25 24" fill="none" xmlns="http://www.w3.org/2000/svg">
<path d="M12.7988 15C14.4557 15 15.7988 13.6569 15.7988 12C15.7988 10.3431 14.4557 9 12.7988 9C11.142 9 9.79883 10.3431 9.79883 12C9.79883 13.6569 11.142 15 12.7988 15Z" stroke="#555555" stroke-width="1.5" stroke-miterlimit="10" stroke-linecap="round" stroke-linejoin="round"/>
<path d="M2.79883 12.8801V11.1201C2.79883 10.0801 3.64883 9.22006 4.69883 9.22006C6.50883 9.22006 7.24883 7.94006 6.33883 6.37006C5.81883 5.47006 6.12883 4.30006 7.03883 3.78006L8.76883 2.79006C9.55883 2.32006 10.5788 2.60006 11.0488 3.39006L11.1588 3.58006C12.0588 5.15006 13.5388 5.15006 14.4488 3.58006L14.5588 3.39006C15.0288 2.60006 16.0488 2.32006 16.8388 2.79006L18.5688 3.78006C19.4788 4.30006 19.7888 5.47006 19.2688 6.37006C18.3588 7.94006 19.0988 9.22006 20.9088 9.22006C21.9488 9.22006 22.8088 10.0701 22.8088 11.1201V12.8801C22.8088 13.9201 21.9588 14.7801 20.9088 14.7801C19.0988 14.7801 18.3588 16.0601 19.2688 17.6301C19.7888 18.5401 19.4788 19.7001 18.5688 20.2201L16.8388 21.2101C16.0488 21.6801 15.0288 21.4001 14.5588 20.6101L14.4488 20.4201C13.5488 18.8501 12.0688 18.8501 11.1588 20.4201L11.0488 20.6101C10.5788 21.4001 9.55883 21.6801 8.76883 21.2101L7.03883 20.2201C6.12883 19.7001 5.81883 18.5301 6.33883 17.6301C7.24883 16.0601 6.50883 14.7801 4.69883 14.7801C3.64883 14.7801 2.79883 13.9201 2.79883 12.8801Z" stroke="#555555" stroke-width="1.5" stroke-miterlimit="10" stroke-linecap="round" stroke-linejoin="round"/>
</svg>
