<svg width="24" height="24" viewBox="0 0 24 24" fill="none" xmlns="http://www.w3.org/2000/svg">
<path fill-rule="evenodd" clip-rule="evenodd" d="M9 22H15C20 22 22 20 22 15V9C22 4 20 2 15 2H9C4 2 2 4 2 9V15C2 20 4 22 9 22ZM11.6201 8.88C11.6201 8.46579 11.9559 8.13 12.3701 8.13H17.6201C18.0343 8.13 18.3701 8.46579 18.3701 8.88C18.3701 9.29422 18.0343 9.63 17.6201 9.63H12.3701C11.9559 9.63 11.6201 9.29422 11.6201 8.88ZM9.91021 7.91034C10.2031 7.61744 10.2031 7.14257 9.91021 6.84967C9.61732 6.55678 9.14245 6.55678 8.84955 6.84967L7.12988 8.56934L6.91021 8.34967C6.61732 8.05678 6.14245 8.05678 5.84955 8.34967C5.55666 8.64257 5.55666 9.11744 5.84955 9.41034L6.59955 10.1603C6.89245 10.4532 7.36732 10.4532 7.66021 10.1603L9.91021 7.91034ZM11.6201 15.88C11.6201 15.4658 11.9559 15.13 12.3701 15.13H17.6201C18.0343 15.13 18.3701 15.4658 18.3701 15.88C18.3701 16.2942 18.0343 16.63 17.6201 16.63H12.3701C11.9559 16.63 11.6201 16.2942 11.6201 15.88ZM9.91021 14.9103C10.2031 14.6174 10.2031 14.1426 9.91021 13.8497C9.61732 13.5568 9.14245 13.5568 8.84955 13.8497L7.12988 15.5693L6.91021 15.3497C6.61732 15.0568 6.14245 15.0568 5.84955 15.3497C5.55666 15.6426 5.55666 16.1174 5.84955 16.4103L6.59955 17.1603C6.89245 17.4532 7.36732 17.4532 7.66021 17.1603L9.91021 14.9103Z" fill="#46B093"/>
</svg>
