<svg width="13" height="12" viewBox="0 0 13 12" fill="none" xmlns="http://www.w3.org/2000/svg">
<path d="M11.4297 4.29002V7.71C11.4297 8.27 11.1297 8.79002 10.6447 9.07502L7.67473 10.79C7.18973 11.07 6.58973 11.07 6.09973 10.79L3.12973 9.07502C2.64473 8.79502 2.34473 8.275 2.34473 7.71V4.29002C2.34473 3.73002 2.64473 3.21 3.12973 2.925L6.09973 1.21C6.58473 0.93 7.18473 0.93 7.67473 1.21L10.6447 2.925C11.1297 3.21 11.4297 3.72502 11.4297 4.29002Z" stroke="#969696" stroke-linecap="round" stroke-linejoin="round"/>
<path d="M6.88961 5.5C7.53302 5.5 8.05461 4.9784 8.05461 4.33499C8.05461 3.69158 7.53302 3.17001 6.88961 3.17001C6.2462 3.17001 5.72461 3.69158 5.72461 4.33499C5.72461 4.9784 6.2462 5.5 6.88961 5.5Z" stroke="#969696" stroke-linecap="round" stroke-linejoin="round"/>
<path d="M8.88965 8.32999C8.88965 7.42999 7.99465 6.70001 6.88965 6.70001C5.78465 6.70001 4.88965 7.42999 4.88965 8.32999" stroke="#969696" stroke-linecap="round" stroke-linejoin="round"/>
</svg>
