<svg width="13" height="12" viewBox="0 0 13 12" fill="none" xmlns="http://www.w3.org/2000/svg">
<path d="M4.19962 11H8.19962C10.2096 11 10.5696 10.195 10.6746 9.215L11.0496 5.215C11.1846 3.995 10.8346 3 8.69962 3H3.69962C1.56462 3 1.21462 3.995 1.34962 5.215L1.72462 9.215C1.82962 10.195 2.18962 11 4.19962 11Z" stroke="#969696" stroke-miterlimit="10" stroke-linecap="round" stroke-linejoin="round"/>
<path d="M4.2002 3V2.6C4.2002 1.715 4.2002 1 5.8002 1H6.6002C8.2002 1 8.2002 1.715 8.2002 2.6V3" stroke="#969696" stroke-miterlimit="10" stroke-linecap="round" stroke-linejoin="round"/>
<path d="M7.2002 6.5V7C7.2002 7.005 7.2002 7.005 7.2002 7.01C7.2002 7.555 7.1952 8 6.2002 8C5.2102 8 5.2002 7.56 5.2002 7.015V6.5C5.2002 6 5.2002 6 5.7002 6H6.7002C7.2002 6 7.2002 6 7.2002 6.5Z" stroke="#969696" stroke-miterlimit="10" stroke-linecap="round" stroke-linejoin="round"/>
<path d="M11.0252 5.5C9.8702 6.34 8.5502 6.84 7.2002 7.01" stroke="#969696" stroke-miterlimit="10" stroke-linecap="round" stroke-linejoin="round"/>
<path d="M1.51074 5.63501C2.63574 6.40501 3.90574 6.87001 5.20074 7.01501" stroke="#969696" stroke-miterlimit="10" stroke-linecap="round" stroke-linejoin="round"/>
</svg>
