<svg width="19" height="18" viewBox="0 0 19 18" fill="none" xmlns="http://www.w3.org/2000/svg">
<path d="M1.7002 8.25V6.75C1.7002 4.125 3.2002 3 5.4502 3H12.9502C15.2002 3 16.7002 4.125 16.7002 6.75V11.25C16.7002 13.875 15.2002 15 12.9502 15H9.2002" stroke="#969696" stroke-miterlimit="10" stroke-linecap="round" stroke-linejoin="round"/>
<path d="M9.2002 10.875C10.2357 10.875 11.0752 10.0355 11.0752 9C11.0752 7.96447 10.2357 7.125 9.2002 7.125C8.16466 7.125 7.3252 7.96447 7.3252 9C7.3252 10.0355 8.16466 10.875 9.2002 10.875Z" stroke="#969696" stroke-miterlimit="10" stroke-linecap="round" stroke-linejoin="round"/>
<path d="M14.0752 7.125V10.875" stroke="#969696" stroke-miterlimit="10" stroke-linecap="round" stroke-linejoin="round"/>
<path d="M1.7002 11.625H5.70522C6.18522 11.625 6.5752 12.015 6.5752 12.495V13.455" stroke="#969696" stroke-miterlimit="10" stroke-linecap="round" stroke-linejoin="round"/>
<path d="M2.61517 10.71L1.7002 11.625L2.61517 12.54" stroke="#969696" stroke-miterlimit="10" stroke-linecap="round" stroke-linejoin="round"/>
<path d="M6.5752 15.585H2.57018C2.09018 15.585 1.7002 15.195 1.7002 14.715V13.755" stroke="#969696" stroke-miterlimit="10" stroke-linecap="round" stroke-linejoin="round"/>
<path d="M5.66113 16.5002L6.57611 15.5853L5.66113 14.6702" stroke="#969696" stroke-miterlimit="10" stroke-linecap="round" stroke-linejoin="round"/>
</svg>
