<svg width="17" height="17" viewBox="0 0 17 17" fill="none" xmlns="http://www.w3.org/2000/svg">
<path d="M14.7832 4.33138C12.5632 4.11138 10.3299 3.99805 8.1032 3.99805C6.7832 3.99805 5.4632 4.06471 4.1432 4.19805L2.7832 4.33138" stroke="#F23836" stroke-width="1.5" stroke-linecap="round" stroke-linejoin="round"/>
<path d="M6.44922 3.65807L6.59589 2.78474C6.70255 2.1514 6.78255 1.67807 7.90922 1.67807H9.65589C10.7826 1.67807 10.8692 2.17807 10.9692 2.7914L11.1159 3.65807" stroke="#F23836" stroke-width="1.5" stroke-linecap="round" stroke-linejoin="round"/>
<path d="M13.3501 6.43805L12.9168 13.1514C12.8435 14.198 12.7835 15.0114 10.9235 15.0114H6.64346C4.78346 15.0114 4.72346 14.198 4.65013 13.1514L4.2168 6.43805" stroke="#F23836" stroke-width="1.5" stroke-linecap="round" stroke-linejoin="round"/>
<path d="M7.66992 11.3447H9.88992" stroke="#F23836" stroke-width="1.5" stroke-linecap="round" stroke-linejoin="round"/>
<path d="M7.11719 8.67807H10.4505" stroke="#F23836" stroke-width="1.5" stroke-linecap="round" stroke-linejoin="round"/>
</svg>
