<svg width="24" height="24" viewBox="0 0 24 24" fill="none" xmlns="http://www.w3.org/2000/svg">
<path fill-rule="evenodd" clip-rule="evenodd" d="M3.63 7.03992L9.02 2.83992C10.37 1.78992 12.62 1.73992 14.02 2.71992L20.2 7.04992C21.19 7.73992 22 9.28992 22 10.4999V17.7799C22 20.0899 20.11 21.9899 17.79 21.9899H6.21C3.89 21.9899 2 20.0899 2 17.7699V10.3599C2 9.22992 2.73 7.73992 3.63 7.03992ZM12.75 14.9899C12.75 14.5757 12.4142 14.2399 12 14.2399C11.5858 14.2399 11.25 14.5757 11.25 14.9899V17.9899C11.25 18.4041 11.5858 18.7399 12 18.7399C12.4142 18.7399 12.75 18.4041 12.75 17.9899V14.9899Z" fill="#0A9A9E"/>
</svg>
