<svg width="16" height="17" viewBox="0 0 16 17" fill="none" xmlns="http://www.w3.org/2000/svg">
<path d="M7.97917 15.1667C11.6611 15.1667 14.6458 12.1819 14.6458 8.50004C14.6458 4.81814 11.6611 1.83337 7.97917 1.83337C4.29727 1.83337 1.3125 4.81814 1.3125 8.50004C1.3125 12.1819 4.29727 15.1667 7.97917 15.1667Z" stroke="#F23836" stroke-linecap="round" stroke-linejoin="round"/>
<path d="M7.14732 10.1867V6.81337C7.14732 6.49337 7.01398 6.3667 6.67398 6.3667H5.80732C5.46732 6.3667 5.33398 6.49337 5.33398 6.81337V10.1867C5.33398 10.5067 5.46732 10.6334 5.80732 10.6334H6.66732C7.01398 10.6334 7.14732 10.5067 7.14732 10.1867Z" stroke="#F23836" stroke-linecap="round" stroke-linejoin="round"/>
<path d="M10.666 10.1867V6.81337C10.666 6.49337 10.5327 6.3667 10.1927 6.3667H9.33271C8.99271 6.3667 8.85938 6.49337 8.85938 6.81337V10.1867C8.85938 10.5067 8.99271 10.6334 9.33271 10.6334H10.1927C10.5327 10.6334 10.666 10.5067 10.666 10.1867Z" stroke="#F23836" stroke-linecap="round" stroke-linejoin="round"/>
</svg>
