<svg width="31" height="30" viewBox="0 0 31 30" fill="none" xmlns="http://www.w3.org/2000/svg">
<path fill-rule="evenodd" clip-rule="evenodd" d="M1.90039 7.5L4.45039 8.97245C4.97386 8.06326 5.61672 7.23061 6.36978 6.47755C7.47794 5.36939 8.76672 4.5 10.2024 3.89388C11.6871 3.26633 13.2637 2.94796 14.8922 2.94796C16.5208 2.94796 18.1004 3.26633 19.582 3.89388C21.0177 4.5 22.3065 5.36939 23.4147 6.47755C24.5228 7.58571 25.3922 8.87449 25.9984 10.3102C26.629 11.7918 26.9473 13.3714 26.9473 15C26.9473 16.6286 26.629 18.2082 26.0014 19.6898C25.3953 21.1255 24.5259 22.4143 23.4177 23.5224C22.3096 24.6306 21.0208 25.5 19.5851 26.1061C18.1004 26.7337 16.5239 27.052 14.8953 27.052C13.8453 27.052 12.8075 26.9173 11.8035 26.6541C10.833 26.3969 9.89325 26.0173 9.01468 25.5245C7.28202 24.5541 5.79733 23.1551 4.72896 21.4776C4.63406 21.3276 4.54223 21.1776 4.45345 21.0245L1.90039 22.5C2.01059 22.6929 2.12692 22.8796 2.24325 23.0663C4.90957 27.2357 9.57794 30 14.8922 30C23.1759 30 29.8922 23.2837 29.8922 15C29.8922 6.71633 23.1759 0 14.8922 0C9.34223 0 4.49325 3.01531 1.90039 7.5Z" fill="white"/>
</svg>
