<svg width="25" height="24" viewBox="0 0 25 24" fill="none" xmlns="http://www.w3.org/2000/svg">
<path d="M12.7684 2.15003L21.7684 5.75C22.1184 5.89 22.3984 6.31 22.3984 6.68V10C22.3984 10.55 21.9484 11 21.3984 11H3.39844C2.84844 11 2.39844 10.55 2.39844 10V6.68C2.39844 6.31 2.67844 5.89 3.02844 5.75L12.0284 2.15003C12.2284 2.07003 12.5684 2.07003 12.7684 2.15003Z" stroke="#969696" stroke-width="1.5" stroke-miterlimit="10" stroke-linecap="round" stroke-linejoin="round"/>
<path d="M22.3984 22H2.39844V19C2.39844 18.45 2.84844 18 3.39844 18H21.3984C21.9484 18 22.3984 18.45 22.3984 19V22Z" stroke="#969696" stroke-width="1.5" stroke-miterlimit="10" stroke-linecap="round" stroke-linejoin="round"/>
<path d="M4.39844 18V11" stroke="#969696" stroke-width="1.5" stroke-miterlimit="10" stroke-linecap="round" stroke-linejoin="round"/>
<path d="M8.39844 18V11" stroke="#969696" stroke-width="1.5" stroke-miterlimit="10" stroke-linecap="round" stroke-linejoin="round"/>
<path d="M12.3984 18V11" stroke="#969696" stroke-width="1.5" stroke-miterlimit="10" stroke-linecap="round" stroke-linejoin="round"/>
<path d="M16.3984 18V11" stroke="#969696" stroke-width="1.5" stroke-miterlimit="10" stroke-linecap="round" stroke-linejoin="round"/>
<path d="M20.3984 18V11" stroke="#969696" stroke-width="1.5" stroke-miterlimit="10" stroke-linecap="round" stroke-linejoin="round"/>
<path d="M1.39844 22H23.3984" stroke="#969696" stroke-width="1.5" stroke-miterlimit="10" stroke-linecap="round" stroke-linejoin="round"/>
<path d="M12.3984 8.5C13.2269 8.5 13.8984 7.82843 13.8984 7C13.8984 6.17157 13.2269 5.5 12.3984 5.5C11.57 5.5 10.8984 6.17157 10.8984 7C10.8984 7.82843 11.57 8.5 12.3984 8.5Z" stroke="#969696" stroke-width="1.5" stroke-miterlimit="10" stroke-linecap="round" stroke-linejoin="round"/>
</svg>
