<svg width="111" height="32" viewBox="0 0 111 32" fill="none" xmlns="http://www.w3.org/2000/svg">
<g clip-path="url(#clip0_330_3311)">
<path d="M1.21289 6.57809C1.42235 6.15119 1.76586 5.82869 2.06749 5.47621C2.62674 4.82294 3.24465 4.21618 3.77144 3.53914C4.36316 2.77836 5.18738 2.62435 6.04093 2.64192C6.77404 2.65639 7.51238 2.74529 8.20779 3.04505C8.45914 3.15358 8.74296 3.24351 9.0362 3.18253C9.1514 3.20733 9.25299 3.26832 9.36924 3.28589C9.44237 3.30088 9.51416 3.32162 9.58394 3.34791C9.8887 3.49986 10.2364 3.52363 10.5422 3.66938C10.7056 3.77274 10.8229 3.9464 11.0282 3.99188C11.1402 4.03736 11.2313 4.12006 11.3423 4.16554C11.5309 4.21825 11.6838 4.34229 11.866 4.41154C12.0238 4.47326 12.1666 4.56733 12.2849 4.68753C12.3216 4.71751 12.3551 4.74852 12.3896 4.77953C12.4944 4.87462 12.6431 4.88289 12.7614 4.95111C12.8567 5.02243 12.9627 5.07858 13.0756 5.11753C13.5134 5.4173 13.9627 5.69845 14.4015 5.99408C14.5667 6.06556 14.7166 6.16728 14.8435 6.29384C14.9765 6.44785 15.1943 6.46852 15.343 6.59877C15.4792 6.74213 15.6393 6.86136 15.8164 6.95124C16.2489 7.251 16.7129 7.50218 17.1109 7.85363C17.5507 8.24332 17.668 8.22574 18.0995 7.80711C18.2891 7.62416 18.4713 7.435 18.6535 7.2448C18.7452 7.15057 18.8462 7.06573 18.9551 6.99156C18.9925 6.97618 19.0325 6.96826 19.073 6.96826C19.1134 6.96826 19.1535 6.97618 19.1908 6.99156C19.3042 7.06426 19.4009 7.1597 19.4746 7.27168C19.5793 7.50942 19.5374 7.78851 19.7019 8.01178C19.7244 8.05914 19.742 8.10867 19.7542 8.15959C19.7759 8.33805 19.8433 8.50811 19.9501 8.65368C19.9971 8.77656 20.0267 8.90526 20.038 9.03613C20.2904 9.54469 20.3271 10.138 20.6811 10.6052C20.8141 10.8574 20.746 11.1603 20.8906 11.4104C20.9125 11.4849 20.9283 11.5593 20.945 11.6348C20.992 11.7836 21.0505 11.9288 21.1199 12.0689C21.1512 12.1471 21.1747 12.2281 21.1901 12.3108C21.5263 13.2535 21.8792 14.19 22.2101 15.1337C22.3054 15.4076 22.494 15.7539 22.0164 15.9193C20.8801 15.7973 19.7595 15.5637 18.6441 15.3384C17.2103 15.0479 15.7462 14.9176 14.3334 14.5259C14.0528 14.4473 13.7647 14.4752 13.4809 14.4494C13.0777 14.4132 12.7311 14.2913 12.6159 13.8478C12.6002 13.7556 12.597 13.6618 12.6064 13.5687C12.6116 13.5101 12.6246 13.4524 12.6452 13.3971C12.8829 13.0974 13.2798 12.9599 13.4757 12.6147C13.7511 12.3366 13.7197 12.1557 13.3867 11.8963C12.3662 11.1021 11.3056 10.3593 10.2092 9.6708C8.63823 8.68262 6.98245 7.80298 5.21252 7.16831C4.37468 6.86959 3.5159 6.75485 2.65083 6.63081C2.4707 6.60393 2.31151 6.66802 2.14185 6.68456C1.82556 6.72281 1.49566 6.82411 1.21289 6.57809Z" fill="#ECD354"/>
<path d="M20.8015 11.4623C20.6067 11.2308 20.5806 10.9631 20.6277 10.6798C20.9754 10.3429 21.4352 10.1299 21.7221 9.72475C21.7831 9.63903 21.8496 9.5572 21.9211 9.47977C22.1829 9.28751 22.3872 9.44463 22.5799 9.59761C22.9181 9.86739 23.2627 10.1299 23.5968 10.4049C24.222 10.8419 24.804 11.3361 25.3353 11.881C25.3803 11.9089 25.4233 11.9388 25.4662 11.9699C26.0946 12.4288 26.6486 12.9735 27.2173 13.4966C27.7608 13.9969 28.3211 14.4744 28.893 14.9437C29.4606 15.5546 30.1068 16.0921 30.6493 16.7278C31.1834 17.196 31.5971 17.7707 32.06 18.301C32.6381 18.8623 33.2214 19.4194 33.5419 20.1771C34.3033 21.1353 35.05 22.1028 35.7601 23.0993C35.9769 23.4042 36.0198 23.6068 35.7821 23.9386C33.7734 26.7295 31.573 29.357 28.9181 31.5877C28.2436 32.1541 28.2447 32.1593 27.6875 31.4647C27.6349 31.3866 27.5539 31.3315 27.4613 31.3106C27.3314 31.2279 27.2717 31.0884 27.1817 30.9716C27.1492 30.9344 27.1178 30.8951 27.0874 30.8558C26.6601 30.3121 26.2768 29.7364 25.771 29.2568C25.4023 28.8433 25.1122 28.3761 24.754 27.9575C23.4973 26.4824 22.1075 25.1376 20.7209 23.7866C18.9002 22.0186 16.972 20.3617 14.9472 18.8251C14.7146 18.6608 14.498 18.4757 14.2999 18.2721C14.2481 18.1739 14.2262 18.0629 14.2371 17.9527C14.3816 17.4358 14.8812 17.195 15.188 16.8032C15.298 16.6999 15.4142 16.612 15.519 16.5066C15.5881 16.4353 15.6488 16.3567 15.7148 16.2833C15.7894 16.2089 15.8838 16.1569 15.9871 16.1334C16.1578 16.121 16.3589 16.0797 16.428 16.2854C16.4814 16.4466 16.3359 16.5645 16.2301 16.6699C15.9065 16.9934 15.6729 17.3935 15.3179 17.6891C15.0686 17.8958 15.0665 18.0457 15.3462 18.2555C16.4123 19.0566 17.4408 19.9021 18.4525 20.7715C20.4193 22.4858 22.2917 24.3028 24.0618 26.2147C25.5075 27.7527 26.8492 29.3829 28.0782 31.0946C28.3012 31.4047 28.4971 31.2858 28.6866 31.1049C29.3422 30.4692 30.0806 29.9224 30.7016 29.2444C32.2108 27.6091 33.6707 25.9367 34.9767 24.134C35.4155 23.5282 35.4187 23.5417 34.9683 22.9215C32.9051 20.0989 30.5726 17.478 28.0028 15.0946C26.2936 13.4976 24.5016 11.9936 22.6773 10.5196C22.3631 10.2612 22.1128 10.194 21.8331 10.5641C21.675 10.7708 21.4718 10.9527 21.3095 11.1626C21.1775 11.3217 21.0728 11.5306 20.8015 11.4623Z" fill="#68B754"/>
<path d="M22.6374 1.11749C22.9065 1.27564 23.0039 1.54956 23.116 1.81315C23.1849 1.86488 23.2406 1.93165 23.279 2.00822C23.3173 2.0848 23.3372 2.1691 23.337 2.25452C23.3181 3.34916 23.095 4.37352 22.2687 5.18184C21.6739 5.20148 21.2214 5.49194 20.8538 5.92607C20.81 5.98839 20.7541 6.04156 20.6894 6.08253C20.6247 6.12351 20.5525 6.15148 20.4768 6.16485C20.4189 6.14494 20.368 6.10907 20.3302 6.06148C20.0799 5.56533 20.0066 5.01749 19.8746 4.48929C19.5866 3.33572 19.2567 2.19457 18.932 1.05031C18.7634 0.452851 18.9373 0.261626 19.5468 0.373261C20.4098 0.532444 21.2686 0.714367 22.1305 0.878718C22.32 0.90606 22.4967 0.989291 22.6374 1.11749Z" fill="#3775A7"/>
<path d="M1.21241 6.57822C1.62191 6.55445 2.05758 6.47485 2.42833 6.47485C2.92897 6.47525 3.42817 6.52792 3.91758 6.63197C5.4812 6.98548 6.88458 7.72971 8.31623 8.39849C8.54559 8.50186 8.71001 8.70032 8.92366 8.80679C10.4747 9.581 11.8561 10.6002 13.2176 11.6504C13.2751 11.6993 13.3368 11.7432 13.4019 11.7817C14.0858 12.1517 14.0868 12.1507 13.5579 12.7068C13.2773 12.805 13.1453 12.5269 12.9296 12.4659C12.4567 12.0624 11.9586 11.6885 11.4382 11.3465C11.3272 11.2803 11.2026 11.238 11.0947 11.1666C10.5962 10.7408 10.0307 10.4121 9.47349 10.072C8.68383 9.60994 7.91511 9.11171 7.07728 8.73443C6.78718 8.56388 6.47822 8.42433 6.18289 8.26618C6.02076 8.1835 5.8519 8.11435 5.67809 8.05945C5.43826 7.95608 5.18377 7.88063 4.9366 7.79277C4.83218 7.71428 4.71342 7.65637 4.5868 7.62221C4.26738 7.53538 3.94376 7.46199 3.6212 7.38964C3.06341 7.26722 2.48846 7.2403 1.92144 7.31005C1.11292 7.42375 0.814444 7.83515 0.960019 8.6538C1.08988 9.38667 1.48367 10.0193 1.80728 10.6756C1.86593 10.7935 1.92981 10.9092 1.99789 11.0209C2.25343 11.5274 2.64093 11.9605 2.84515 12.4959C2.84515 12.6417 2.91323 12.8494 2.76661 12.9094C2.57181 12.9859 2.48488 12.7678 2.39481 12.6375C1.52242 11.3816 0.813396 10.043 0.3662 8.58042C0.14522 7.84135 0.478259 7.08161 1.21241 6.57822Z" fill="#EFDB6E"/>
<path d="M19.1885 30.5353L18.979 30.1994C18.8491 30.0175 18.9382 29.943 19.1225 29.9151C19.2258 29.9953 19.3478 30.0485 19.4774 30.0698C19.607 30.0911 19.7399 30.0798 19.864 30.0371C20.3929 29.8872 20.9176 29.7187 21.4569 29.6081C21.9156 29.513 21.9366 29.3135 21.6266 29.0148C21.19 28.5184 20.6768 28.0932 20.1059 27.7548C19.6493 27.484 19.5822 27.5222 19.5634 28.0649C19.5711 28.3461 19.5599 28.6275 19.5299 28.9073C19.3916 29.2246 19.6095 29.6557 19.2105 29.8893C18.9581 29.7808 18.9434 29.5689 18.9654 29.3414C19.0879 28.9011 19.0324 28.4494 19.0356 27.9977C19.0356 27.6183 18.869 27.4809 18.4962 27.6411C17.9254 27.8912 17.3306 28.0938 16.8205 28.4587C16.3472 28.7006 15.8727 28.9414 15.5041 29.3373C15.4287 29.4179 15.303 29.4872 15.325 29.6081C15.3554 29.7735 15.524 29.7632 15.6465 29.7808C16.5126 29.9058 17.3808 30.0164 18.2438 30.156C18.4355 30.187 18.6847 30.1291 18.7591 30.4051C18.6596 30.432 18.5496 30.4444 18.4962 30.5488C17.5117 30.6676 16.5702 30.3865 15.6151 30.2387C15.5229 30.2242 15.4381 30.1684 15.3512 30.1808C15.5502 30.2108 15.7397 30.2676 15.7701 30.5229C15.6654 30.6263 15.6444 30.9364 15.4004 30.6552C14.4421 29.9534 13.3173 29.544 12.3067 28.9342C11.3159 28.3357 10.3367 27.7248 9.53553 26.9196C9.55962 27.2493 9.94293 27.5615 9.64026 27.9532C9.14594 27.7341 9.19097 27.2152 8.99408 26.8297C8.96999 26.4513 8.64009 26.2219 8.5207 25.888C8.50185 25.7412 8.51232 25.6048 8.66104 25.519C8.8015 25.4974 8.94518 25.5248 9.06739 25.5965C9.19725 25.6926 9.28942 25.827 9.4109 25.9324C10.2676 27.2297 11.5977 27.9574 12.867 28.713C11.9298 27.74 11.1205 26.6543 10.4582 25.4818C10.3734 25.335 10.2885 25.1841 10.3105 25.0032C10.3228 24.9642 10.3439 24.9285 10.3722 24.8988C10.4005 24.8691 10.4353 24.8461 10.4739 24.8316C10.8405 24.9784 10.9054 25.3619 11.118 25.6296C11.9097 27.0332 12.9734 28.2695 14.2484 29.2681C14.4955 29.4593 14.6547 29.5316 14.8956 29.2329C15.2297 28.8195 15.7041 28.5497 16.1524 28.2613C16.8928 27.791 17.6971 27.4416 18.647 27.0395C16.343 25.7319 14.173 24.445 11.9443 23.2677C11.8212 23.1985 11.7189 23.0983 11.6479 22.9772C11.5977 22.8738 11.5317 22.7705 11.6354 22.6671C11.6859 22.6382 11.7426 22.6213 11.801 22.6177C11.8593 22.6141 11.9177 22.6239 11.9715 22.6464C14.1332 23.9644 16.3702 25.1572 18.5622 26.4224C18.9245 26.6291 19.1476 26.5196 19.2366 26.1381C19.3581 25.6213 19.467 25.1045 19.6179 24.599C19.6786 24.3923 19.7016 24.1297 20.0368 24.1856C20.1049 24.2768 20.1348 24.3904 20.1206 24.5029C20.0326 25.0197 19.8996 25.5365 19.775 26.0451C19.7404 26.1878 19.6597 26.3552 19.7886 26.473C19.9174 26.5909 20.0766 26.473 20.2075 26.4183C20.6264 26.2477 21.0369 26.0389 21.4768 25.9076C21.5592 25.8988 21.6423 25.9177 21.7125 25.9614C21.8277 26.2498 21.5753 26.3108 21.4129 26.409C21.0883 26.6064 20.7248 26.7242 20.3751 26.871C20.0253 27.0178 20.0378 27.147 20.3541 27.3372C21.0359 27.7506 21.6936 28.1962 22.145 28.8732C22.3607 29.3725 22.7137 29.0799 23.0258 29.021C23.0784 29.0236 23.1282 29.0458 23.1651 29.083C23.2174 29.1438 23.2572 29.214 23.2823 29.2898C23.3053 29.3668 23.2993 29.4493 23.2656 29.5223C23.2346 29.5657 23.1959 29.6032 23.1514 29.6329C22.5587 29.7559 22.1408 30.1601 21.6926 30.5167C21.5773 30.6087 21.7198 30.6201 21.7303 30.6738C21.4517 30.8103 21.1741 30.9116 20.9071 30.6511C21.0275 30.2376 21.4087 30.157 21.7638 29.972C21.1029 30.2418 20.44 30.3782 19.7875 30.5539C19.5781 30.5973 19.3759 30.71 19.1885 30.5353Z" fill="#DAE6EF"/>
<path d="M30.4422 5.36168C30.8894 5.86197 31.1512 6.47494 31.4895 7.04035C31.9524 7.44347 32.1241 8.01405 32.3357 8.54949C32.6667 9.3509 32.8851 10.1932 32.985 11.053C33.0049 11.2432 33.1463 11.5109 32.8908 11.6029C32.6572 11.6877 32.5368 11.422 32.4184 11.267C32.0317 10.7539 31.6011 10.2746 31.1313 9.83433C30.6527 9.26995 30.0735 8.80894 29.53 8.31175C29.2085 8.01819 29.1331 7.72876 29.4671 7.40006C29.8654 6.9366 30.1174 6.36808 30.1919 5.76481C30.2128 5.60976 30.129 5.35548 30.4422 5.36168Z" fill="#99CF8B"/>
<path d="M14.3698 18.2822C15.2369 18.7877 15.9973 19.442 16.7608 20.0756C18.0835 21.1744 19.3361 22.3559 20.6159 23.5053C20.6808 23.5735 20.74 23.6468 20.7928 23.7244C21.3563 24.3818 21.9826 24.9824 22.5858 25.6036C23.1891 26.2249 23.7096 26.9205 24.2489 27.5965C24.3442 27.7143 24.4077 27.8541 24.4332 28.0028C24.671 28.7801 25.115 29.4726 25.3758 30.2386C25.4387 30.4236 25.5978 30.4174 25.7445 30.4453C25.9246 30.5487 26.1236 30.6458 25.8492 30.8588L25.1988 31.3084C24.8532 30.8112 24.9223 30.161 24.4804 29.7434C24.316 29.6091 24.2803 29.3972 24.1662 29.2338C24.1348 29.1666 24.1096 29.0974 24.0845 29.0271C23.9956 28.8841 23.9189 28.734 23.8551 28.5785C23.8112 28.4886 23.7399 28.4162 23.6949 28.3273C23.3462 27.4125 22.6246 26.7376 22.1093 25.9303C21.4087 25.185 20.8662 24.3002 20.0514 23.6562C19.3183 23.036 18.5705 22.4448 17.8374 21.8339C17.2163 21.317 16.6236 20.763 15.9659 20.2834C15.8894 20.2141 15.8203 20.1366 15.7396 20.0767C15.2935 19.8027 14.9374 19.411 14.4829 19.1464C14.3566 19.0664 14.2668 18.9411 14.2326 18.797C14.2095 18.6078 14.1938 18.4207 14.3698 18.2822Z" fill="#448840"/>
<path d="M22.6374 1.11725C21.5755 0.910522 20.5125 0.70379 19.4526 0.490857C19.0735 0.413332 18.8755 0.406097 19.0337 0.90432C19.5919 2.6264 20.0265 4.37328 20.4454 6.12636C20.4558 6.18227 20.4459 6.23999 20.4176 6.28947C20.3893 6.33895 20.3443 6.37707 20.2904 6.39718C20.2628 6.39607 20.2358 6.38857 20.2116 6.37529C20.1874 6.362 20.1667 6.3433 20.1511 6.32069C19.7071 4.60172 19.2787 2.87757 18.7603 1.17824C18.6064 0.671746 18.6053 0.661412 18.1456 0.976677C17.6408 1.31882 17.1412 1.66819 16.6416 2.01757C16.3641 2.21086 16.1913 2.44344 16.4709 2.76697C16.7666 3.22647 17.1091 3.65491 17.4931 4.04561C18.1644 5.02448 19.1237 5.74494 19.8956 6.62976C19.9209 6.67629 19.9395 6.72603 19.9511 6.77757C20.0621 7.17553 19.9689 7.36262 19.5207 7.1807C19.4449 6.92943 19.3029 6.70256 19.1091 6.52329C18.3613 5.85761 17.7476 5.06273 17.0449 4.35261C16.6605 3.89986 16.3348 3.40267 15.9693 2.93649C15.8101 2.69979 15.6342 2.75457 15.454 2.90962C15.2875 3.03572 15.1608 3.22902 14.9178 3.23109C14.8773 3.22259 14.8403 3.20244 14.8114 3.17319C14.7825 3.14394 14.763 3.10689 14.7555 3.06674C14.7557 2.95575 14.7979 2.84886 14.8738 2.76697C15.6781 2.24394 14.9429 1.70851 14.8853 1.10588C13.925 1.72608 13.3584 2.58505 12.9457 3.56703C12.8153 3.85246 12.7102 4.1485 12.6316 4.45184C12.597 4.62136 12.5813 4.83222 12.3268 4.8467L12.2629 4.74333C12.1268 4.56657 12.1257 4.36398 12.1582 4.15828C12.7583 2.68118 13.46 1.27851 14.9681 0.475352C14.9917 0.459438 15.011 0.437978 15.0241 0.4129C15.0373 0.387823 15.0439 0.359911 15.0435 0.331672C15.3126 0.0784261 15.5776 0.308932 15.8436 0.337874C15.8981 0.567346 15.6614 0.590087 15.5661 0.713093C15.32 1.03043 15.3692 1.35603 15.5839 1.64959C15.7986 1.94315 16.073 1.77983 16.2929 1.64235C17.0987 1.14279 17.8718 0.593518 18.6074 -0.00219727H18.842C19.8537 0.255184 20.8916 0.382324 21.9096 0.611796C22.1651 0.669681 22.4458 0.671746 22.6332 0.900185L22.6374 1.11725Z" fill="#DAEAF2"/>
<path d="M29.3007 4.43129C29.4892 4.66076 29.8495 4.68454 29.9814 4.98327C29.8107 5.4236 29.4703 5.60966 29.0095 5.60966C28.6126 5.60966 28.2146 5.64584 27.8219 5.56935C27.3066 5.37606 27.0605 4.89231 26.7474 4.50985C26.0949 3.7129 25.3032 3.0741 24.5334 2.40532C24.3773 2.26991 24.1846 2.16655 24.1836 1.92364C24.1929 1.88192 24.2133 1.84342 24.2428 1.81215C24.2722 1.78088 24.3097 1.75799 24.3512 1.74585C25.0382 1.80994 25.5755 2.23063 26.1661 2.51386C27.1087 2.96557 27.9926 3.51547 28.8765 4.06435C29.0315 4.16461 29.2096 4.2535 29.3007 4.43129Z" fill="#3775A7"/>
<path d="M2.84933 12.4938C2.44612 12.1041 2.18639 11.6203 1.9298 11.1335C1.89052 11.0583 1.86711 10.976 1.86099 10.8916C1.85487 10.8072 1.86617 10.7224 1.89419 10.6425C2.23561 9.55921 2.74774 8.55347 3.33108 7.58183C3.41216 7.45215 3.5258 7.34533 3.66098 7.27173C4.02754 7.27793 4.35744 7.42781 4.70304 7.51877C4.76902 7.59319 4.83605 7.7038 4.78368 7.77409C4.38571 8.31365 4.26004 9.00724 3.79294 9.50443C3.33213 10.4585 3.12267 11.486 2.84933 12.4938Z" fill="#D09C35"/>
<path d="M5.20032 23.1466C3.90586 21.6902 3.43458 19.9185 3.20312 18.0548C3.21585 18.0104 3.24063 17.9703 3.27477 17.9388C3.30892 17.9072 3.35114 17.8855 3.39688 17.876C4.36039 18.1447 4.61488 18.4672 4.61907 19.4265C4.62274 19.4829 4.62274 19.5395 4.61907 19.596C4.48292 20.6379 4.87042 21.4638 5.76063 22.0044C6.54819 22.483 6.60789 23.128 6.38167 23.897C6.36221 23.9304 6.33507 23.9588 6.30243 23.9798C6.2698 24.0009 6.23259 24.0141 6.19383 24.0183C6.15507 24.0225 6.11585 24.0177 6.07934 24.0042C6.04283 23.9906 6.01007 23.9688 5.9837 23.9405C5.69988 23.7017 5.35113 23.5167 5.20032 23.1466Z" fill="#24527D"/>
<path d="M15.0423 0.342041C15.0769 0.39269 15.3146 0.382353 15.1471 0.47745C13.7458 1.28267 12.9477 2.54477 12.3497 3.97122C12.3306 4.00363 12.3077 4.0338 12.2817 4.06115C12.1804 4.2686 12.0089 4.43461 11.7968 4.53043L11.2553 4.27718C11.2427 3.96708 11.5014 3.83581 11.6742 3.65698C11.8889 3.43888 11.8355 3.36033 11.5695 3.23525C11.3035 3.11018 11.0459 3.32725 10.8259 3.13189C10.7034 2.67501 10.8458 2.31633 11.2354 2.04861C12.1581 1.10075 13.4232 0.875409 14.6119 0.490888C14.7606 0.440239 14.901 0.390623 15.0423 0.342041Z" fill="#3875A7"/>
<path d="M19.1875 29.8923C19.0273 29.9326 18.9445 30.0267 18.978 30.1962C18.9603 30.2459 18.9306 30.2906 18.8916 30.3266C18.8526 30.3626 18.8054 30.3888 18.7539 30.4029L14.8789 29.7931C15.3711 29.0757 16.0498 28.6746 16.7756 28.3284C17.4039 28.4142 18.0187 28.5351 18.6408 28.6385C19.0314 28.7026 19.2346 28.8772 19.0985 29.2928C19.0669 29.5022 19.0986 29.7161 19.1896 29.9078L19.1875 29.8923Z" fill="#23527E"/>
<path d="M9.75203 27.9739L9.30273 26.6808C9.3729 26.5681 9.42422 26.6291 9.45145 26.656C10.8307 28.0277 12.4959 28.9735 14.2491 29.7859C14.6848 29.9926 15.0555 30.2769 15.4284 30.5663C15.4378 30.5736 15.4378 30.6035 15.4284 30.618C15.4189 30.6325 15.4001 30.6418 15.3854 30.6542C14.6984 30.4475 13.9988 30.2821 13.3285 30.034C12.0718 29.574 10.815 29.114 9.86723 28.1124C9.85026 28.1113 9.8337 28.1067 9.81858 28.0991C9.80346 28.0914 9.79009 28.0807 9.77929 28.0677C9.7685 28.0548 9.76052 28.0397 9.75583 28.0236C9.75114 28.0075 9.74984 27.9905 9.75203 27.9739Z" fill="#25527D"/>
<path d="M3.22266 12.5115C3.36614 11.7084 3.41641 10.8742 4.0008 10.2158C4.21026 9.88085 4.53911 9.73924 4.89729 9.63484C5.0135 9.59992 5.13689 9.5953 5.25546 9.6214C5.30641 9.65969 5.34321 9.71344 5.36019 9.77438C5.28897 10.6106 5.11722 11.4282 5.03553 12.2686C4.9863 12.771 4.99887 13.2733 4.95489 13.7736C4.94551 13.8638 4.91386 13.9504 4.86272 14.0258C4.58938 14.1767 4.53492 13.9225 4.4637 13.785C4.22806 13.3188 4.14951 12.7172 3.39337 12.7761C3.26979 12.7854 3.26978 12.6087 3.22266 12.5115Z" fill="#46B093"/>
<path d="M33.5353 20.1802C33.0001 19.56 32.5162 18.8985 31.913 18.3372C31.7685 17.9434 31.9381 17.6736 32.2848 17.5103C32.8257 17.2351 33.3361 16.9049 33.8076 16.5252C33.9259 16.4342 34.0568 16.2812 34.2013 16.3567C34.3857 16.4518 34.2987 16.6461 34.2579 16.8053C34.0966 17.9444 33.9332 19.0866 33.5353 20.1802Z" fill="#3775A7"/>
<path d="M3.22237 12.5115C3.27788 12.5611 3.34386 12.6614 3.3868 12.6531C4.22463 12.4846 4.34193 13.1058 4.53882 13.6557C4.60573 13.8074 4.68598 13.953 4.77866 14.0909L4.85511 14.1447C4.95146 14.6315 4.79646 15.0925 4.68126 15.5515C4.61842 15.7985 4.42886 15.9122 4.15761 15.7944C3.80467 15.4791 3.4046 15.2031 3.20771 14.7493C2.72491 13.9968 3.07366 13.2567 3.22237 12.5115Z" fill="#24527E"/>
<path d="M24.355 28.0422C23.8701 27.2153 23.2197 26.5072 22.5903 25.7909C22.0666 25.1976 21.5105 24.6373 20.9659 24.0647C20.9151 24.0225 20.8735 23.9706 20.8434 23.9122C20.8134 23.8538 20.7955 23.79 20.791 23.7246C21.8174 24.6549 22.8301 25.5914 23.714 26.653C24.0732 27.083 24.6063 27.3641 24.8179 27.9182C25.5462 28.9274 26.173 30.0044 26.6894 31.1339C26.9386 31.1587 27.013 30.8641 27.2361 30.8724C27.3015 30.9267 27.3549 30.9937 27.3929 31.0693C27.431 31.1449 27.4528 31.2274 27.4571 31.3117C26.5553 32.1179 26.5543 32.1179 26.0443 31.0481C26.029 31.0041 26.0034 30.9643 25.9695 30.932C25.9356 30.8996 25.8945 30.8757 25.8495 30.862C25.949 30.7008 25.905 30.5922 25.7248 30.5333C25.5908 30.4082 25.3928 30.3473 25.3258 30.1529C25.0734 29.417 24.6702 28.7492 24.355 28.0422Z" fill="#519D45"/>
<path d="M18.6074 0.00816911C18.6556 0.250045 18.4618 0.333771 18.31 0.440238C17.6816 0.874374 17.0658 1.31678 16.4311 1.73645C16.1117 1.94835 15.765 2.26671 15.432 1.73645C15.1178 1.23202 15.2005 0.75757 15.6592 0.481583C15.7242 0.442304 15.7828 0.39579 15.8436 0.352376C16.7369 0.00920139 17.669 -0.018706 18.6074 0.00816911Z" fill="#3875A7"/>
<path d="M29.3018 4.43127C27.8807 3.6674 26.5192 2.78879 25.053 2.10968C24.8299 2.00631 24.6026 1.91018 24.3764 1.81095C24.2958 1.77373 24.2015 1.79648 24.123 1.7541C24.123 1.83679 24.2183 1.8771 24.2277 1.96083C25.5022 3.02343 26.7171 4.14392 27.7246 5.467L27.6607 5.52075C27.5822 5.55466 27.4943 5.56122 27.4115 5.53935C27.3587 5.52187 27.3102 5.49371 27.269 5.45666C26.2071 4.1036 24.9336 2.96761 23.5092 1.8616C23.7187 3.08545 23.2684 4.0757 22.7322 5.04423C22.5939 5.21065 22.5436 5.4577 22.2891 5.51868C22.2306 5.51846 22.1745 5.49542 22.1331 5.45459C22.0786 5.33882 22.0713 5.23236 22.1959 5.1538C22.9468 4.16149 23.326 3.06995 23.1134 1.82025C23.171 1.57217 23.4014 1.45847 23.5469 1.27861C23.8926 1.07188 24.168 1.31169 24.4413 1.4409C25.9652 2.16446 27.4691 2.92006 28.8651 3.86793C29.039 3.95166 29.1385 4.11394 29.3605 4.17803C29.7061 4.26072 29.3888 4.35065 29.3018 4.43127Z" fill="#DAEAF2"/>
<path d="M34.1109 14.1C34.1967 14.6169 34.3203 15.1337 34.2826 15.6702C34.2493 15.6869 34.2194 15.7097 34.1946 15.7374C33.4971 16.5157 33.2835 16.5074 32.587 15.6733C32.5693 15.6154 32.5629 15.5547 32.5682 15.4944C32.7221 14.7223 32.8593 13.944 33.0353 13.1801C33.0719 13.0199 33.0981 12.8245 33.3065 12.7904C33.515 12.7563 33.6029 12.9341 33.6993 13.0674C33.9264 13.3698 34.0684 13.726 34.1109 14.1Z" fill="#99CE8B"/>
<path d="M34.111 14.1001C33.8156 13.7187 33.7266 13.2081 33.293 12.8422C32.9725 13.7487 32.9788 14.6976 32.651 15.5648C32.5984 15.5367 32.5525 15.4978 32.5163 15.4508C32.4802 15.4037 32.4547 15.3495 32.4416 15.2919C32.4647 14.6944 32.5586 14.1015 32.7212 13.5254C32.9244 12.836 32.8406 12.2323 32.4259 11.6597C32.1047 11.2171 31.7603 10.7913 31.3943 10.3841C31.2581 10.2311 31.0874 10.0968 31.0801 9.86729C31.0829 9.83815 31.0937 9.8103 31.1112 9.78666C31.1287 9.76302 31.1523 9.74446 31.1796 9.73292C31.8823 10.197 32.2866 10.934 32.9076 11.5935C32.783 9.90864 32.1996 8.45325 31.4938 7.03404C31.9954 6.93067 32.0226 7.34413 32.163 7.63252C32.2991 8.23721 32.6762 8.74681 32.8479 9.33703C33.1275 10.0223 33.181 10.7573 33.2993 11.4736C33.4176 12.1899 33.7308 12.8081 34.1476 13.3869C34.3864 13.6422 34.1329 13.8676 34.111 14.1001Z" fill="#E4EFDD"/>
<path d="M27.7278 5.45967C27.937 5.4468 28.1467 5.44438 28.3562 5.45244C28.9636 5.50309 29.5406 5.46691 29.9878 4.98315L30.1146 5.22503C30.4068 5.90208 30.0402 6.45819 29.7658 7.02566C29.7063 7.16534 29.619 7.29186 29.5092 7.39778C29.2757 7.64276 28.9856 7.63035 28.817 7.39055C28.398 6.77655 27.9351 6.18323 27.6953 5.46691L27.7278 5.45967Z" fill="#99CE8B"/>
<path d="M8.59613 25.9023C8.78569 26.1856 9.17424 26.3623 9.08941 26.7933C9.15853 27.1169 9.16796 27.4135 8.73542 27.488C7.89144 26.8636 7.14022 26.1256 6.50363 25.2956C6.43451 25.0186 6.25438 24.7591 6.3612 24.4531C6.40938 24.3818 6.48478 24.3498 6.5539 24.3911C7.26292 24.8583 8.04106 25.2346 8.59613 25.9023Z" fill="#519769"/>
<path d="M8.59568 25.9025L6.41102 24.4161C5.84758 24.2992 5.59099 23.7679 5.14065 23.4982C5.01183 23.3586 4.82123 23.2098 5.19511 23.1467L6.29268 24.0057C6.99541 24.2073 7.42062 24.8233 7.94636 25.0859C7.54943 24.7644 7.26876 24.2197 6.97342 23.7028C5.9921 21.9839 5.32184 20.1367 4.80238 18.2348C4.75555 18.0702 4.73993 17.8985 4.75629 17.7283C4.76325 17.6715 4.78416 17.6172 4.81719 17.5702C4.85023 17.5232 4.8944 17.4848 4.94586 17.4585C5.26004 17.5825 5.22025 17.8895 5.28727 18.1283C5.93555 20.4334 6.74825 22.663 8.17048 24.6404C8.36632 24.9132 8.66481 25.1241 8.74231 25.4756L8.70774 25.5551C8.57578 25.6368 8.61034 25.7805 8.59568 25.9025Z" fill="#DDEAE2"/>
<path d="M28.8677 3.86067C28.7473 4.03432 28.6824 3.86067 28.609 3.81312C27.185 2.94668 25.7095 2.16555 24.1905 1.47395C23.9873 1.38299 23.7925 1.24861 23.5496 1.26722C23.3914 1.2176 23.2354 1.17005 23.0751 1.11734C22.8604 1.04498 22.8458 0.865122 22.8992 0.703872C22.9693 0.489904 23.1264 0.654256 23.2259 0.684232C25.2179 1.2813 27.0654 2.27356 28.6551 3.60019C28.7344 3.67995 28.8057 3.76719 28.8677 3.86067Z" fill="#3C75A5"/>
<path d="M32.5234 15.3229C32.5653 15.4046 32.6083 15.4862 32.6502 15.5689C32.6502 15.5958 32.6502 15.6237 32.6564 15.6516C32.7936 16.2067 32.3601 16.6398 32.3192 17.2073C32.8125 17.044 33.179 16.7318 33.5571 16.4351C33.7299 16.3008 33.8462 16.0713 34.1216 16.1054C34.3384 16.3049 34.4861 16.5189 34.2588 16.801C34.2494 16.6718 34.24 16.5426 34.2242 16.339C33.6066 16.8929 32.917 17.3632 32.1736 17.7375C31.9568 17.8481 31.9726 18.1231 31.9191 18.3371C31.4255 17.7858 30.9329 17.2324 30.4414 16.677C30.6509 16.6233 30.8048 16.7277 30.9703 16.8259C31.4112 17.0884 31.4269 17.0719 31.452 16.5437C31.4761 16.0703 31.3662 15.6134 31.3201 15.1462C31.3002 14.9394 31.2206 14.7389 31.3379 14.5404C31.37 14.5094 31.4106 14.4883 31.4547 14.4797C31.4987 14.4711 31.5444 14.4753 31.5861 14.4919C31.6581 14.5422 31.7109 14.615 31.7359 14.6986C31.893 15.2981 31.9129 15.9183 31.9956 16.5344C32.1956 16.1871 32.2051 15.7736 32.4009 15.4253C32.4333 15.3824 32.4752 15.3474 32.5234 15.3229Z" fill="#DDE9EF"/>
<path d="M34.1458 13.3931C34.1081 13.4499 34.1248 13.6143 33.9897 13.4448C33.3184 12.6034 33.1048 11.5987 33.0074 10.5784C32.9655 10.1412 32.7193 9.76495 32.7371 9.32771C32.6869 9.19541 32.6649 9.07654 32.8723 9.08067C33.5203 10.4444 33.9499 11.8992 34.1458 13.3931Z" fill="#9ACF8D"/>
<path d="M2.99015 17.4502C3.00586 16.6316 2.72938 15.816 2.96397 14.9963C3.4782 14.9963 3.71907 15.3261 3.90654 15.7333C3.94755 16.1041 3.95351 16.4778 3.92435 16.8497C3.90235 17.1784 3.68347 17.3924 3.46354 17.6012C3.35881 17.6973 3.28759 17.8906 3.10536 17.8079C2.96711 17.7448 3.06032 17.5619 2.99015 17.4502Z" fill="#54986C"/>
<path d="M34.1219 16.1054C33.5368 16.7159 32.8286 17.1986 32.043 17.5225C32.2671 16.8413 32.4619 16.246 32.6567 15.6516C33.1877 16.3938 33.7344 16.1106 34.2821 15.6744L34.1219 16.1054Z" fill="#3A76A5"/>
<path d="M22.6311 0.913864L19.0619 0.219245C18.9404 0.195471 18.844 0.153091 18.8398 0.0125133C19.9919 -0.00195794 21.1198 0.183069 22.2415 0.418744C22.5022 0.472494 22.7808 0.535545 22.6311 0.913864Z" fill="#4176A4"/>
<path d="M15.7568 30.5219L15.2656 30.1642L15.2845 30.0774L18.485 30.5477C17.8011 31.2248 17.0272 30.8578 16.2784 30.7245C16.098 30.6746 15.9232 30.6067 15.7568 30.5219Z" fill="#2D557F"/>
<path d="M19.1878 30.5352L21.8878 29.854C21.6029 30.2458 21.2091 30.3956 20.897 30.6448C20.4432 30.815 19.965 30.9134 19.48 30.9362C19.0831 30.9631 19.0349 30.8453 19.1878 30.5352Z" fill="#2B537B"/>
<path d="M21.7148 30.6645L21.3105 30.6418C21.9452 30.1828 22.383 29.543 23.203 29.512C23.4125 29.7125 23.4921 29.9358 23.3245 30.2004C22.8155 30.4485 22.2468 30.496 21.7148 30.6645Z" fill="#29537C"/>
<path d="M10.5389 3.73761C10.1545 3.71797 9.77748 3.67559 9.48633 3.38203C9.62457 2.95513 9.95447 2.70809 10.3325 2.50549L10.7871 2.13647C10.8258 2.13647 10.8918 2.15405 10.8918 2.16438C10.8007 2.69465 10.9546 3.27867 10.5389 3.73761Z" fill="#3B75A5"/>
<path d="M23.3244 30.2004C23.2846 29.9709 23.2441 29.7415 23.2029 29.512L23.1914 29.4954C23.4846 29.2122 23.8145 29.0396 24.2387 29.1533C24.3308 29.2203 24.4022 29.3113 24.4447 29.4161C24.4873 29.5209 24.4993 29.6354 24.4796 29.7466C24.1391 29.991 23.7419 30.147 23.3244 30.2004Z" fill="#1A3C61"/>
<path d="M3.79297 9.50756C3.98043 8.7933 4.44858 8.20515 4.70307 7.5219C4.73095 7.51557 4.75992 7.51549 4.78784 7.52165C4.81577 7.52781 4.84194 7.54006 4.86443 7.55751C4.88693 7.57496 4.90519 7.59715 4.91786 7.62247C4.93053 7.64779 4.9373 7.67559 4.93766 7.70383C5.08324 8.18758 4.70726 8.50698 4.5355 8.8822C4.39412 9.19229 4.37108 9.39903 4.71773 9.54581C4.51665 9.82179 4.31662 10.0978 3.90189 9.98304C3.86733 9.82386 4.23388 9.57578 3.79297 9.50756Z" fill="#7AABA9"/>
<path d="M5.14453 23.498C5.6975 23.6293 5.98237 24.1182 6.4149 24.4159C6.43166 24.7105 6.57933 24.9917 6.50288 25.2956C5.94781 24.7715 5.59068 24.1017 5.14453 23.498Z" fill="#385D7D"/>
<path d="M29.4004 7.37201C29.8612 6.72907 30.1408 6.02825 30.1094 5.2251C30.234 5.23854 30.3859 5.18582 30.4425 5.36154C30.2916 6.04169 30.1848 6.73837 29.7366 7.31412C29.6746 7.38183 29.6077 7.44504 29.5365 7.50328C29.5025 7.49879 29.4709 7.48359 29.4464 7.45994C29.4219 7.43628 29.4057 7.40544 29.4004 7.37201Z" fill="#D8E9D0"/>
<path d="M10.5391 3.7378C10.5914 3.19926 10.8354 2.68967 10.7873 2.13666C10.8993 1.91443 11.0617 1.92993 11.2418 2.04467C11.0816 2.39818 10.8449 2.72998 10.9046 3.14861C11.0826 3.44424 11.1905 3.7471 11.002 4.07891C10.7045 4.1523 10.6417 3.92076 10.5391 3.7378Z" fill="#D8E3E7"/>
<path d="M8.73438 27.4881C8.90299 27.2813 9.13863 27.1077 9.08731 26.7935C9.33552 27.1718 9.26117 27.7237 9.75025 27.9739L9.86755 28.1145C9.31772 28.2096 9.09779 27.7238 8.73438 27.4881Z" fill="#33597B"/>
<path d="M32.8714 9.08063C32.7667 9.13231 32.7541 9.23051 32.7363 9.32767C32.5331 8.76846 32.1257 8.27644 32.1603 7.63867C32.42 8.10485 32.7195 8.55966 32.8714 9.08063Z" fill="#ADD4A5"/>
<path d="M10.3329 2.50551L9.48772 3.38205H9.24475C9.18924 3.06575 9.50553 3.00373 9.64167 2.81871C9.79353 2.54272 9.97157 2.31635 10.3329 2.50551Z" fill="#C3D5E1"/>
<path d="M2.99008 17.4502C3.03616 17.5484 3.08329 17.6466 3.14299 17.7717L3.80069 16.9561C3.80304 16.9216 3.8124 16.8879 3.82822 16.857C3.84403 16.8261 3.86597 16.7987 3.89273 16.7763C3.9195 16.7539 3.95054 16.7371 3.98403 16.7268C4.01751 16.7165 4.05274 16.7129 4.08765 16.7163C4.14213 16.7232 4.194 16.7434 4.23846 16.7753C4.31386 17.105 4.00282 17.2104 3.86038 17.4141C3.68444 17.5846 3.57238 17.8203 3.33674 17.9309L3.20582 18.058C3.00579 17.8968 2.91258 17.7024 2.99008 17.4502Z" fill="#D3E0E3"/>
<path d="M3.79221 15.6641C3.58275 15.3602 3.26856 15.1803 2.96484 14.9953C3.04549 14.9136 3.12613 14.8309 3.20782 14.7493L4.12944 15.662C4.12357 15.6964 4.10869 15.7287 4.08628 15.7557C4.06387 15.7828 4.03471 15.8035 4.00167 15.816C3.88332 15.8263 3.8341 15.754 3.79221 15.6641Z" fill="#C0D0D9"/>
<path d="M3.89844 9.983C4.22415 9.95922 4.43989 9.72562 4.69857 9.56953C4.71626 9.53127 4.74669 9.50015 4.7848 9.48134C4.82292 9.46253 4.86641 9.45718 4.90803 9.46617C5.12587 9.56023 5.07351 9.65636 4.90803 9.75249L3.99374 10.2114L3.89844 9.983Z" fill="#CEE2D4"/>
<path d="M18.3711 30.9364C18.5219 30.7597 18.679 30.6398 18.8947 30.7059C18.9157 30.7121 18.9345 30.8145 18.9146 30.8486C18.7754 31.0812 18.5596 30.9489 18.3711 30.9364Z" fill="#58738C"/>
<path d="M9.64154 2.81567L9.24462 3.37902C9.08543 3.40693 9.06448 3.29116 9.03516 3.18262C9.23833 3.06272 9.38391 2.84978 9.64154 2.81567Z" fill="#60849C"/>
<path d="M22.0722 15.9132C22.2324 15.6868 22.1769 15.4594 22.091 15.2216C21.737 14.2417 21.3904 13.2577 21.0437 12.2767C21.4176 11.8405 21.7768 11.4395 22.4681 11.5067C22.8089 11.5217 23.135 11.6483 23.3949 11.8664C24.6454 12.9507 25.9262 14.0019 27.1013 15.1741C27.2909 15.3622 27.5087 15.5173 27.7066 15.6909C27.8114 15.7819 27.8931 15.8925 27.8491 16.0393C27.7978 16.2057 27.6511 16.186 27.5171 16.185C24.7616 16.1664 22.3172 18.4156 21.6878 20.9161C21.6082 21.2344 21.6428 21.5549 21.626 21.8743C21.6145 22.081 21.6784 22.3384 21.4721 22.4479C21.2448 22.5699 21.0982 22.3291 20.9484 22.204C19.9147 21.3626 18.9732 20.4189 17.949 19.5651C17.7008 19.3583 17.4714 19.1103 17.1939 18.9583C16.5864 18.6275 16.5257 18.0528 16.5362 17.5112C16.5466 17.0202 17.0033 16.7235 17.3426 16.3979C17.3951 16.3743 17.4509 16.3583 17.5081 16.3504C18.6465 16.4538 19.7503 16.7556 20.8793 16.9189C21.2626 16.9747 21.3611 16.8476 21.3307 16.5168C21.5883 16.3318 21.9549 16.2708 22.0722 15.9132Z" fill="#68B953"/>
<path d="M21.0211 12.039C20.9649 11.9969 20.9187 11.9432 20.8857 11.8816C20.8528 11.82 20.834 11.752 20.8305 11.6824C21.1363 11.2689 21.506 10.9123 21.8496 10.533C22.1313 10.2229 22.3732 10.2415 22.6759 10.4926C24.0038 11.5739 25.3245 12.6633 26.6032 13.8004C29.7514 16.6057 32.6346 19.6478 35.1136 23.0547C35.3492 23.3782 35.388 23.6304 35.1408 23.9623C33.2557 26.4947 31.2543 28.9238 28.8382 30.986C28.3669 31.3901 28.2642 31.3922 27.8956 30.8826C25.7549 27.9418 23.2823 25.2895 20.6452 22.7828C19.0923 21.299 17.4559 19.9027 15.7438 18.6007C15.6437 18.5115 15.5388 18.4276 15.4296 18.3495C15.039 18.1169 15.0955 17.8513 15.3699 17.5701C15.7281 17.2021 16.0727 16.8217 16.4068 16.4331C16.4585 16.3644 16.528 16.3107 16.6079 16.2776C16.6879 16.2445 16.7754 16.2332 16.8613 16.245C17.0645 16.2729 17.1975 16.3545 17.0707 16.583C17.0256 16.6878 16.9564 16.7809 16.8686 16.8548C16.2926 17.23 16.5869 17.7975 16.5314 18.2864C16.5167 18.4136 16.6256 18.4932 16.7136 18.5583C18.3118 19.8225 19.8157 21.1931 21.2987 22.5896C21.3926 22.6854 21.5076 22.7587 21.6349 22.8035C21.3741 20.8892 22.0538 19.3211 23.387 17.9929C24.7202 16.6646 26.2849 15.9979 28.2611 16.2811C27.5542 15.4604 26.7446 14.8226 25.9906 14.1373C25.1569 13.3817 24.3191 12.6406 23.4551 11.9294C22.7052 11.3092 22.1407 11.2772 21.3709 11.917C21.2694 11.9966 21.1772 12.1041 21.0211 12.039Z" fill="#68B854"/>
<path d="M21.0229 12.0391C21.4565 11.6959 21.8031 11.268 22.4891 11.3155C22.7622 11.3158 23.0267 11.4093 23.2379 11.5802C24.2245 12.4164 25.2215 13.2412 26.1609 14.1271C26.9569 14.8775 27.8471 15.537 28.6472 16.5045C26.5097 16.0249 24.8497 16.704 23.4589 18.1046C22.0869 19.4866 21.3842 21.1074 21.8691 23.2212C21.5067 22.9256 21.2407 22.7426 21.0198 22.5235C19.631 21.1694 18.1617 19.9042 16.6525 18.6845C16.4431 18.5181 16.4535 18.3248 16.3876 18.1025C16.1572 17.3376 16.6462 16.9169 17.0945 16.4135C16.795 16.3288 16.5907 16.3288 16.441 16.5614C16.4003 16.6255 16.3556 16.6869 16.3069 16.7453C15.9498 17.1764 15.1915 17.5258 15.3036 18.0198C15.4021 18.4571 16.0964 18.7734 16.5467 19.1207C18.9953 21.0071 21.2449 23.1127 23.3667 25.3423C25.0257 27.085 26.6134 28.896 27.9906 30.8765C28.2199 31.2083 28.398 31.2486 28.7478 30.9478C31.1262 28.8991 33.1139 26.5176 34.9844 24.0223C35.3195 23.5768 35.1635 23.3122 34.9038 22.9514C32.7442 19.9538 30.1983 17.2932 27.5088 14.7618C25.9326 13.2785 24.2569 11.9047 22.5718 10.5424C22.3058 10.3274 22.1749 10.3811 21.9602 10.5847C21.579 10.9476 21.2753 11.3879 20.8312 11.6877L20.803 11.4675C21.1821 11.0716 21.5696 10.6829 21.9382 10.2777C22.1194 10.0793 22.2378 10.0173 22.4881 10.2271C23.5176 11.0954 24.5994 11.9037 25.6122 12.7895C27.0993 14.0899 28.5687 15.4119 29.9511 16.8208C31.8831 18.8045 33.674 20.9175 35.3112 23.1447C35.5007 23.4011 35.5363 23.6088 35.3206 23.8983C34.201 25.4002 33.0553 26.8804 31.7839 28.2624C30.8819 29.2625 29.9209 30.2093 28.9059 31.0977C28.3016 31.6145 28.3152 31.6331 27.8691 31.0191C25.4676 27.7114 22.6326 24.7738 19.6394 21.9912C18.2111 20.6588 16.7012 19.4144 15.1182 18.2648C14.8208 18.0498 14.8878 17.9227 15.1036 17.7035C15.5403 17.2611 15.9466 16.7888 16.3603 16.3308C16.2315 16.1861 16.0849 16.2564 15.9645 16.2202C15.9906 15.8171 16.2944 15.6435 16.6002 15.4698C16.95 15.4698 17.3008 15.4626 17.6024 15.6827C17.7888 16.0301 17.4024 16.2078 17.3553 16.4859C17.1626 16.7195 16.9709 16.9541 16.7761 17.1867C16.6515 17.3376 16.662 18.3444 16.8128 18.4602C18.4088 19.6892 19.8332 21.1126 21.469 22.4915C21.336 20.6381 22.022 19.191 23.2432 17.9496C24.4643 16.7081 25.9389 16.0197 27.7465 16.0445C27.735 15.7344 27.4156 15.6827 27.2449 15.5122C26.0457 14.3173 24.745 13.2381 23.4673 12.1259C22.6703 11.4344 22.0388 11.4447 21.3318 12.22C21.317 12.2433 21.2975 12.2635 21.2746 12.2793C21.2517 12.2951 21.2258 12.3062 21.1985 12.312C21.1711 12.3178 21.1429 12.3181 21.1155 12.313C21.088 12.3078 21.0619 12.2973 21.0386 12.282L21.0229 12.0391Z" fill="#448D41"/>
<path d="M16.0363 2.84979L17.1474 4.35894C17.2113 4.58738 17.0249 4.69591 16.9107 4.83959C16.2572 5.65411 15.4833 6.23089 14.3543 6.11719L12.9624 5.21067C12.9493 5.17519 12.9459 5.13693 12.9525 5.09973C12.9591 5.06253 12.9756 5.02771 13.0001 4.99877C13.6139 4.36204 14.1773 3.67362 14.9261 3.17643L15.3733 2.84359C15.5943 2.71542 15.8163 2.68544 16.0363 2.84979Z" fill="#98CF8A"/>
<path d="M17.5814 15.7798C17.2463 15.6248 16.8829 15.6093 16.5226 15.5731C16.2566 15.7126 15.999 15.5824 15.7329 15.5597C15.2219 15.4563 14.715 15.3343 14.1966 15.2671C14.1086 15.2806 14.0227 15.3023 13.9337 15.3105C13.5535 15.2909 13.2111 15.1286 12.8571 15.0149C12.709 14.9792 12.5785 14.8928 12.4888 14.7711C12.399 14.6495 12.3559 14.5004 12.3669 14.3503C12.3629 14.2584 12.3678 14.1663 12.3816 14.0753C12.4308 13.8913 12.4811 13.7084 12.7356 13.728C12.7806 14.1911 13.1095 14.3017 13.498 14.2976C14.2793 14.2893 15.0135 14.5136 15.757 14.7028C16.2482 14.8278 16.7666 14.863 17.2599 14.9281C18.2831 15.0635 19.2728 15.3602 20.3023 15.4635C20.8008 15.5131 21.2889 15.7095 21.8094 15.6703C21.9727 15.6579 22.045 15.7654 22.0722 15.9101C22.0722 16.3887 21.8921 16.6336 21.3726 16.4641C21.0501 16.5881 20.7369 16.4796 20.4248 16.4186C19.587 16.2574 18.7439 16.1447 17.9113 15.9514C17.7865 15.9279 17.6717 15.8681 17.5814 15.7798Z" fill="#F0DF7C"/>
<path d="M14.3535 6.11714C14.4582 5.7781 14.7442 5.93108 14.9306 5.94658C15.427 5.9869 15.8124 5.84322 16.1172 5.45456C16.4219 5.06591 16.8733 4.78786 17.1467 4.35889L19.5837 6.78385C19.723 6.92236 19.5984 7.01849 19.5251 7.12082C19.4203 7.30481 19.3324 7.18181 19.2392 7.11462L18.9323 7.05984C18.9041 7.08534 18.8711 7.10505 18.8351 7.11783C18.7992 7.13061 18.761 7.13619 18.7228 7.13426C17.4347 6.89962 16.1046 6.89548 14.8656 6.38899C14.6373 6.40346 14.5672 6.12747 14.3535 6.11714Z" fill="#3775A7"/>
<path d="M21.8338 9.78457C21.4882 10.1567 21.1908 10.5939 20.6263 10.6797C20.1027 10.597 20.3823 10.074 20.1571 9.79594C20.0335 9.64503 19.932 9.32046 19.8984 9.05171C20.3058 8.91423 20.5006 8.47803 20.9143 8.34985C21.4296 8.6982 21.528 9.30599 21.8338 9.78457Z" fill="#99CE8B"/>
<path d="M18.7375 7.22108C18.5385 7.67072 18.1008 7.91776 17.8107 8.28988C17.6515 8.49661 17.5624 8.34156 17.4462 8.25784C16.8775 7.84437 16.3078 7.44021 15.7381 7.03088C15.627 6.79417 15.7852 6.74456 15.9664 6.71045C16.8461 6.76833 17.7038 6.9823 18.5762 7.08567C18.614 7.08914 18.6497 7.104 18.6785 7.12823C18.7074 7.15246 18.728 7.18488 18.7375 7.22108Z" fill="#3A75A5"/>
<path d="M12.3301 4.85608L12.8181 3.52576C13.0368 3.52752 13.253 3.48101 13.4511 3.38961C13.6491 3.29822 13.824 3.16427 13.9628 2.99756C14.2278 2.68746 14.5912 2.57066 14.9693 2.86215L14.8174 3.06888C14.1964 3.78727 13.613 4.54495 12.7511 5.01423C12.6097 4.96771 12.4013 5.08245 12.3301 4.85608Z" fill="#99CE8D"/>
<path d="M12.755 13.423L12.7477 13.455C12.5885 13.7651 12.1654 13.5336 11.9905 13.8106C11.8984 13.9367 11.758 14.0029 11.6386 14.0949C11.5719 14.1389 11.497 14.1694 11.4183 14.1847C11.3395 14.2 11.2585 14.1996 11.1799 14.1838C11.0538 14.1454 10.9389 14.0777 10.8448 13.9863C10.7631 13.9264 10.6772 13.8706 10.5997 13.8054C10.5715 13.7807 10.5506 13.749 10.5391 13.7135C10.5277 13.678 10.5262 13.6401 10.5348 13.6039C10.6306 13.4386 10.6622 13.2447 10.6238 13.0581C10.6262 13.0225 10.639 12.9884 10.6608 12.9599C10.6826 12.9315 10.7123 12.9099 10.7463 12.8979C10.8115 12.9129 10.88 12.9042 10.9392 12.8735C10.9984 12.8427 11.0445 12.7919 11.0689 12.7304C11.1579 12.6271 11.1736 12.4203 11.3946 12.4875C11.7088 12.7635 12.0282 13.0281 12.423 13.1863C12.492 13.2007 12.5572 13.2292 12.6144 13.27C12.6716 13.3108 12.7195 13.3629 12.755 13.423Z" fill="#EFF3F4"/>
<path d="M19.2392 7.11459L19.524 7.12182C19.877 7.2779 19.8906 7.05773 19.8812 6.81172C20.1063 6.7466 20.2121 6.56054 20.3242 6.38172C20.3224 6.33306 20.3324 6.28469 20.3531 6.24051C20.3738 6.19633 20.4048 6.1576 20.4436 6.12744H20.475C20.6562 6.27422 20.6666 6.49129 20.7159 6.69285C20.742 6.90992 21.007 6.84894 21.0897 7.00295C21.1295 7.06187 21.1641 7.12389 21.2081 7.18074C21.3212 7.31718 21.627 7.22829 21.6113 7.51564C21.4353 7.66449 21.1756 7.64795 21.0101 7.81644C20.9384 7.89015 20.8483 7.94408 20.749 7.97291C20.6496 8.00174 20.5443 8.00445 20.4436 7.98079C20.1514 7.88363 19.9555 8.23197 19.6665 8.14618C19.6556 8.11238 19.6386 8.08085 19.6162 8.05315C19.5649 7.7968 19.8885 7.43295 19.3984 7.30271C19.3156 7.26136 19.169 7.27791 19.2392 7.11459Z" fill="#F0F5EF"/>
<path d="M11.0015 4.07873C10.9156 3.77636 10.8831 3.46169 10.9051 3.14844C11.3021 2.8156 11.6571 3.16188 12.0153 3.24457C12.2174 3.29108 12.0415 3.46267 11.964 3.5464C11.7356 3.79654 11.4937 4.03428 11.256 4.27719C11.0926 4.3082 11.1125 4.11181 11.0015 4.07873Z" fill="#A7D2A5"/>
<path d="M18.7377 7.22126L15.9645 6.80262C15.7445 6.70546 15.4733 6.88945 15.2753 6.67755C15.1863 6.51527 14.8491 6.69822 14.8658 6.38916L18.9335 7.06001C18.9377 7.19645 18.8812 7.2595 18.7377 7.22126Z" fill="#CBDFEC"/>
<path d="M20.8995 8.35701C20.5801 8.60819 20.4597 9.13845 19.8994 9.05163C19.8826 8.92138 19.8669 8.79114 19.8502 8.65987C19.6491 8.17715 19.9109 7.98489 20.3403 7.896C20.6283 7.92907 20.8702 8.01693 20.8995 8.35701Z" fill="#3A77A4"/>
<path d="M12.754 13.4232C12.6247 13.424 12.4998 13.3776 12.4031 13.2929C12.0481 13.0965 12.0837 12.8939 12.3895 12.68C12.5633 12.5432 12.7636 12.443 12.9781 12.3854C13.2462 12.3637 13.3614 12.6107 13.5604 12.7099C13.4316 13.1017 13.0545 13.2206 12.754 13.4232Z" fill="#202E54"/>
<path d="M12.7506 5.01834C13.4384 4.36921 14.1271 3.72076 14.817 3.073L14.9217 3.17636L12.9622 5.2106C12.8166 5.22714 12.7423 5.16616 12.7506 5.01834Z" fill="#DFECD6"/>
<path d="M11.9245 13.7548C11.8481 13.5326 12.0292 13.5646 12.1444 13.5481C12.3455 13.5192 12.5634 13.5853 12.7477 13.4551L12.7351 13.7311C12.5812 13.8065 12.5508 13.9605 12.4963 14.099C12.2094 14.1414 12.0502 13.975 11.9245 13.7548Z" fill="#4F7796"/>
<path d="M19.3984 7.30273C20.0268 7.4061 20.0268 7.4061 19.6173 8.05317C19.3021 7.87125 19.4539 7.55701 19.3984 7.30273Z" fill="#B0D18D"/>
<path d="M20.4454 7.93342C19.9856 7.96753 19.862 8.26832 19.8505 8.65698C19.5772 8.56085 19.6411 8.34688 19.663 8.14015C19.9134 8.03678 20.082 7.72669 20.4244 7.84969C20.4719 7.85589 20.4908 7.86933 20.481 7.89001C20.4716 7.92102 20.46 7.93342 20.4454 7.93342Z" fill="#6B8D8F"/>
<path d="M11.7988 4.53056C11.8997 4.32285 12.0713 4.15673 12.2837 4.06128C12.2785 4.29179 12.2722 4.52332 12.267 4.75383C12.0586 4.78691 11.9936 4.52643 11.7988 4.53056Z" fill="#9ACB9E"/>
<path d="M15.2754 6.67749C15.5047 6.72297 15.7561 6.64751 15.9645 6.80256C15.8273 6.82013 15.7289 6.87388 15.7383 7.031C15.4922 7.031 15.4178 6.81393 15.2754 6.67749Z" fill="#738D98"/>
<path d="M11.1589 14.0939C11.3129 14.0835 11.4805 14.1311 11.6051 13.9905C12.0387 13.7838 12.2691 14.0587 12.4942 14.3502C12.4534 14.6272 12.5424 14.7999 12.8451 14.8733C13.2431 14.9694 13.6306 15.1048 14.0222 15.2226C14.0315 15.248 14.0348 15.2752 14.0319 15.3021C14.029 15.3289 14.02 15.3548 14.0055 15.3777C13.8264 15.5751 13.5782 15.6878 13.3771 15.8573C13.2944 15.9297 13.1582 15.9834 13.1771 16.1074C13.2022 16.2708 13.3729 16.2573 13.4913 16.2894C13.9311 16.4051 14.3919 16.4103 14.8318 16.5199C15.0036 16.5623 15.2696 16.5126 15.2717 16.8165C15.0559 17.2693 14.5721 17.506 14.3396 17.9453C14.1626 18.2481 14.195 18.5551 14.3249 18.8621L14.5951 19.102C14.5784 19.4482 14.5564 19.7883 14.8967 20.0322C15.0015 20.1036 14.9564 20.239 14.837 20.3093C14.2401 20.4736 13.6463 20.6566 13.0158 20.4995C12.8957 20.408 12.8003 20.2887 12.7383 20.1521C12.4492 19.6736 12.091 19.3366 11.4595 19.4286C11.3366 19.4541 11.2088 19.4442 11.0915 19.4C10.9741 19.3559 10.8721 19.2793 10.7976 19.1795C10.5002 18.7422 10.0781 18.4125 9.77545 17.9815C9.73069 17.898 9.70496 17.806 9.70007 17.7117C9.69519 17.6174 9.71126 17.5232 9.74718 17.4357C10.0561 16.4672 10.3923 15.509 10.7767 14.5673C10.8594 14.3823 10.9537 14.1921 11.1589 14.0939Z" fill="#3774A7"/>
<path d="M28.8232 14.9902C28.3467 14.8093 28.0409 14.4104 27.6712 14.0951C26.893 13.4304 26.1442 12.7338 25.3828 12.0505C25.498 11.7466 25.7954 11.6122 26.0112 11.3993C26.87 10.5372 27.7549 9.70204 28.4786 8.71179C28.9258 8.104 29.2767 8.14638 29.6149 8.81516C30.4287 10.441 31.027 12.1635 31.3953 13.94C31.4276 14.0493 31.4312 14.1649 31.4058 14.276C31.1964 14.4693 31.0613 14.276 30.9272 14.1643C30.7544 14.0186 30.5816 13.8729 30.4182 13.7168C30.3784 13.6837 30.3407 13.6485 30.302 13.6134C29.9312 13.4987 29.5689 13.4646 29.2013 13.6423C29.1698 13.6858 29.1384 13.7281 29.1101 13.7736C28.864 14.1478 29.1583 14.6419 28.8232 14.9902Z" fill="#99CF8A"/>
<path d="M20.9448 7.74206C21.0683 7.41645 21.3637 7.53533 21.5983 7.49812C22.0078 7.34307 22.4361 7.42473 22.8341 7.48571C23.9149 7.65316 25.0104 7.48571 26.088 7.67901C26.841 7.81235 27.6087 7.79271 28.3722 7.81648C28.8571 7.83095 28.988 8.07283 28.7293 8.42324C27.8486 9.6339 26.8252 10.737 25.6806 11.7092C25.6145 11.7777 25.5279 11.8233 25.4335 11.8395C25.1915 11.2782 24.8815 10.782 24.2228 10.6249C24.005 10.5722 23.7567 10.6249 23.5766 10.4461C23.1294 10.3427 22.8739 9.96752 22.5293 9.72255C22.3418 9.58921 22.1889 9.42072 21.9313 9.53959C21.769 9.57887 21.6904 9.47447 21.6171 9.36077C21.3459 8.95351 21.1699 8.49559 20.905 8.0842C20.8421 7.9891 20.7814 7.83715 20.9448 7.74206Z" fill="#99CF8A"/>
<path d="M30.4682 13.6206L31.3186 14.3079C31.4443 14.3503 31.439 14.4351 31.395 14.5333C31.4746 15.2775 31.6296 16.0145 31.6129 16.768C31.6129 16.951 31.681 17.1815 31.483 17.2849C31.2851 17.3882 31.1982 17.1546 31.0641 17.0781C30.8546 16.9562 30.6452 16.8166 30.442 16.6833C29.8974 16.1261 29.2533 15.6631 28.8281 14.9953C28.914 14.7379 28.8428 14.4785 28.8407 14.218C28.8407 13.9916 28.8145 13.7632 29.0617 13.6299C29.5131 13.4548 30.0144 13.4515 30.4682 13.6206Z" fill="#3775A8"/>
<path d="M31.395 14.5333L31.3196 14.308C30.9764 12.5008 30.3918 10.7466 29.5811 9.09113C29.1339 8.18254 29.0501 8.17841 28.4553 8.96916C27.6321 10.0628 26.6497 11.0075 25.6276 11.9141C25.5521 11.9674 25.4714 12.0131 25.3867 12.0505L25.2474 11.9895C25.2191 11.8551 25.2474 11.7611 25.4139 11.7776C26.6193 10.8401 27.5933 9.68341 28.5474 8.51125C28.6448 8.39134 28.8312 8.2487 28.7569 8.07711C28.6825 7.90552 28.4521 7.96754 28.2877 7.95721C26.2476 7.83627 24.2032 7.72153 22.1683 7.59853C21.9789 7.57572 21.791 7.5412 21.6059 7.49516C21.475 7.27809 21.1566 7.49516 21.0352 7.25535C21.6719 6.95042 22.3066 7.26259 22.9423 7.27396C24.5426 7.30083 26.1376 7.46932 27.7358 7.55098C28.4291 7.58716 28.4573 7.47552 28.1735 6.84292C27.9641 6.36951 27.475 6.03253 27.4792 5.45679L27.697 5.46402C28.0897 5.9178 28.3746 6.4367 28.6658 6.95663C28.8092 7.21297 28.9265 7.64711 29.4072 7.37009L29.5434 7.50136C29.2669 7.76805 29.3779 7.97375 29.6209 8.19908C30.1571 8.69627 30.7666 9.12007 31.1845 9.73407C31.1604 9.75474 31.1374 9.77748 31.1143 9.80022C30.486 9.78058 30.331 9.14281 29.9141 8.94228C30.752 10.5331 31.262 12.313 31.6945 14.1188C31.7301 14.2677 31.7448 14.4207 31.5982 14.5323L31.395 14.5333Z" fill="#E6F0E0"/>
<path d="M15.2767 16.8186C14.6483 16.5302 13.9404 16.5953 13.2868 16.3969C13.136 16.3504 12.9067 16.4041 12.8679 16.1788C12.8292 15.9534 13.0418 15.911 13.1821 15.8211C13.4481 15.6454 13.6639 15.388 14.0021 15.3291C14.6305 15.4883 15.0871 15.9317 15.593 16.2914C15.6131 16.3045 15.6299 16.3219 15.6422 16.3424C15.6545 16.3628 15.6619 16.3857 15.664 16.4094C15.666 16.4331 15.6625 16.4569 15.6539 16.4791C15.6452 16.5013 15.6315 16.5212 15.6139 16.5374C15.5134 16.6439 15.4579 16.8052 15.2767 16.8186Z" fill="#0E2A48"/>
<path d="M25.412 11.7776L25.2455 11.9895C24.7813 11.512 24.2745 11.0768 23.7311 10.6891C23.6264 10.6168 23.5478 10.5754 23.5793 10.4421C24.0338 10.4131 24.4506 10.4628 24.8559 10.7336C25.2612 11.0044 25.4895 11.2938 25.412 11.7776Z" fill="#3977A4"/>
<path d="M27.2366 30.8722C27.113 31.0127 26.9946 31.1575 26.8669 31.2939C26.7758 31.39 26.6448 31.4252 26.5914 31.2846C26.1348 30.0918 25.3609 29.0643 24.8184 27.918C25.2656 28.256 25.5064 28.7552 25.8332 29.1873C26.1266 29.526 26.3586 29.912 26.5192 30.3285C26.6532 30.6861 26.8658 30.8598 27.2376 30.867L27.2366 30.8722Z" fill="#357338"/>
<path d="M27.2333 30.8713C26.8385 31.0853 26.6154 31.0346 26.4709 30.5468C26.3264 30.0589 26.052 29.6382 25.832 29.1875C26.4238 29.6475 26.7945 30.2873 27.2333 30.8713Z" fill="#519D45"/>
<path d="M20.9445 7.74219C21.1585 8.39583 21.493 9.00487 21.931 9.53869C21.8996 9.62138 21.8671 9.70304 21.8347 9.7847C21.311 9.44566 21.2744 8.79342 20.8994 8.35825C20.7581 8.20837 20.6711 8.00164 20.4439 7.93341C20.4388 7.90701 20.4314 7.88107 20.4219 7.85589C20.5122 7.87461 20.6055 7.87415 20.6956 7.85455C20.7857 7.83495 20.8705 7.79664 20.9445 7.74219Z" fill="#DAE9D6"/>
<path d="M15.7178 15.4324C15.9923 15.4302 16.2648 15.479 16.5211 15.5761L15.965 16.2191C15.8864 16.2676 15.8089 16.3173 15.7314 16.3669C15.6848 16.3178 15.6473 16.2612 15.6204 16.1994C15.567 15.9338 15.5209 15.6681 15.7178 15.4324Z" fill="#264B3B"/>
<path d="M15.7194 16.2377C15.7194 16.2811 15.7288 16.3235 15.733 16.3669C15.7152 16.4382 15.7236 16.5271 15.6146 16.5374C15.1957 15.9793 14.4909 15.7963 14.0039 15.3291C14.0133 15.2952 14.0196 15.2607 14.0228 15.2257L14.1275 15.1482C14.7108 15.4314 15.2952 15.7198 15.7194 16.2377Z" fill="#294B68"/>
<path d="M14.3311 18.8644C13.976 18.5543 14.0075 18.2442 14.3457 17.9475C14.3531 18.0591 14.3604 18.1708 14.3688 18.2824L14.3311 18.8644Z" fill="#408376"/>
<path d="M20.5656 6.80658C20.5363 6.5802 20.5059 6.3528 20.4766 6.12539C20.7468 5.84734 21.0002 5.55378 21.2914 5.29847C21.549 5.069 21.8695 5.04419 22.1983 5.14962C22.1795 5.24678 22.1617 5.34498 22.1428 5.44214C21.9522 5.94657 21.5668 6.31352 21.2149 6.70011C21.0421 6.8872 20.8211 6.99677 20.5656 6.80658Z" fill="#97CB8D"/>
<path d="M3.65965 7.27795C3.05955 8.31161 2.48144 9.3556 2.08871 10.4885C2.01644 10.6952 1.98398 10.9206 1.92428 11.1366C1.40587 10.2197 0.80577 9.33803 0.772257 8.22788C0.7555 7.71105 1.01209 7.40819 1.47499 7.26451C2.18789 7.05122 2.9495 7.05591 3.65965 7.27795Z" fill="#DBB03D"/>
<path d="M9.54724 9.99146C10.1295 10.3305 10.7412 10.6292 11.2093 11.1285C11.3381 11.5016 11.314 11.8799 11.2397 12.2583C11.0176 12.5901 10.804 12.3327 10.6113 12.2324C10.006 11.9223 9.45926 11.4944 8.82041 11.2463C8.61095 11.143 8.4172 11.0137 8.3418 10.7739C8.71568 10.469 9.13984 10.2457 9.54724 9.99146Z" fill="#1A2953"/>
<path d="M9.54591 9.99134C9.23906 10.4048 8.86831 10.7149 8.31848 10.7283C8.22318 10.8234 8.15615 10.7387 8.08284 10.6932C7.99449 10.6158 7.89914 10.5466 7.79798 10.4865C7.53406 10.195 7.3644 9.83939 7.11828 9.5355C6.93186 9.23263 6.73078 8.92977 7.12666 8.63208C7.99382 8.97836 8.77406 9.47658 9.54591 9.99134Z" fill="#438140"/>
<path d="M12.9801 12.3852C12.8753 12.592 12.6512 12.6953 12.4638 12.7863C12.1255 12.9486 12.2836 13.1098 12.4051 13.2928C12.3004 13.1801 11.8155 13.6339 12.0333 13.0406C12.0825 12.9062 11.9286 12.9455 11.8469 12.9372C11.5851 12.9083 11.3913 12.7966 11.3473 12.5144C11.2353 12.0658 11.1096 11.6172 11.4332 11.1965C11.9621 11.5707 12.5591 11.8694 12.9801 12.3852Z" fill="#273B60"/>
<path d="M4.91749 9.52838L4.7007 9.57283C4.2179 9.61417 4.03672 9.49117 4.32053 9.00225C4.56036 8.58878 4.73317 8.13811 4.93634 7.70397C5.2453 7.65849 5.48827 7.81767 5.73962 7.95308C5.88939 8.41203 5.62756 8.79345 5.50084 9.20174C5.38459 9.44879 5.15314 9.49323 4.91749 9.52838Z" fill="#224527"/>
<path d="M5.4082 9.22738L5.74124 7.95288C5.91837 7.97646 6.08224 8.05841 6.20624 8.18545C6.4157 8.39735 6.78749 8.56274 6.44712 8.94623C6.11094 9.07544 5.81979 9.36899 5.4082 9.22738Z" fill="#438141"/>
<path d="M6.41731 8.85226C6.57336 8.55973 6.19214 8.43362 6.20785 8.18555C6.54997 8.2492 6.86836 8.40275 7.12947 8.63002C6.88231 8.9856 7.14518 9.26158 7.27609 9.56031C7.01636 9.70709 6.80376 9.428 6.55451 9.48382C6.37437 9.46935 6.31468 9.31533 6.21937 9.20163C6.18923 9.16144 6.16654 9.11629 6.15234 9.06829C6.15234 8.8905 6.35028 8.95046 6.41731 8.85226Z" fill="#70ADB0"/>
<path d="M11.4385 11.1957C11.2824 11.6267 11.4102 12.0753 11.3526 12.5136C11.1641 12.5518 11.2835 12.7689 11.1567 12.8433C11.1208 12.8146 11.0914 12.7787 11.0705 12.738C11.0496 12.6973 11.0377 12.6526 11.0355 12.6071C11.0333 12.5615 11.041 12.5159 11.0579 12.4735C11.0748 12.431 11.1006 12.3925 11.1337 12.3606C11.1892 11.9523 11.0677 11.5337 11.2143 11.1305C11.2533 11.1124 11.2976 11.1091 11.3389 11.1211C11.3802 11.1331 11.4156 11.1596 11.4385 11.1957Z" fill="#6595AA"/>
<path d="M19.9749 24.197C19.5675 24.5598 19.6398 25.089 19.5225 25.5407C19.1654 26.931 19.2272 26.9796 17.9149 26.2198C16.0717 25.1521 14.2096 24.1174 12.3569 23.0641C12.1981 22.9626 12.0447 22.8532 11.8971 22.7364C11.7222 22.3343 11.7976 21.9911 12.2584 21.9095C12.7465 21.8216 12.8973 21.5808 12.8334 21.1311C12.8204 20.9978 12.8536 20.8641 12.9277 20.7518C13.1675 20.4128 13.5665 20.5626 13.8839 20.4799C14.2341 20.3931 14.5917 20.3377 14.9521 20.3146C15.041 20.2975 15.1324 20.2975 15.2213 20.3146C16.0182 20.728 16.6487 21.3668 17.3546 21.9043C18.2574 22.5927 19.0544 23.4093 20.0011 24.0461C20.0116 24.0711 20.0147 24.0985 20.0101 24.1253C20.0055 24.152 19.9933 24.1768 19.9749 24.197Z" fill="#3774A7"/>
<path d="M10.9854 25.6586C10.8094 25.383 10.6331 25.1073 10.4565 24.8317C10.4399 24.8116 10.4299 24.7869 10.4281 24.761C10.4262 24.7351 10.4325 24.7092 10.446 24.687C10.9424 24.1557 11.4619 23.645 11.9897 23.1365L18.9605 27.0303C18.0128 27.4247 17.0877 27.8702 16.1894 28.3647C14.7776 28.0939 13.5429 27.4189 12.3196 26.7109C11.8197 26.4343 11.369 26.0788 10.9854 25.6586Z" fill="#3774A7"/>
<path d="M10.9844 25.6584C12.5291 26.7624 14.1776 27.6679 16.0041 28.2364C16.0713 28.2692 16.1333 28.3113 16.1884 28.3615C15.6972 28.716 15.1484 29.0106 14.8081 29.5326C14.629 29.8065 14.5002 29.6225 14.3598 29.5202C12.9585 28.4959 11.8055 27.1768 10.9844 25.6584Z" fill="#23527E"/>
<path d="M22.0588 28.9259C21.4867 28.2643 20.798 27.7103 20.026 27.2906C19.9213 27.2317 19.7401 27.21 19.7736 27.0333C19.7977 26.9051 19.9537 26.9123 20.048 26.8555C20.5769 26.5454 21.2639 26.5226 21.6881 26.0099C21.7101 25.9884 21.7389 25.9749 21.7698 25.9717C21.8006 25.9685 21.8316 25.9758 21.8577 25.9924C22.254 26.6108 22.5937 27.2628 22.8726 27.9408C22.9857 28.2282 23.2506 28.5372 22.9773 28.8267C22.7354 29.0882 22.3772 28.991 22.0588 28.9259Z" fill="#3775A7"/>
<path d="M10.33 24.9773C11.1013 26.4338 12.0703 27.7796 13.2101 28.9776C11.7365 28.1693 10.2075 27.455 9.27539 25.98C9.4461 25.5241 9.82313 25.2461 10.1803 24.9463L10.2598 24.937L10.33 24.9773Z" fill="#24527E"/>
<path d="M11.9903 23.1456C11.6311 23.8144 11.0164 24.2454 10.4697 24.7406C10.433 24.7282 10.388 24.7199 10.3649 24.6909C9.78369 23.8165 9.3166 22.8862 9.18359 21.8215C9.19901 21.7648 9.2265 21.7119 9.26423 21.6665C9.48207 21.5393 9.67163 21.6561 9.85281 21.7502C10.5063 22.0903 11.1515 22.4458 11.7128 22.9286L11.9903 23.1456Z" fill="#98CE8B"/>
<path d="M13.009 20.8066C12.9978 20.9371 13.0002 21.0684 13.0163 21.1984C13.1452 21.7803 12.8938 22.0253 12.3136 22.0253C11.7732 22.0253 12.0371 22.4997 11.8999 22.7385L11.6004 22.6837C10.8558 22.3312 10.085 22.0222 9.49219 21.4206C9.53094 21.2521 9.66604 21.1849 9.80638 21.1229C10.8223 20.9461 11.8277 20.697 12.8676 20.6836C12.8983 20.6938 12.9266 20.71 12.9508 20.7311C12.9751 20.7522 12.9949 20.7779 13.009 20.8066Z" fill="#97CC8B"/>
<path d="M19.1871 29.8923L19.1819 29.9078C19.3976 29.578 19.2353 29.1677 19.4154 28.8297C20.1904 28.7573 20.9654 28.6736 21.7268 28.9206C21.8315 29.0519 21.9457 29.176 22.041 29.3145C22.1457 29.4788 22.107 29.5739 21.8975 29.6246C21.0921 29.8313 20.2899 30.0494 19.4887 30.2727C19.0415 30.3977 19.2133 30.0732 19.1871 29.8923Z" fill="#26537F"/>
<path d="M22.0589 28.9258C22.0725 28.9134 22.0861 28.8938 22.1018 28.8907C22.9994 28.7036 22.9669 28.7139 22.6642 27.8188C22.4474 27.1779 21.9154 26.6921 21.8086 26.0078C21.883 25.8548 21.9804 25.7669 22.1542 25.8827C22.8391 26.6218 23.4895 27.3846 23.8006 28.3635C23.7513 28.777 23.4026 28.8865 23.0884 29.0292C23.0193 29.06 22.9533 29.0974 22.8915 29.1408C22.5071 29.4612 22.2254 29.4302 22.0589 28.9258Z" fill="#23537F"/>
<path d="M21.4922 25.9872C20.9748 26.2174 20.4571 26.4479 19.939 26.6787C19.6028 26.8276 19.4531 26.7066 19.5327 26.3686C19.6761 25.7484 19.8469 25.1396 20.0081 24.5246C20.0524 24.4867 20.1098 24.4671 20.1684 24.47C20.2269 24.4729 20.2821 24.498 20.3223 24.5401C20.7457 24.8788 21.1325 25.2598 21.4764 25.6771C21.5167 25.7181 21.5405 25.7722 21.5434 25.8292C21.5462 25.8863 21.528 25.9424 21.4922 25.9872Z" fill="#3875A7"/>
<path d="M19.0885 29.2948C19.0885 28.994 19.0026 28.8276 18.6392 28.809C18.1879 28.7726 17.7402 28.7 17.3008 28.5919C17.1091 28.5516 16.8819 28.5485 16.7656 28.3314C17.3416 27.9232 18.0088 27.6978 18.6508 27.4146C18.9136 27.2978 19.1744 27.3205 19.1744 27.6792C19.1681 28.2157 19.254 28.7614 19.0885 29.2948Z" fill="#3875A7"/>
<path d="M21.7259 28.9206C20.9551 28.9206 20.1769 29.0571 19.4145 28.8297C19.4093 28.4513 19.4082 28.0741 19.3988 27.6926C19.3894 27.3112 19.5695 27.2637 19.8627 27.4384C20.5498 27.8477 21.241 28.2612 21.7259 28.9206Z" fill="#3775A6"/>
<path d="M21.4926 25.9872C21.1072 25.3898 20.6401 24.875 20.0086 24.5205C19.9981 24.4171 19.9866 24.3137 19.975 24.2021C19.975 24.1597 19.9813 24.1163 19.9855 24.0729C19.8546 23.893 19.9436 23.769 20.0902 23.6594C20.661 23.9302 21.0506 24.4233 21.4025 24.8936C21.6486 25.2233 22.0445 25.4559 22.1503 25.888L21.8068 26.0079H21.6853L21.4926 25.9872Z" fill="#25547D"/>
<path d="M10.1964 24.9835L9.27476 25.9769C9.11557 25.9283 9.08729 25.7888 9.05063 25.6565C8.65685 25.0993 8.63171 24.4791 8.73644 23.8383C8.80766 23.678 8.93962 23.6532 9.05692 23.7545C9.47898 24.1266 9.95864 24.444 10.1964 24.9835Z" fill="#509669"/>
<path d="M8.83567 23.7255C8.77806 24.3829 8.9205 25.0196 9.05141 25.6564C8.92888 25.6502 8.79692 25.6719 8.71209 25.553L8.72989 25.5261C8.39895 24.8026 8.43455 24.0273 8.43874 23.2593C8.49844 22.7425 8.2984 22.206 8.6105 21.7202C8.88698 21.559 9.04303 21.6768 9.13415 21.9404C9.13807 22.0039 9.13026 22.0677 9.11111 22.1285C8.96867 22.4221 8.99695 22.7373 8.98648 23.0485C8.98019 23.281 9.02942 23.5301 8.83567 23.7255Z" fill="#DDEAE2"/>
<path d="M9.28467 21.7947C9.47737 22.8562 10.0084 23.7844 10.4692 24.7406C10.4692 24.7727 10.465 24.8047 10.4566 24.8357L10.3299 24.9773L10.2859 24.9535C9.59798 24.1163 9.17217 23.0995 9.06055 22.0272L9.0794 21.9931C9.15481 21.9342 9.09825 21.743 9.28467 21.7947Z" fill="#DEECDA"/>
<path d="M9.52201 21.4578C10.2111 21.8712 10.9715 22.1669 11.5988 22.6837L11.7119 22.9287C11.117 22.7271 10.6468 22.3085 10.0917 22.0304C9.84248 21.9074 9.62255 21.7027 9.31569 21.7203C9.22144 21.5032 9.37853 21.4867 9.52201 21.4578Z" fill="#E0EDD9"/>
<path d="M23.9848 28.5134L24.2121 28.9269C23.9283 29.2018 23.5753 29.2918 23.191 29.2938L23.125 29.1905C23.3355 28.8731 23.6015 28.6209 23.9848 28.5134Z" fill="#1F4665"/>
<path d="M23.1914 29.2949L24.2136 28.928C24.2219 29.0024 24.2314 29.0758 24.2408 29.1502L23.1935 29.4924C23.1914 29.4293 23.1914 29.3642 23.1914 29.2949Z" fill="#6C9CB0"/>
<path d="M23.9844 28.5136L23.1245 29.1937C23.112 29.139 23.1005 29.0904 23.0879 29.0315L23.7959 28.3647C23.8933 28.3782 23.9948 28.3772 23.9844 28.5136Z" fill="#669AB4"/>
<path d="M20.094 23.6542C20.0573 23.7916 20.0217 23.9301 19.9893 24.0676C19.518 24.0997 19.2918 23.7007 19.0121 23.4598C17.7983 22.4127 16.5437 21.4163 15.2754 20.4353C15.4126 20.0332 15.7268 20.2048 15.9928 20.2193C16.3897 20.3558 16.6777 20.6576 16.9888 20.9088C17.9837 21.714 18.9462 22.5626 19.9296 23.3792C20.0185 23.4463 20.0775 23.5449 20.094 23.6542Z" fill="#24537E"/>
<path d="M14.9329 20.1895C14.8805 20.1357 14.8376 20.0582 14.7737 20.0323C14.2123 19.8111 14.3715 19.4649 14.5998 19.1021C15.0868 19.3088 15.3937 19.7512 15.8283 20.0323C15.6974 20.3424 15.3539 20.1357 15.1591 20.2939C15.1153 20.2986 15.071 20.2914 15.0311 20.273C14.9912 20.2546 14.9572 20.2257 14.9329 20.1895Z" fill="#24537F"/>
<path d="M24.3542 28.0422C24.7216 28.5453 25.0241 29.0914 25.2548 29.6682C25.3753 29.971 25.569 30.246 25.724 30.5334C25.5146 30.5809 25.3575 30.6946 25.2381 30.3266C25.0108 29.6372 24.6621 28.9829 24.3531 28.3234C24.3049 28.22 24.2138 28.1373 24.3542 28.0422Z" fill="#2F6532"/>
<path d="M15.1424 20.2163C15.3414 20.0499 15.6116 20.1336 15.8284 20.0282C15.975 20.0158 15.9488 20.1429 15.9876 20.2184C15.7907 20.4251 15.4639 20.2277 15.2712 20.4354L15.0366 20.4272C14.979 20.3114 15.0806 20.2732 15.1424 20.2163Z" fill="#56879D"/>
<path d="M19.834 6.69916C18.9888 5.87223 18.0599 5.128 17.4158 4.12121C17.6012 3.74496 17.4828 3.48758 17.1016 3.33977C16.8335 3.2364 16.645 3.01933 16.4093 2.87049C15.9789 2.56039 16.026 2.272 16.4408 1.98774C17.1739 1.48332 17.907 0.974758 18.6935 0.437256C19.2569 2.44049 19.8874 4.35689 20.2393 6.34668C20.2047 6.57512 20.0832 6.70743 19.834 6.69916Z" fill="#3775A7"/>
<path d="M14.9695 2.86231C14.4972 2.75894 14.1317 2.86231 13.8657 3.31195C13.6206 3.71301 13.2153 3.6789 12.8184 3.52488C13.2425 2.41784 13.9536 1.54026 15.024 0.829102C15.0088 1.25569 15.135 1.67552 15.3832 2.02505C15.6942 2.49743 15.158 2.60596 14.9695 2.86231Z" fill="#3875A7"/>
<path d="M16.4062 2.87036C16.9027 2.95822 17.2923 3.25488 17.6494 3.56498C18.0065 3.87508 17.5258 3.94433 17.4158 4.12109C17.0014 3.77174 16.6586 3.34716 16.4062 2.87036Z" fill="#96CA90"/>
<path d="M19.834 6.6991L20.2341 6.34766C20.2609 6.36507 20.2907 6.37767 20.322 6.38487C20.322 6.67946 20.4268 7.07018 19.879 6.81487L19.834 6.6991Z" fill="#9AC99B"/>
<path d="M16.036 2.84971H15.373C15.5951 2.54374 15.8161 2.48482 16.036 2.84971Z" fill="#528188"/>
<path d="M24.2294 1.95351C23.9839 1.84618 23.7811 1.662 23.6523 1.42944L24.3802 1.80569L24.2294 1.95351Z" fill="#6A88A3"/>
<path d="M3.33203 17.9248C3.42336 17.7087 3.57752 17.5242 3.77504 17.3945C4.13321 17.2715 4.38771 17.5878 4.71761 17.6095C4.76575 17.6279 4.80855 17.6577 4.84223 17.6964C5.51984 20.4573 6.48126 23.0941 8.39152 25.486C7.6496 25.0547 6.94857 24.5582 6.29693 24.0027C6.32102 23.6461 6.33254 23.2895 6.37338 22.936C6.39956 22.7044 6.25504 22.6052 6.10632 22.4843C5.7848 22.2258 5.49051 21.9302 5.15119 21.6987C4.60136 21.3224 4.48406 20.786 4.48196 20.1875C4.47046 20.0564 4.47046 19.9247 4.48196 19.7936C4.64325 18.8437 4.24946 18.2349 3.33203 17.9248Z" fill="#46B093"/>
<path d="M4.83202 13.8509C4.78685 12.4414 4.93802 11.0325 5.28131 9.66357C5.61749 9.49612 5.88037 9.62326 6.11915 9.86514C6.29405 10.4399 5.85942 10.8657 5.70651 11.3526C5.47506 12.0885 5.23418 12.8183 5.06138 13.5708C5.02787 13.6959 5.01425 13.8406 4.83202 13.8509Z" fill="#97CD8C"/>
<path d="M4.83104 13.851C5.09286 12.4824 5.63746 11.2017 6.07627 9.88796L6.13911 9.83525C6.17819 9.82224 6.2205 9.82217 6.25962 9.83504C6.29874 9.84791 6.33254 9.87302 6.3559 9.90657C6.37936 9.95523 6.39322 10.0078 6.39675 10.0616C6.3381 10.534 6.02286 10.9361 6.01134 11.4219C5.64269 12.1052 5.4458 12.8411 5.31698 13.5988C5.32536 13.8603 5.47827 14.1601 5.12638 14.3306C5.07584 14.3503 5.02117 14.3574 4.96719 14.3513C4.84047 14.312 4.89807 14.1611 4.81009 14.0981L4.77344 14.0908C4.79334 14.0112 4.81219 13.9306 4.83104 13.851Z" fill="#D7E7DC"/>
<path d="M6.07912 9.88805L5.28317 9.66374L5.16797 9.64824C5.35648 9.18826 5.84452 9.27199 6.19118 9.09937C6.21942 9.10143 6.24777 9.10143 6.27601 9.09937C6.46348 9.41773 6.40273 9.67718 6.08435 9.87357L6.07912 9.88805Z" fill="#448547"/>
<path d="M6.18967 9.09934C5.91947 9.40944 5.45656 9.36809 5.16541 9.64821C5.14013 9.68983 5.10234 9.72264 5.0573 9.74209C5.01225 9.76154 4.96219 9.76666 4.91406 9.75675C4.94024 9.68129 5.06487 9.60686 4.91406 9.52831L5.40315 9.22751L6.41274 8.85229L6.18967 9.09934Z" fill="#629F8F"/>
<path d="M4.81228 14.1001C4.91701 14.1435 4.91701 14.2448 4.93377 14.3316C5.11285 14.5384 5.0385 14.7627 4.98613 14.9859C4.93586 15.2754 4.92853 15.5565 5.1317 15.8025C5.17925 15.8676 5.20688 15.9447 5.2113 16.0248C5.18826 16.2563 5.18512 16.4899 5.14637 16.7194C5.08877 16.8848 5.13066 17.0574 5.10971 17.2259C5.09916 17.2745 5.07879 17.3205 5.04982 17.3612C5.02085 17.4018 4.98387 17.4363 4.94109 17.4626C4.90758 17.5422 4.87302 17.6218 4.83636 17.7014H4.79657C4.53265 17.4554 4.64262 16.9861 4.25197 16.8176L4.06241 16.7876C4.13574 16.6264 4.16887 16.4502 4.15903 16.2738C4.14919 16.0974 4.09667 15.9259 4.00586 15.7736L4.1263 15.6702C4.46039 15.908 4.54522 15.6847 4.59654 15.418C4.67613 14.9735 4.74106 14.5353 4.81228 14.1001Z" fill="#E8EEF2"/>
<path d="M22.6094 5.00405C23.4064 3.51765 23.4902 3.13003 23.3194 1.56714C24.8904 2.71657 26.2864 3.92388 27.3976 5.43406C27.1044 6.16279 26.6436 6.6424 25.7649 6.52767C25.5753 6.50596 25.3837 6.50596 25.1941 6.52767C24.394 6.60622 23.7069 6.46048 23.3488 5.64699C23.2021 5.31415 22.7131 5.37307 22.6094 5.00405Z" fill="#3775A7"/>
<path d="M22.609 5.00391C23.1233 5.10727 23.472 5.41013 23.7024 5.86804C23.9014 6.26187 24.2261 6.43449 24.6743 6.35593C24.7886 6.33991 24.9046 6.33991 25.0189 6.35593C25.9782 6.4593 26.86 6.38384 27.3973 5.43391C27.42 5.44684 27.4443 5.45691 27.4695 5.46389C27.833 6.03447 28.2372 6.5792 28.5168 7.20147C28.698 7.59942 28.6279 7.76067 28.167 7.72966C26.0337 7.58909 23.8993 7.45574 21.766 7.3162C21.5188 7.30069 21.2706 7.27899 21.0234 7.26038V7.04745C21.3747 6.46565 21.8015 5.93156 22.2928 5.45872L22.609 5.00391Z" fill="#98CE8B"/>
<path d="M22.2935 5.45678C21.9558 6.04768 21.5276 6.58356 21.0242 7.04552C20.8828 6.94215 20.6053 7.091 20.5645 6.80674C20.8661 6.92768 21.0169 6.70957 21.1928 6.53695C21.5353 6.19171 21.7385 5.72863 22.1469 5.43921L22.2935 5.45678Z" fill="#E3EEDD"/>
<path d="M31.589 14.5333C31.272 12.7024 30.7047 10.9224 29.9028 9.242L29.5195 8.44092C30.1605 8.87609 30.5375 9.4508 31.1083 9.80121C31.5586 10.3522 32.0152 10.899 32.4593 11.4551C32.9829 12.1063 33.1097 12.8092 32.8468 13.6206C32.6698 14.1664 32.6279 14.7576 32.5253 15.323L32.4844 15.4378C32.032 15.4243 31.8686 15.0439 31.6194 14.7721L31.589 14.5333Z" fill="#99CF8B"/>
<path d="M4.94395 17.4607C4.93767 17.3573 4.93348 17.2591 5.05392 17.2126C5.54301 17.1847 5.60585 17.5754 5.74409 17.8938C6.21537 19.5704 7.0375 21.0754 8.06699 22.477C8.2576 22.7365 8.47753 22.9773 8.59064 23.2874L8.73517 25.5242C6.8626 23.3897 5.90014 20.8273 5.16389 18.1563C5.09267 17.9248 5.01307 17.6922 4.94395 17.4607Z" fill="#46B093"/>
<path d="M31.6172 14.772C32.0026 14.8753 32.1691 15.2485 32.4823 15.4387C32.3377 15.9648 32.2466 16.5127 31.8539 17.1132C31.8344 16.3281 31.7552 15.5455 31.6172 14.772Z" fill="#3D76A4"/>
<path d="M4.00585 15.7685C4.46352 16.0786 4.46666 16.4217 4.06241 16.7825L3.79744 16.9561C3.79744 16.5261 3.79465 16.0954 3.78906 15.6641L4.00585 15.7685Z" fill="#2E577C"/>
<path d="M4.25296 16.8125C4.4708 16.6255 4.59542 16.7609 4.65198 16.9542C4.72319 17.195 4.75042 17.4482 4.79755 17.6963C4.38492 17.8359 4.12624 17.4637 3.77539 17.3976L4.25296 16.8125Z" fill="#2B577D"/>
<path d="M17.917 15.8098L21.3731 16.4672C21.4632 16.6667 21.6381 16.9045 21.4946 17.0802C21.3511 17.2559 21.1103 17.0905 20.9081 17.0543C19.7561 16.8476 18.6041 16.6533 17.452 16.4548C17.4332 16.1168 17.7222 15.999 17.917 15.8098Z" fill="#498C41"/>
<path d="M17.9165 15.8098C17.8903 16.1137 17.5657 16.2098 17.4557 16.4548L17.3572 16.4847C17.0734 16.1385 17.662 16.063 17.5814 15.7798L17.9165 15.8098Z" fill="#376B34"/>
<path d="M30.0199 17.8213C30.9624 18.6482 31.6819 19.5785 32.4527 20.4582C33.0266 21.1114 33.5419 21.8153 34.0813 22.4976C34.6531 23.2211 34.6479 23.7731 34.0886 24.5287C32.6861 26.4365 31.1108 28.2145 29.3821 29.8407C29.1632 30.0474 28.9495 30.035 28.6395 30.0567C27.5786 30.1322 27.3534 29.2887 26.8591 28.7502C25.7343 27.5191 24.6399 26.2611 23.535 25.0125C23.4638 24.9318 23.3465 24.8719 23.3873 24.6672C25.4421 25.1737 27.0937 24.3923 28.4981 22.9844C29.9026 21.5766 30.576 19.901 30.0199 17.8213Z" fill="#428A41"/>
<path d="M27.1597 16.7877C28.7463 16.6306 30.2523 18.1252 29.6198 20.3269C28.9977 22.4893 26.7732 24.4884 24.3833 24.3096C23.8106 24.2702 23.2713 24.0296 22.863 23.6313C22.4547 23.2331 22.2045 22.7036 22.1578 22.1389C21.9567 19.7863 24.0754 17.3934 26.415 16.8404C26.6538 16.7773 26.9115 16.8001 27.1597 16.7877Z" fill="#458F42"/>
<path d="M15.7191 16.2377C15.1735 15.8935 14.6017 15.5876 14.123 15.1472C14.6649 15.1773 15.201 15.2731 15.7191 15.4325V16.2377Z" fill="#152D46"/>
<path d="M12.4946 14.3523C12.1804 14.2645 12.0055 13.8634 11.6055 13.9926C11.6348 13.8128 11.8547 13.882 11.9197 13.7549L12.4915 14.0991C12.4957 14.1838 12.4946 14.2676 12.4946 14.3523Z" fill="#BED5E5"/>
<path d="M4.85938 14.9766C4.88381 14.7603 4.9086 14.5446 4.93374 14.3296C4.95887 14.3203 4.98505 14.313 5.01123 14.3058C5.4909 14.1962 5.34113 13.9109 5.20394 13.6298C5.28667 12.8349 5.44377 12.0628 5.93704 11.4002C6.08576 10.841 6.61255 10.5908 6.95187 10.1867C7.37079 9.90655 7.55931 10.4244 7.89444 10.4441C8.0264 10.4358 8.13218 10.4627 8.13742 10.6229C8.79423 11.3572 9.51625 12.0321 10.2948 12.6395C10.4436 12.7584 10.609 12.8566 10.6823 13.0447C10.874 13.2876 10.8918 13.4995 10.5692 13.6484C10.4834 13.8148 10.3189 13.8686 10.1576 13.9264C8.5867 14.4877 7.00843 15.0366 5.50242 15.7633C5.40202 15.8193 5.28536 15.84 5.17147 15.8222C4.80073 15.6351 5.00914 15.2423 4.85938 14.9766Z" fill="#3775A7"/>
<path d="M5.0771 16.7803C4.97237 16.5053 4.91687 16.2335 5.14622 15.9865C5.80602 15.4531 6.61244 15.2153 7.38639 14.9177C8.47768 14.497 9.5522 14.0194 10.7032 13.761L10.8802 13.8644C10.9375 13.9271 10.9735 14.006 10.9832 14.0899C10.993 14.1738 10.976 14.2587 10.9346 14.3326C10.4686 15.3828 10.1073 16.4712 9.74281 17.5586C9.72868 17.613 9.70258 17.6636 9.66638 17.7068C9.63017 17.75 9.58475 17.7849 9.53335 17.8088C8.57508 17.9587 8.37609 17.8708 7.89433 17.0852C7.81369 16.9529 7.732 16.7875 7.57386 16.7844C6.86379 16.7689 6.12335 16.526 5.47194 17.0222C5.22792 17.1183 5.11376 17.0098 5.0771 16.7803Z" fill="#3775A8"/>
<path d="M10.7039 13.7612C9.26911 14.3173 7.83118 14.8693 6.39848 15.4336C5.97432 15.6011 5.56064 15.8016 5.14695 15.9866L5.01604 15.8833C5.01081 15.7892 5.05479 15.7427 5.15219 15.751C6.91296 14.9452 8.72104 14.2441 10.5667 13.6516L10.7039 13.7612Z" fill="#D1E4EF"/>
<path d="M11.1237 12.3604C11.1311 12.5216 11.1395 12.6829 11.1468 12.8431C11.0672 13.0095 10.9373 12.9868 10.7959 12.9382C9.98533 12.503 9.26479 11.9717 8.81445 11.1489C9.50148 11.304 10.0115 11.7908 10.6231 12.0896C10.798 12.1722 10.9614 12.2704 11.1237 12.3604Z" fill="#3972A4"/>
<path d="M9.5584 17.7345C9.97732 16.6047 10.39 15.4749 10.8152 14.3472C10.8749 14.186 10.9513 14.0371 10.8843 13.8604L11.1629 14.094C10.6792 15.1989 10.2527 16.3274 9.88516 17.4751C9.84117 17.6105 9.74692 17.7521 9.83908 17.9071C9.86002 18.0766 9.81185 18.1986 9.61705 18.2172C9.58676 18.2142 9.55759 18.2043 9.5318 18.1884C9.506 18.1724 9.48429 18.1508 9.46833 18.1252C9.40759 17.9764 9.39188 17.8348 9.5584 17.7345Z" fill="#D4E4EE"/>
<path d="M8.81864 11.149C9.36533 11.8726 10.1204 12.3615 10.8001 12.9383L10.6797 13.0417C9.73712 12.4866 8.99563 11.6979 8.24472 10.9268C8.20456 10.8863 8.17427 10.8374 8.15612 10.7837C8.13798 10.7299 8.13246 10.6728 8.13999 10.6167L8.32326 10.7201L8.81864 11.149Z" fill="#C9DDEA"/>
<path d="M9.65117 18.1706L9.8355 17.907C10.0052 18.0755 10.2052 18.2243 10.3382 18.4176C10.7634 19.0378 11.2462 19.3903 12.0956 19.3479C12.5951 19.321 12.814 19.9505 12.9973 20.4136C12.9826 20.4415 12.9669 20.4684 12.9522 20.4973C12.2547 20.8994 11.442 20.7961 10.6922 20.9801C10.3152 21.0731 9.90985 21.1051 9.52131 21.1951C9.32756 21.2054 9.2155 21.1 9.14323 20.9366C8.98261 19.9844 9.16216 19.0066 9.65117 18.1706Z" fill="#98CE8B"/>
<path d="M15.1431 20.2163L15.0384 20.423C14.3566 20.5264 13.6591 20.544 13.0066 20.8024C12.9909 20.7839 12.9791 20.7625 12.972 20.7393C12.9515 20.7231 12.9349 20.7025 12.9235 20.679C12.9122 20.6556 12.9062 20.6299 12.9062 20.6039C12.9062 20.5779 12.9122 20.5523 12.9235 20.5289C12.9349 20.5054 12.9515 20.4848 12.972 20.4685C12.9774 20.4464 12.9866 20.4255 12.9993 20.4065C13.6633 20.4902 14.2906 20.2639 14.9357 20.1853L15.1431 20.2163Z" fill="#CCDFE7"/>
<path d="M29.0801 13.509C29.2958 13.4202 29.5271 13.3745 29.7608 13.3745C29.9945 13.3745 30.2259 13.4202 30.4416 13.509C29.9925 13.6007 29.5292 13.6007 29.0801 13.509Z" fill="#90D0B8"/>
<path d="M29.0798 13.5088H30.4413C30.4486 13.545 30.457 13.5811 30.4654 13.6173H29.0547C29.0641 13.5832 29.0714 13.547 29.0798 13.5088Z" fill="#4D8C75"/>
<path d="M7.89118 10.4442C7.91108 10.6406 7.85872 10.7161 7.68801 10.5527C7.49845 10.3698 7.31412 10.1817 7.0125 10.2282C6.71716 10.3078 6.50352 10.1765 6.32024 9.96666C6.31186 9.93772 6.30453 9.90877 6.29824 9.87983C6.23436 9.6607 6.41973 9.55836 6.52237 9.41779C6.84912 9.06531 7.00936 9.5811 7.27328 9.55836C7.55605 9.8023 7.66706 10.1589 7.89118 10.4442Z" fill="#448242"/>
<path d="M6.5219 9.41764C6.55122 9.62437 6.4025 9.74014 6.29777 9.87968H6.08203C6.19933 9.6347 6.37318 9.40316 6.27369 9.10547C6.4643 9.12511 6.37842 9.35872 6.5219 9.41764Z" fill="#629F8F"/>
<path d="M9.06046 22.0273C9.40011 23.0295 9.80953 24.0072 10.2858 24.9536C10.2598 24.9722 10.2288 24.9826 10.1968 24.9836L8.83529 23.7256C8.91489 23.1602 8.63735 22.5483 9.06046 22.0273Z" fill="#9BCF8E"/>
<path d="M9.27208 20.8955C9.31188 21.0102 9.36634 21.1084 9.51192 21.1022C9.64702 21.0485 9.7706 21.0174 9.76012 21.2335C9.69729 21.3255 9.52658 21.3038 9.5203 21.4547L9.31084 21.7131C9.30769 21.7414 9.29723 21.7685 9.28046 21.7917L9.071 21.9901C9.04692 21.7979 8.86155 21.771 8.74111 21.68C8.5505 21.648 8.50128 21.5043 8.46672 21.3472C8.44053 21.1043 8.44681 20.8665 8.61124 20.6619C8.70438 20.5534 8.82012 20.4659 8.95057 20.4055C9.24486 20.4541 9.02806 20.819 9.27208 20.8955Z" fill="#F8FAF6"/>
<path d="M9.76188 21.2325C9.71056 21.1291 9.60898 21.1208 9.51367 21.1012C10.1798 20.7911 10.9233 20.8355 11.625 20.6877C12.0694 20.5924 12.5187 20.5203 12.9708 20.4717C12.9708 20.5626 12.9708 20.6526 12.9708 20.7425L9.76188 21.2325Z" fill="#D8E8D1"/>
<path d="M8.60037 21.345L8.74804 21.6789C8.47679 22.1957 8.68834 22.7559 8.58257 23.2872C7.18247 21.7546 6.16909 19.9171 5.625 17.9246C5.87426 17.7985 5.9727 18.0125 6.08057 18.1448C6.75968 18.9819 7.48885 19.7782 8.26419 20.5294C8.50402 20.7599 8.50402 21.069 8.60037 21.345Z" fill="#98CE8B"/>
<path d="M6.32135 9.96558L7.01361 10.2271C6.73189 10.686 6.30983 11.0199 5.93804 11.3993C5.73696 10.9972 6.1475 10.7336 6.17682 10.379C6.20699 10.2357 6.25556 10.0968 6.32135 9.96558Z" fill="#95CB8B"/>
<path d="M5.20442 13.6299C5.51128 14.0516 5.46625 14.2118 5.01172 14.3059C5.30077 14.1436 5.20966 13.8749 5.20442 13.6299Z" fill="#569580"/>
<path d="M8.60163 21.345C8.42254 20.8746 8.05284 20.5501 7.71666 20.1945C7.01078 19.4472 6.32166 18.6833 5.62207 17.9204C5.47754 17.6455 5.37491 17.3375 5.04606 17.2072C5.0293 17.0615 4.82508 16.9054 5.07329 16.7751L5.35187 17.0088C5.51106 17.0573 5.59065 17.1927 5.68177 17.3106C6.60428 18.5087 7.61972 19.6343 8.71893 20.6772C8.55764 20.8808 8.62048 21.1196 8.60163 21.345Z" fill="#E2EEDD"/>
<path d="M5.15303 15.7477L5.01689 15.88C4.69327 15.6257 4.80743 15.2949 4.85979 14.9766C5.2054 15.1409 4.90797 15.5471 5.15303 15.7477Z" fill="#376183"/>
<path d="M24.0605 25.1427C28.2843 24.5721 30.2584 22.5885 30.4857 18.6306C30.8847 19.0554 31.2597 19.4131 31.5854 19.8121C32.3991 20.8085 33.1898 21.8246 33.9942 22.8314C34.1496 23.0184 34.238 23.251 34.2454 23.4928C34.2528 23.7346 34.1788 23.972 34.035 24.1679C32.6054 26.1291 30.9982 27.9579 29.2331 29.6318C29.0237 29.8241 28.0424 29.8107 27.8717 29.5915C26.6673 28.0659 25.3424 26.6394 24.0605 25.1427Z" fill="#68B953"/>
<path d="M22.3977 21.6553C22.3422 20.7953 22.6815 20.0283 23.1926 19.3616C24.1865 18.0643 25.3594 17.0586 27.1608 17.0079C28.914 16.9583 29.8136 18.299 29.4858 19.9166C29.0333 22.1473 27.1021 23.9293 24.8243 24.1309C23.5989 24.2394 22.2374 23.459 22.3977 21.6553Z" fill="#67B953"/>
<path d="M8.72358 20.6824C8.63141 20.6627 8.50574 20.6751 8.45233 20.6204C7.35266 19.4751 6.20692 18.368 5.35547 17.0139C5.3581 16.9279 5.38892 16.845 5.4433 16.7778C5.49768 16.7105 5.57269 16.6624 5.65709 16.6408C6.35145 16.5374 7.05418 16.5653 7.75168 16.5881C7.96114 16.5943 7.9402 16.8144 7.97371 16.9354C8.14966 17.5793 8.59057 17.7757 9.21266 17.7178C9.32638 17.7151 9.44014 17.7207 9.55304 17.7344C9.53418 17.875 9.51429 18.0166 9.49439 18.1572C9.32158 18.92 9.24513 19.7076 8.95293 20.4405C8.94671 20.5 8.92092 20.5559 8.8795 20.5995C8.83808 20.6432 8.78332 20.6723 8.72358 20.6824Z" fill="#99CF8B"/>
<path d="M8.95703 20.4406C9.0471 19.6591 9.14031 18.8777 9.49849 18.1572L9.65139 18.1707C9.49744 18.8942 9.34558 19.625 9.18639 20.3517C9.14345 20.5481 9.21152 20.7197 9.27331 20.8954C8.97483 20.8747 9.12774 20.5481 8.95703 20.4406Z" fill="#DEEBD6"/>
<path d="M28.4927 18.6658C28.0382 19.0338 28.1115 19.3894 28.4854 19.6685C28.7189 19.8442 28.6456 19.9641 28.5095 20.1181C28.3231 20.3248 28.1304 20.5316 27.8706 20.821C27.7083 20.3042 28.0696 19.9114 27.8602 19.4907C27.4926 19.6695 27.2622 20.0189 26.9741 20.3C26.8129 20.4582 26.9741 20.6236 27.0192 20.7734C27.2066 21.3936 27.1805 21.9456 26.6641 22.4356C26.1478 22.9255 25.5718 23.2046 24.8565 22.9183C24.6083 22.8149 24.4208 22.8645 24.2627 23.0403C24.0208 22.8439 24.424 22.7188 24.2459 22.5234C24.0365 22.2909 23.9108 22.5937 23.6898 22.54C24.004 22.0355 23.7191 21.713 23.317 21.4753C23.1253 21.3637 23.0866 21.3089 23.2353 21.16C23.538 20.8551 23.8427 20.5522 24.269 20.1264C24.1275 20.6904 24.0815 21.2737 24.1328 21.8526C24.5853 21.6024 24.8555 21.219 25.1801 20.8985C25.3383 20.7414 25.1801 20.5719 25.133 20.4241C24.9131 19.7594 25.0607 19.192 25.5781 18.7268C26.0515 18.303 26.6139 18.1138 27.2108 18.4033C27.568 18.5769 27.6748 18.2513 27.9439 18.1655C27.9722 18.4136 27.4915 18.5852 27.8476 18.8353C28.1251 19.0235 28.166 18.6069 28.4927 18.6658Z" fill="#41863F"/>
<path d="M25.5832 21.3005C25.5832 21.4442 24.6228 22.45 24.5359 22.4221C24.317 22.3538 24.2049 22.2019 24.3767 22.0024C24.6364 21.7037 24.9223 21.4277 25.1988 21.1445C25.2679 21.0742 25.3507 21.0163 25.4407 21.1104C25.493 21.1701 25.5407 21.2337 25.5832 21.3005Z" fill="#68B554"/>
<path d="M26.8957 20.1077C26.6087 20.0239 26.4893 19.9154 26.6129 19.7531C26.8327 19.4738 27.0676 19.2063 27.3167 18.952C27.4329 18.829 27.5796 18.7991 27.7126 18.9417C27.8456 19.0843 27.7419 19.1784 27.6508 19.2787C27.3869 19.5671 27.124 19.8575 26.8957 20.1077Z" fill="#67B556"/>
<path d="M24.7148 22.6701C24.9913 22.36 25.2102 22.1057 25.4406 21.8628C25.5129 21.7863 25.6092 21.6861 25.7339 21.7708C25.8386 21.8421 25.8438 21.9631 25.8386 22.0809C25.7998 22.5316 25.4574 22.7321 24.7148 22.6701Z" fill="#67B654"/>
<path d="M26.3027 19.134C26.3603 18.7144 26.6452 18.5469 27.0358 18.5138C27.1406 18.5056 27.3218 18.5769 27.2537 18.6875C27.0599 19.0038 26.8065 19.3139 26.4651 19.4555C26.2567 19.5485 26.3541 19.2612 26.3027 19.134Z" fill="#67B354"/>
</g>
<path d="M44.5839 10.0317V22.4813H42.4336V10.0317H44.5839ZM49.6726 15.4784V17.18H44.0356V15.4784H49.6726ZM50.3836 10.0317V11.7418H44.0356V10.0317H50.3836Z" fill="#222222"/>
<path d="M54.1016 13.2296V22.4813H52.0284V13.2296H54.1016ZM51.8914 10.8012C51.8914 10.4877 51.9942 10.2284 52.1998 10.0231C52.4111 9.81224 52.7024 9.70678 53.0736 9.70678C53.4391 9.70678 53.7275 9.81224 53.9388 10.0231C54.1501 10.2284 54.2558 10.4877 54.2558 10.8012C54.2558 11.1091 54.1501 11.3656 53.9388 11.5708C53.7275 11.776 53.4391 11.8786 53.0736 11.8786C52.7024 11.8786 52.4111 11.776 52.1998 11.5708C51.9942 11.3656 51.8914 11.1091 51.8914 10.8012Z" fill="#222222"/>
<path d="M56.3718 9.34766H58.4364V20.5061L58.2394 22.4813H56.3718V9.34766ZM64.4846 17.7699V17.9495C64.4846 18.6335 64.4075 19.2634 64.2533 19.8392C64.1048 20.4092 63.8763 20.9051 63.5679 21.327C63.2652 21.7488 62.8883 22.0766 62.4371 22.3103C61.9916 22.5383 61.4748 22.6523 60.8865 22.6523C60.3097 22.6523 59.8071 22.544 59.3788 22.3274C58.9504 22.1108 58.5906 21.8029 58.2993 21.4039C58.0138 21.0049 57.7825 20.5289 57.6054 19.976C57.4284 19.423 57.3027 18.8131 57.2285 18.1462V17.5733C57.3027 16.9006 57.4284 16.2907 57.6054 15.7435C57.7825 15.1905 58.0138 14.7145 58.2993 14.3155C58.5906 13.9108 58.9476 13.6001 59.3702 13.3835C59.7985 13.1669 60.2983 13.0586 60.8694 13.0586C61.4634 13.0586 61.9859 13.1726 62.4371 13.4006C62.894 13.6286 63.2738 13.9535 63.5765 14.3754C63.8792 14.7915 64.1048 15.2874 64.2533 15.8632C64.4075 16.4389 64.4846 17.0745 64.4846 17.7699ZM62.42 17.9495V17.7699C62.42 17.3538 62.3857 16.9633 62.3172 16.5985C62.2486 16.228 62.1344 15.9031 61.9745 15.6238C61.8203 15.3444 61.609 15.125 61.3406 14.9654C61.0779 14.8001 60.7495 14.7174 60.3554 14.7174C59.9899 14.7174 59.6757 14.7801 59.413 14.9055C59.1503 15.0309 58.9304 15.2019 58.7534 15.4185C58.5763 15.6352 58.4364 15.886 58.3336 16.171C58.2365 16.456 58.1708 16.7638 58.1366 17.0944V18.6421C58.188 19.0696 58.2965 19.463 58.4621 19.8221C58.6334 20.1755 58.8733 20.4605 59.1817 20.6771C59.4901 20.888 59.8871 20.9935 60.3725 20.9935C60.7552 20.9935 61.0779 20.9165 61.3406 20.7626C61.6033 20.6087 61.8117 20.395 61.9659 20.1213C62.1259 19.842 62.2401 19.5171 62.3086 19.1466C62.3829 18.7761 62.42 18.377 62.42 17.9495Z" fill="#222222"/>
<path d="M66.4378 10.0317H70.8497C71.7978 10.0317 72.6059 10.1742 73.2741 10.4592C73.9424 10.7442 74.4535 11.1661 74.8076 11.7247C75.1674 12.2776 75.3473 12.9617 75.3473 13.7768C75.3473 14.3982 75.2331 14.9454 75.0046 15.4185C74.7762 15.8917 74.4535 16.2907 74.0366 16.6156C73.6197 16.9348 73.1228 17.1828 72.546 17.3595L71.8949 17.6759H67.9284L67.9113 15.9743H70.884C71.398 15.9743 71.8264 15.8831 72.169 15.7007C72.5117 15.5183 72.7687 15.2703 72.94 14.9568C73.1171 14.6376 73.2056 14.2785 73.2056 13.8794C73.2056 13.4462 73.1199 13.07 72.9486 12.7508C72.783 12.4259 72.526 12.1779 72.1776 12.0069C71.8292 11.8302 71.3866 11.7418 70.8497 11.7418H68.5881V22.4813H66.4378V10.0317ZM73.5569 22.4813L70.627 16.8892L72.8801 16.8807L75.8528 22.3701V22.4813H73.5569Z" fill="#222222"/>
<path d="M81.3698 22.6523C80.6844 22.6523 80.0648 22.5411 79.5108 22.3188C78.9625 22.0908 78.4942 21.7744 78.1058 21.3697C77.7232 20.965 77.4291 20.489 77.2234 19.9418C77.0178 19.3945 76.915 18.8046 76.915 18.1718V17.8298C76.915 17.1059 77.0207 16.4503 77.232 15.8632C77.4433 15.276 77.7375 14.7744 78.1144 14.3583C78.4913 13.9364 78.9368 13.6144 79.4508 13.3921C79.9648 13.1697 80.5217 13.0586 81.1214 13.0586C81.7839 13.0586 82.3635 13.1697 82.8604 13.3921C83.3573 13.6144 83.7685 13.9279 84.094 14.3326C84.4253 14.7316 84.6709 15.2076 84.8308 15.7606C84.9964 16.3135 85.0792 16.9234 85.0792 17.5904V18.4711H77.9174V16.9918H83.0403V16.8294C83.0289 16.4589 82.9547 16.1111 82.8176 15.7862C82.6862 15.4613 82.4835 15.1991 82.2093 14.9996C81.9352 14.8001 81.5697 14.7003 81.1128 14.7003C80.7701 14.7003 80.4646 14.7744 80.1961 14.9226C79.9334 15.0651 79.7135 15.2732 79.5365 15.5468C79.3594 15.8204 79.2224 16.151 79.1253 16.5387C79.0339 16.9206 78.9882 17.351 78.9882 17.8298V18.1718C78.9882 18.5765 79.0425 18.9528 79.151 19.3005C79.2652 19.6425 79.4308 19.9418 79.6479 20.1983C79.8649 20.4548 80.1276 20.6572 80.436 20.8054C80.7444 20.9479 81.0957 21.0191 81.4897 21.0191C81.9866 21.0191 82.4292 20.9194 82.8176 20.7199C83.2059 20.5204 83.5429 20.2382 83.8285 19.8734L84.9165 20.9251C84.7166 21.2158 84.4567 21.4951 84.1369 21.763C83.817 22.0253 83.4258 22.239 82.9632 22.4043C82.5063 22.5696 81.9752 22.6523 81.3698 22.6523Z" fill="#222222"/>
<path d="M88.7544 15.1107V22.4813H86.6898V13.2296H88.6345L88.7544 15.1107ZM88.4203 17.5134L87.7178 17.5049C87.7178 16.8664 87.7978 16.2764 87.9577 15.7349C88.1176 15.1934 88.3517 14.7231 88.6602 14.3241C88.9686 13.9193 89.3512 13.6087 89.8081 13.3921C90.2707 13.1697 90.8047 13.0586 91.4101 13.0586C91.8327 13.0586 92.2182 13.1213 92.5666 13.2467C92.9207 13.3664 93.2263 13.5574 93.4833 13.8196C93.746 14.0818 93.9459 14.4181 94.083 14.8286C94.2257 15.239 94.2971 15.7349 94.2971 16.3163V22.4813H92.2325V16.4959C92.2325 16.0456 92.164 15.6922 92.0269 15.4356C91.8956 15.1791 91.7042 14.9967 91.4529 14.8884C91.2074 14.7744 90.9132 14.7174 90.5706 14.7174C90.1822 14.7174 89.8509 14.7915 89.5768 14.9397C89.3084 15.0879 89.0885 15.2903 88.9172 15.5468C88.7458 15.8033 88.6202 16.0997 88.5402 16.4361C88.4603 16.7724 88.4203 17.1315 88.4203 17.5134ZM94.1686 16.9662L93.2006 17.18C93.2006 16.6213 93.2777 16.094 93.4319 15.5981C93.5918 15.0965 93.8231 14.6575 94.1258 14.2813C94.4342 13.8994 94.814 13.6001 95.2652 13.3835C95.7164 13.1669 96.2332 13.0586 96.8158 13.0586C97.2898 13.0586 97.7124 13.1241 98.0837 13.2553C98.4606 13.3807 98.7804 13.5802 99.0431 13.8538C99.3059 14.1274 99.5057 14.4837 99.6428 14.9226C99.7799 15.3558 99.8484 15.8803 99.8484 16.4959V22.4813H97.7753V16.4874C97.7753 16.0199 97.7067 15.658 97.5696 15.4014C97.4383 15.1449 97.2498 14.9682 97.0042 14.8713C96.7587 14.7687 96.4645 14.7174 96.1219 14.7174C95.802 14.7174 95.5193 14.7773 95.2737 14.897C95.0339 15.011 94.8311 15.1734 94.6655 15.3843C94.4999 15.5896 94.3742 15.8261 94.2886 16.094C94.2086 16.362 94.1686 16.6527 94.1686 16.9662Z" fill="#222222"/>
<path d="M104.183 13.2296V22.4813H102.11V13.2296H104.183ZM101.973 10.8012C101.973 10.4877 102.076 10.2284 102.281 10.0231C102.493 9.81224 102.784 9.70678 103.155 9.70678C103.521 9.70678 103.809 9.81224 104.02 10.0231C104.232 10.2284 104.337 10.4877 104.337 10.8012C104.337 11.1091 104.232 11.3656 104.02 11.5708C103.809 11.776 103.521 11.8786 103.155 11.8786C102.784 11.8786 102.493 11.776 102.281 11.5708C102.076 11.3656 101.973 11.1091 101.973 10.8012Z" fill="#222222"/>
<path d="M110.694 13.2296V14.7345H105.468V13.2296H110.694ZM106.976 10.9637H109.041V19.9247C109.041 20.2097 109.081 20.4292 109.161 20.5831C109.246 20.7313 109.363 20.831 109.512 20.8823C109.66 20.9336 109.834 20.9593 110.034 20.9593C110.177 20.9593 110.314 20.9507 110.446 20.9336C110.577 20.9165 110.683 20.8994 110.763 20.8823L110.771 22.4556C110.6 22.5069 110.4 22.5525 110.171 22.5925C109.949 22.6324 109.692 22.6523 109.4 22.6523C108.926 22.6523 108.507 22.5696 108.141 22.4043C107.776 22.2333 107.49 21.9569 107.284 21.5749C107.079 21.193 106.976 20.6857 106.976 20.0529V10.9637Z" fill="#222222"/>
<defs>
<clipPath id="clip0_330_3311">
<rect width="35.6364" height="32" fill="white" transform="translate(0.300781)"/>
</clipPath>
</defs>
</svg>
