<svg width="151" height="151" viewBox="0 0 151 151" fill="none" xmlns="http://www.w3.org/2000/svg">
<g clip-path="url(#clip0_80_2468)">
<path d="M150.801 0H0.800781V151H150.801V0Z" fill="white"/>
<path d="M15.4239 9.4397H10.1758V14.7241H15.4239V9.4397Z" fill="black"/>
<path d="M20.672 9.4397H15.4238V14.7241H20.672V9.4397Z" fill="black"/>
<path d="M25.9239 9.4397H20.6758V14.7241H25.9239V9.4397Z" fill="black"/>
<path d="M31.1739 9.4397H25.9258V14.7241H31.1739V9.4397Z" fill="black"/>
<path d="M36.422 9.4397H31.1738V14.7241H36.422V9.4397Z" fill="black"/>
<path d="M41.6739 9.4397H36.4258V14.7241H41.6739V9.4397Z" fill="black"/>
<path d="M46.922 9.4397H41.6738V14.7241H46.922V9.4397Z" fill="black"/>
<path d="M57.4239 9.4397H52.1758V14.7241H57.4239V9.4397Z" fill="black"/>
<path d="M62.672 9.4397H57.4238V14.7241H62.672V9.4397Z" fill="black"/>
<path d="M67.9259 9.4397H62.6777V14.7241H67.9259V9.4397Z" fill="black"/>
<path d="M73.1739 9.4397H67.9258V14.7241H73.1739V9.4397Z" fill="black"/>
<path d="M109.922 9.4397H104.674V14.7241H109.922V9.4397Z" fill="black"/>
<path d="M115.176 9.4397H109.928V14.7241H115.176V9.4397Z" fill="black"/>
<path d="M120.424 9.4397H115.176V14.7241H120.424V9.4397Z" fill="black"/>
<path d="M125.672 9.4397H120.424V14.7241H125.672V9.4397Z" fill="black"/>
<path d="M130.924 9.4397H125.676V14.7241H130.924V9.4397Z" fill="black"/>
<path d="M136.174 9.4397H130.926V14.7241H136.174V9.4397Z" fill="black"/>
<path d="M141.422 9.4397H136.174V14.7241H141.422V9.4397Z" fill="black"/>
<path d="M15.4239 14.7241H10.1758V20.0085H15.4239V14.7241Z" fill="black"/>
<path d="M46.922 14.7241H41.6738V20.0085H46.922V14.7241Z" fill="black"/>
<path d="M73.1739 14.7241H67.9258V20.0085H73.1739V14.7241Z" fill="black"/>
<path d="M78.422 14.7241H73.1738V20.0085H78.422V14.7241Z" fill="black"/>
<path d="M83.6759 14.7241H78.4277V20.0085H83.6759V14.7241Z" fill="black"/>
<path d="M88.9239 14.7241H83.6758V20.0085H88.9239V14.7241Z" fill="black"/>
<path d="M99.4259 14.7241H94.1777V20.0085H99.4259V14.7241Z" fill="black"/>
<path d="M109.922 14.7241H104.674V20.0085H109.922V14.7241Z" fill="black"/>
<path d="M141.422 14.7241H136.174V20.0085H141.422V14.7241Z" fill="black"/>
<path d="M15.4239 20.0085H10.1758V25.2929H15.4239V20.0085Z" fill="black"/>
<path d="M25.9239 20.0085H20.6758V25.2929H25.9239V20.0085Z" fill="black"/>
<path d="M31.1739 20.0085H25.9258V25.2929H31.1739V20.0085Z" fill="black"/>
<path d="M36.422 20.0085H31.1738V25.2929H36.422V20.0085Z" fill="black"/>
<path d="M46.922 20.0085H41.6738V25.2929H46.922V20.0085Z" fill="black"/>
<path d="M62.672 20.0085H57.4238V25.2929H62.672V20.0085Z" fill="black"/>
<path d="M73.1739 20.0085H67.9258V25.2929H73.1739V20.0085Z" fill="black"/>
<path d="M83.6759 20.0085H78.4277V25.2929H83.6759V20.0085Z" fill="black"/>
<path d="M94.172 20.0085H88.9238V25.2929H94.172V20.0085Z" fill="black"/>
<path d="M99.4259 20.0085H94.1777V25.2929H99.4259V20.0085Z" fill="black"/>
<path d="M109.922 20.0085H104.674V25.2929H109.922V20.0085Z" fill="black"/>
<path d="M120.424 20.0085H115.176V25.2929H120.424V20.0085Z" fill="black"/>
<path d="M125.672 20.0085H120.424V25.2929H125.672V20.0085Z" fill="black"/>
<path d="M130.924 20.0085H125.676V25.2929H130.924V20.0085Z" fill="black"/>
<path d="M141.422 20.0085H136.174V25.2929H141.422V20.0085Z" fill="black"/>
<path d="M15.4239 25.293H10.1758V30.5774H15.4239V25.293Z" fill="black"/>
<path d="M25.9239 25.293H20.6758V30.5774H25.9239V25.293Z" fill="black"/>
<path d="M31.1739 25.293H25.9258V30.5774H31.1739V25.293Z" fill="black"/>
<path d="M36.422 25.293H31.1738V30.5774H36.422V25.293Z" fill="black"/>
<path d="M46.922 25.293H41.6738V30.5774H46.922V25.293Z" fill="black"/>
<path d="M67.9259 25.293H62.6777V30.5774H67.9259V25.293Z" fill="black"/>
<path d="M73.1739 25.293H67.9258V30.5774H73.1739V25.293Z" fill="black"/>
<path d="M83.6759 25.293H78.4277V30.5774H83.6759V25.293Z" fill="black"/>
<path d="M94.172 25.293H88.9238V30.5774H94.172V25.293Z" fill="black"/>
<path d="M99.4259 25.293H94.1777V30.5774H99.4259V25.293Z" fill="black"/>
<path d="M109.922 25.293H104.674V30.5774H109.922V25.293Z" fill="black"/>
<path d="M120.424 25.293H115.176V30.5774H120.424V25.293Z" fill="black"/>
<path d="M125.672 25.293H120.424V30.5774H125.672V25.293Z" fill="black"/>
<path d="M130.924 25.293H125.676V30.5774H130.924V25.293Z" fill="black"/>
<path d="M141.422 25.293H136.174V30.5774H141.422V25.293Z" fill="black"/>
<path d="M15.4239 30.5774H10.1758V35.8618H15.4239V30.5774Z" fill="black"/>
<path d="M25.9239 30.5774H20.6758V35.8618H25.9239V30.5774Z" fill="black"/>
<path d="M31.1739 30.5774H25.9258V35.8618H31.1739V30.5774Z" fill="black"/>
<path d="M36.422 30.5774H31.1738V35.8618H36.422V30.5774Z" fill="black"/>
<path d="M46.922 30.5774H41.6738V35.8618H46.922V30.5774Z" fill="black"/>
<path d="M67.9259 30.5774H62.6777V35.8618H67.9259V30.5774Z" fill="black"/>
<path d="M73.1739 30.5774H67.9258V35.8618H73.1739V30.5774Z" fill="black"/>
<path d="M78.422 30.5774H73.1738V35.8618H78.422V30.5774Z" fill="black"/>
<path d="M88.9239 30.5774H83.6758V35.8618H88.9239V30.5774Z" fill="black"/>
<path d="M99.4259 30.5774H94.1777V35.8618H99.4259V30.5774Z" fill="black"/>
<path d="M109.922 30.5774H104.674V35.8618H109.922V30.5774Z" fill="black"/>
<path d="M120.424 30.5774H115.176V35.8618H120.424V30.5774Z" fill="black"/>
<path d="M125.672 30.5774H120.424V35.8618H125.672V30.5774Z" fill="black"/>
<path d="M130.924 30.5774H125.676V35.8618H130.924V30.5774Z" fill="black"/>
<path d="M141.422 30.5774H136.174V35.8618H141.422V30.5774Z" fill="black"/>
<path d="M15.4239 35.8618H10.1758V41.1462H15.4239V35.8618Z" fill="black"/>
<path d="M46.922 35.8618H41.6738V41.1462H46.922V35.8618Z" fill="black"/>
<path d="M62.672 35.8618H57.4238V41.1462H62.672V35.8618Z" fill="black"/>
<path d="M73.1739 35.8618H67.9258V41.1462H73.1739V35.8618Z" fill="black"/>
<path d="M88.9239 35.8618H83.6758V41.1462H88.9239V35.8618Z" fill="black"/>
<path d="M99.4259 35.8618H94.1777V41.1462H99.4259V35.8618Z" fill="black"/>
<path d="M109.922 35.8618H104.674V41.1462H109.922V35.8618Z" fill="black"/>
<path d="M141.422 35.8618H136.174V41.1462H141.422V35.8618Z" fill="black"/>
<path d="M15.4239 41.1462H10.1758V46.4306H15.4239V41.1462Z" fill="black"/>
<path d="M20.672 41.1462H15.4238V46.4306H20.672V41.1462Z" fill="black"/>
<path d="M25.9239 41.1462H20.6758V46.4306H25.9239V41.1462Z" fill="black"/>
<path d="M31.1739 41.1462H25.9258V46.4306H31.1739V41.1462Z" fill="black"/>
<path d="M36.422 41.1462H31.1738V46.4306H36.422V41.1462Z" fill="black"/>
<path d="M41.6739 41.1462H36.4258V46.4306H41.6739V41.1462Z" fill="black"/>
<path d="M46.922 41.1462H41.6738V46.4306H46.922V41.1462Z" fill="black"/>
<path d="M57.4239 41.1462H52.1758V46.4306H57.4239V41.1462Z" fill="black"/>
<path d="M67.9259 41.1462H62.6777V46.4306H67.9259V41.1462Z" fill="black"/>
<path d="M78.422 41.1462H73.1738V46.4306H78.422V41.1462Z" fill="black"/>
<path d="M88.9239 41.1462H83.6758V46.4306H88.9239V41.1462Z" fill="black"/>
<path d="M99.4259 41.1462H94.1777V46.4306H99.4259V41.1462Z" fill="black"/>
<path d="M109.922 41.1462H104.674V46.4306H109.922V41.1462Z" fill="black"/>
<path d="M115.176 41.1462H109.928V46.4306H115.176V41.1462Z" fill="black"/>
<path d="M120.424 41.1462H115.176V46.4306H120.424V41.1462Z" fill="black"/>
<path d="M125.672 41.1462H120.424V46.4306H125.672V41.1462Z" fill="black"/>
<path d="M130.924 41.1462H125.676V46.4306H130.924V41.1462Z" fill="black"/>
<path d="M136.174 41.1462H130.926V46.4306H136.174V41.1462Z" fill="black"/>
<path d="M141.422 41.1462H136.174V46.4306H141.422V41.1462Z" fill="black"/>
<path d="M57.4239 46.4307H52.1758V51.7151H57.4239V46.4307Z" fill="black"/>
<path d="M62.672 46.4307H57.4238V51.7151H62.672V46.4307Z" fill="black"/>
<path d="M78.422 46.4307H73.1738V51.7151H78.422V46.4307Z" fill="black"/>
<path d="M83.6759 46.4307H78.4277V51.7151H83.6759V46.4307Z" fill="black"/>
<path d="M15.4239 51.7202H10.1758V57.0046H15.4239V51.7202Z" fill="black"/>
<path d="M20.672 51.7202H15.4238V57.0046H20.672V51.7202Z" fill="black"/>
<path d="M31.1739 51.7202H25.9258V57.0046H31.1739V51.7202Z" fill="black"/>
<path d="M36.422 51.7202H31.1738V57.0046H36.422V51.7202Z" fill="black"/>
<path d="M46.922 51.7202H41.6738V57.0046H46.922V51.7202Z" fill="black"/>
<path d="M62.672 51.7202H57.4238V57.0046H62.672V51.7202Z" fill="black"/>
<path d="M78.422 51.7202H73.1738V57.0046H78.422V51.7202Z" fill="black"/>
<path d="M88.9239 51.7202H83.6758V57.0046H88.9239V51.7202Z" fill="black"/>
<path d="M94.172 51.7202H88.9238V57.0046H94.172V51.7202Z" fill="black"/>
<path d="M109.922 51.7202H104.674V57.0046H109.922V51.7202Z" fill="black"/>
<path d="M141.422 51.7202H136.174V57.0046H141.422V51.7202Z" fill="black"/>
<path d="M15.4239 57.0046H10.1758V62.289H15.4239V57.0046Z" fill="black"/>
<path d="M20.672 57.0046H15.4238V62.289H20.672V57.0046Z" fill="black"/>
<path d="M25.9239 57.0046H20.6758V62.289H25.9239V57.0046Z" fill="black"/>
<path d="M36.422 57.0046H31.1738V62.289H36.422V57.0046Z" fill="black"/>
<path d="M41.6739 57.0046H36.4258V62.289H41.6739V57.0046Z" fill="black"/>
<path d="M52.1759 57.0046H46.9277V62.289H52.1759V57.0046Z" fill="black"/>
<path d="M67.9259 57.0046H62.6777V62.289H67.9259V57.0046Z" fill="black"/>
<path d="M83.6759 57.0046H78.4277V62.289H83.6759V57.0046Z" fill="black"/>
<path d="M88.9239 57.0046H83.6758V62.289H88.9239V57.0046Z" fill="black"/>
<path d="M94.172 57.0046H88.9238V62.289H94.172V57.0046Z" fill="black"/>
<path d="M104.674 57.0046H99.4258V62.289H104.674V57.0046Z" fill="black"/>
<path d="M115.176 57.0046H109.928V62.289H115.176V57.0046Z" fill="black"/>
<path d="M120.424 57.0046H115.176V62.289H120.424V57.0046Z" fill="black"/>
<path d="M125.672 57.0046H120.424V62.289H125.672V57.0046Z" fill="black"/>
<path d="M130.924 57.0046H125.676V62.289H130.924V57.0046Z" fill="black"/>
<path d="M136.174 57.0046H130.926V62.289H136.174V57.0046Z" fill="black"/>
<path d="M15.4239 62.2891H10.1758V67.5735H15.4239V62.2891Z" fill="black"/>
<path d="M25.9239 62.2891H20.6758V67.5735H25.9239V62.2891Z" fill="black"/>
<path d="M36.422 62.2891H31.1738V67.5735H36.422V62.2891Z" fill="black"/>
<path d="M46.922 62.2891H41.6738V67.5735H46.922V62.2891Z" fill="black"/>
<path d="M52.1759 62.2891H46.9277V67.5735H52.1759V62.2891Z" fill="black"/>
<path d="M57.4239 62.2891H52.1758V67.5735H57.4239V62.2891Z" fill="black"/>
<path d="M62.672 62.2891H57.4238V67.5735H62.672V62.2891Z" fill="black"/>
<path d="M78.422 62.2891H73.1738V67.5735H78.422V62.2891Z" fill="black"/>
<path d="M94.172 62.2891H88.9238V67.5735H94.172V62.2891Z" fill="black"/>
<path d="M99.4259 62.2891H94.1777V67.5735H99.4259V62.2891Z" fill="black"/>
<path d="M109.922 62.2891H104.674V67.5735H109.922V62.2891Z" fill="black"/>
<path d="M115.176 62.2891H109.928V67.5735H115.176V62.2891Z" fill="black"/>
<path d="M125.672 62.2891H120.424V67.5735H125.672V62.2891Z" fill="black"/>
<path d="M141.422 62.2891H136.174V67.5735H141.422V62.2891Z" fill="black"/>
<path d="M15.4239 67.5735H10.1758V72.8579H15.4239V67.5735Z" fill="black"/>
<path d="M20.672 67.5735H15.4238V72.8579H20.672V67.5735Z" fill="black"/>
<path d="M52.1759 67.5735H46.9277V72.8579H52.1759V67.5735Z" fill="black"/>
<path d="M57.4239 67.5735H52.1758V72.8579H57.4239V67.5735Z" fill="black"/>
<path d="M94.172 67.5735H88.9238V72.8579H94.172V67.5735Z" fill="black"/>
<path d="M115.176 67.5735H109.928V72.8579H115.176V67.5735Z" fill="black"/>
<path d="M125.672 67.5735H120.424V72.8579H125.672V67.5735Z" fill="black"/>
<path d="M130.924 67.5735H125.676V72.8579H130.924V67.5735Z" fill="black"/>
<path d="M136.174 67.5735H130.926V72.8579H136.174V67.5735Z" fill="black"/>
<path d="M141.422 67.5735H136.174V72.8579H141.422V67.5735Z" fill="black"/>
<path d="M25.9239 72.8579H20.6758V78.1423H25.9239V72.8579Z" fill="black"/>
<path d="M31.1739 72.8579H25.9258V78.1423H31.1739V72.8579Z" fill="black"/>
<path d="M46.922 72.8579H41.6738V78.1423H46.922V72.8579Z" fill="black"/>
<path d="M57.4239 72.8579H52.1758V78.1423H57.4239V72.8579Z" fill="black"/>
<path d="M62.672 72.8579H57.4238V78.1423H62.672V72.8579Z" fill="black"/>
<path d="M67.9259 72.8579H62.6777V78.1423H67.9259V72.8579Z" fill="black"/>
<path d="M88.9239 72.8579H83.6758V78.1423H88.9239V72.8579Z" fill="black"/>
<path d="M94.172 72.8579H88.9238V78.1423H94.172V72.8579Z" fill="black"/>
<path d="M109.922 72.8579H104.674V78.1423H109.922V72.8579Z" fill="black"/>
<path d="M141.422 72.8579H136.174V78.1423H141.422V72.8579Z" fill="black"/>
<path d="M15.4239 78.1421H10.1758V83.4265H15.4239V78.1421Z" fill="black"/>
<path d="M25.9239 78.1421H20.6758V83.4265H25.9239V78.1421Z" fill="black"/>
<path d="M31.1739 78.1421H25.9258V83.4265H31.1739V78.1421Z" fill="black"/>
<path d="M41.6739 78.1421H36.4258V83.4265H41.6739V78.1421Z" fill="black"/>
<path d="M52.1759 78.1421H46.9277V83.4265H52.1759V78.1421Z" fill="black"/>
<path d="M67.9259 78.1421H62.6777V83.4265H67.9259V78.1421Z" fill="black"/>
<path d="M78.422 78.1421H73.1738V83.4265H78.422V78.1421Z" fill="black"/>
<path d="M88.9239 78.1421H83.6758V83.4265H88.9239V78.1421Z" fill="black"/>
<path d="M94.172 78.1421H88.9238V83.4265H94.172V78.1421Z" fill="black"/>
<path d="M99.4259 78.1421H94.1777V83.4265H99.4259V78.1421Z" fill="black"/>
<path d="M104.674 78.1421H99.4258V83.4265H104.674V78.1421Z" fill="black"/>
<path d="M120.424 78.1421H115.176V83.4265H120.424V78.1421Z" fill="black"/>
<path d="M136.174 78.1421H130.926V83.4265H136.174V78.1421Z" fill="black"/>
<path d="M15.4239 83.4265H10.1758V88.7109H15.4239V83.4265Z" fill="black"/>
<path d="M20.672 83.4265H15.4238V88.7109H20.672V83.4265Z" fill="black"/>
<path d="M31.1739 83.4265H25.9258V88.7109H31.1739V83.4265Z" fill="black"/>
<path d="M36.422 83.4265H31.1738V88.7109H36.422V83.4265Z" fill="black"/>
<path d="M41.6739 83.4265H36.4258V88.7109H41.6739V83.4265Z" fill="black"/>
<path d="M46.922 83.4265H41.6738V88.7109H46.922V83.4265Z" fill="black"/>
<path d="M52.1759 83.4265H46.9277V88.7109H52.1759V83.4265Z" fill="black"/>
<path d="M62.672 83.4265H57.4238V88.7109H62.672V83.4265Z" fill="black"/>
<path d="M88.9239 83.4265H83.6758V88.7109H88.9239V83.4265Z" fill="black"/>
<path d="M94.172 83.4265H88.9238V88.7109H94.172V83.4265Z" fill="black"/>
<path d="M104.674 83.4265H99.4258V88.7109H104.674V83.4265Z" fill="black"/>
<path d="M109.922 83.4265H104.674V88.7109H109.922V83.4265Z" fill="black"/>
<path d="M120.424 83.4265H115.176V88.7109H120.424V83.4265Z" fill="black"/>
<path d="M125.672 83.4265H120.424V88.7109H125.672V83.4265Z" fill="black"/>
<path d="M130.924 83.4265H125.676V88.7109H130.924V83.4265Z" fill="black"/>
<path d="M136.174 83.4265H130.926V88.7109H136.174V83.4265Z" fill="black"/>
<path d="M141.422 83.4265H136.174V88.7109H141.422V83.4265Z" fill="black"/>
<path d="M15.4239 88.7109H10.1758V93.9953H15.4239V88.7109Z" fill="black"/>
<path d="M41.6739 88.7109H36.4258V93.9953H41.6739V88.7109Z" fill="black"/>
<path d="M52.1759 88.7109H46.9277V93.9953H52.1759V88.7109Z" fill="black"/>
<path d="M62.672 88.7109H57.4238V93.9953H62.672V88.7109Z" fill="black"/>
<path d="M78.422 88.7109H73.1738V93.9953H78.422V88.7109Z" fill="black"/>
<path d="M88.9239 88.7109H83.6758V93.9953H88.9239V88.7109Z" fill="black"/>
<path d="M99.4259 88.7109H94.1777V93.9953H99.4259V88.7109Z" fill="black"/>
<path d="M104.674 88.7109H99.4258V93.9953H104.674V88.7109Z" fill="black"/>
<path d="M115.176 88.7109H109.928V93.9953H115.176V88.7109Z" fill="black"/>
<path d="M125.672 88.7109H120.424V93.9953H125.672V88.7109Z" fill="black"/>
<path d="M130.924 88.7109H125.676V93.9953H130.924V88.7109Z" fill="black"/>
<path d="M141.422 88.7109H136.174V93.9953H141.422V88.7109Z" fill="black"/>
<path d="M15.4239 93.9954H10.1758V99.2798H15.4239V93.9954Z" fill="black"/>
<path d="M25.9239 93.9954H20.6758V99.2798H25.9239V93.9954Z" fill="black"/>
<path d="M31.1739 93.9954H25.9258V99.2798H31.1739V93.9954Z" fill="black"/>
<path d="M36.422 93.9954H31.1738V99.2798H36.422V93.9954Z" fill="black"/>
<path d="M46.922 93.9954H41.6738V99.2798H46.922V93.9954Z" fill="black"/>
<path d="M52.1759 93.9954H46.9277V99.2798H52.1759V93.9954Z" fill="black"/>
<path d="M67.9259 93.9954H62.6777V99.2798H67.9259V93.9954Z" fill="black"/>
<path d="M73.1739 93.9954H67.9258V99.2798H73.1739V93.9954Z" fill="black"/>
<path d="M78.422 93.9954H73.1738V99.2798H78.422V93.9954Z" fill="black"/>
<path d="M83.6759 93.9954H78.4277V99.2798H83.6759V93.9954Z" fill="black"/>
<path d="M94.172 93.9954H88.9238V99.2798H94.172V93.9954Z" fill="black"/>
<path d="M99.4259 93.9954H94.1777V99.2798H99.4259V93.9954Z" fill="black"/>
<path d="M104.674 93.9954H99.4258V99.2798H104.674V93.9954Z" fill="black"/>
<path d="M109.922 93.9954H104.674V99.2798H109.922V93.9954Z" fill="black"/>
<path d="M115.176 93.9954H109.928V99.2798H115.176V93.9954Z" fill="black"/>
<path d="M120.424 93.9954H115.176V99.2798H120.424V93.9954Z" fill="black"/>
<path d="M130.924 93.9954H125.676V99.2798H130.924V93.9954Z" fill="black"/>
<path d="M136.174 93.9954H130.926V99.2798H136.174V93.9954Z" fill="black"/>
<path d="M57.4239 99.2849H52.1758V104.569H57.4239V99.2849Z" fill="black"/>
<path d="M62.672 99.2849H57.4238V104.569H62.672V99.2849Z" fill="black"/>
<path d="M73.1739 99.2849H67.9258V104.569H73.1739V99.2849Z" fill="black"/>
<path d="M99.4259 99.2849H94.1777V104.569H99.4259V99.2849Z" fill="black"/>
<path d="M120.424 99.2849H115.176V104.569H120.424V99.2849Z" fill="black"/>
<path d="M130.924 99.2849H125.676V104.569H130.924V99.2849Z" fill="black"/>
<path d="M136.174 99.2849H130.926V104.569H136.174V99.2849Z" fill="black"/>
<path d="M15.4239 104.569H10.1758V109.854H15.4239V104.569Z" fill="black"/>
<path d="M20.672 104.569H15.4238V109.854H20.672V104.569Z" fill="black"/>
<path d="M25.9239 104.569H20.6758V109.854H25.9239V104.569Z" fill="black"/>
<path d="M31.1739 104.569H25.9258V109.854H31.1739V104.569Z" fill="black"/>
<path d="M36.422 104.569H31.1738V109.854H36.422V104.569Z" fill="black"/>
<path d="M41.6739 104.569H36.4258V109.854H41.6739V104.569Z" fill="black"/>
<path d="M46.922 104.569H41.6738V109.854H46.922V104.569Z" fill="black"/>
<path d="M67.9259 104.569H62.6777V109.854H67.9259V104.569Z" fill="black"/>
<path d="M78.422 104.569H73.1738V109.854H78.422V104.569Z" fill="black"/>
<path d="M88.9239 104.569H83.6758V109.854H88.9239V104.569Z" fill="black"/>
<path d="M99.4259 104.569H94.1777V109.854H99.4259V104.569Z" fill="black"/>
<path d="M109.922 104.569H104.674V109.854H109.922V104.569Z" fill="black"/>
<path d="M120.424 104.569H115.176V109.854H120.424V104.569Z" fill="black"/>
<path d="M141.422 104.569H136.174V109.854H141.422V104.569Z" fill="black"/>
<path d="M15.4239 109.854H10.1758V115.138H15.4239V109.854Z" fill="black"/>
<path d="M46.922 109.854H41.6738V115.138H46.922V109.854Z" fill="black"/>
<path d="M73.1739 109.854H67.9258V115.138H73.1739V109.854Z" fill="black"/>
<path d="M83.6759 109.854H78.4277V115.138H83.6759V109.854Z" fill="black"/>
<path d="M94.172 109.854H88.9238V115.138H94.172V109.854Z" fill="black"/>
<path d="M99.4259 109.854H94.1777V115.138H99.4259V109.854Z" fill="black"/>
<path d="M120.424 109.854H115.176V115.138H120.424V109.854Z" fill="black"/>
<path d="M141.422 109.854H136.174V115.138H141.422V109.854Z" fill="black"/>
<path d="M15.4239 115.138H10.1758V120.423H15.4239V115.138Z" fill="black"/>
<path d="M25.9239 115.138H20.6758V120.423H25.9239V115.138Z" fill="black"/>
<path d="M31.1739 115.138H25.9258V120.423H31.1739V115.138Z" fill="black"/>
<path d="M36.422 115.138H31.1738V120.423H36.422V115.138Z" fill="black"/>
<path d="M46.922 115.138H41.6738V120.423H46.922V115.138Z" fill="black"/>
<path d="M57.4239 115.138H52.1758V120.423H57.4239V115.138Z" fill="black"/>
<path d="M67.9259 115.138H62.6777V120.423H67.9259V115.138Z" fill="black"/>
<path d="M73.1739 115.138H67.9258V120.423H73.1739V115.138Z" fill="black"/>
<path d="M78.422 115.138H73.1738V120.423H78.422V115.138Z" fill="black"/>
<path d="M88.9239 115.138H83.6758V120.423H88.9239V115.138Z" fill="black"/>
<path d="M94.172 115.138H88.9238V120.423H94.172V115.138Z" fill="black"/>
<path d="M99.4259 115.138H94.1777V120.423H99.4259V115.138Z" fill="black"/>
<path d="M104.674 115.138H99.4258V120.423H104.674V115.138Z" fill="black"/>
<path d="M109.922 115.138H104.674V120.423H109.922V115.138Z" fill="black"/>
<path d="M115.176 115.138H109.928V120.423H115.176V115.138Z" fill="black"/>
<path d="M120.424 115.138H115.176V120.423H120.424V115.138Z" fill="black"/>
<path d="M15.4239 120.423H10.1758V125.707H15.4239V120.423Z" fill="black"/>
<path d="M25.9239 120.423H20.6758V125.707H25.9239V120.423Z" fill="black"/>
<path d="M31.1739 120.423H25.9258V125.707H31.1739V120.423Z" fill="black"/>
<path d="M36.422 120.423H31.1738V125.707H36.422V120.423Z" fill="black"/>
<path d="M46.922 120.423H41.6738V125.707H46.922V120.423Z" fill="black"/>
<path d="M57.4239 120.423H52.1758V125.707H57.4239V120.423Z" fill="black"/>
<path d="M62.672 120.423H57.4238V125.707H62.672V120.423Z" fill="black"/>
<path d="M78.422 120.423H73.1738V125.707H78.422V120.423Z" fill="black"/>
<path d="M83.6759 120.423H78.4277V125.707H83.6759V120.423Z" fill="black"/>
<path d="M88.9239 120.423H83.6758V125.707H88.9239V120.423Z" fill="black"/>
<path d="M109.922 120.423H104.674V125.707H109.922V120.423Z" fill="black"/>
<path d="M136.174 120.423H130.926V125.707H136.174V120.423Z" fill="black"/>
<path d="M141.422 120.423H136.174V125.707H141.422V120.423Z" fill="black"/>
<path d="M15.4239 125.707H10.1758V130.991H15.4239V125.707Z" fill="black"/>
<path d="M25.9239 125.707H20.6758V130.991H25.9239V125.707Z" fill="black"/>
<path d="M31.1739 125.707H25.9258V130.991H31.1739V125.707Z" fill="black"/>
<path d="M36.422 125.707H31.1738V130.991H36.422V125.707Z" fill="black"/>
<path d="M46.922 125.707H41.6738V130.991H46.922V125.707Z" fill="black"/>
<path d="M62.672 125.707H57.4238V130.991H62.672V125.707Z" fill="black"/>
<path d="M73.1739 125.707H67.9258V130.991H73.1739V125.707Z" fill="black"/>
<path d="M83.6759 125.707H78.4277V130.991H83.6759V125.707Z" fill="black"/>
<path d="M94.172 125.707H88.9238V130.991H94.172V125.707Z" fill="black"/>
<path d="M104.674 125.707H99.4258V130.991H104.674V125.707Z" fill="black"/>
<path d="M120.424 125.707H115.176V130.991H120.424V125.707Z" fill="black"/>
<path d="M125.672 125.707H120.424V130.991H125.672V125.707Z" fill="black"/>
<path d="M130.924 125.707H125.676V130.991H130.924V125.707Z" fill="black"/>
<path d="M136.174 125.707H130.926V130.991H136.174V125.707Z" fill="black"/>
<path d="M141.422 125.707H136.174V130.991H141.422V125.707Z" fill="black"/>
<path d="M15.4239 130.991H10.1758V136.276H15.4239V130.991Z" fill="black"/>
<path d="M46.922 130.991H41.6738V136.276H46.922V130.991Z" fill="black"/>
<path d="M57.4239 130.991H52.1758V136.276H57.4239V130.991Z" fill="black"/>
<path d="M67.9259 130.991H62.6777V136.276H67.9259V130.991Z" fill="black"/>
<path d="M73.1739 130.991H67.9258V136.276H73.1739V130.991Z" fill="black"/>
<path d="M88.9239 130.991H83.6758V136.276H88.9239V130.991Z" fill="black"/>
<path d="M94.172 130.991H88.9238V136.276H94.172V130.991Z" fill="black"/>
<path d="M115.176 130.991H109.928V136.276H115.176V130.991Z" fill="black"/>
<path d="M120.424 130.991H115.176V136.276H120.424V130.991Z" fill="black"/>
<path d="M130.924 130.991H125.676V136.276H130.924V130.991Z" fill="black"/>
<path d="M136.174 130.991H130.926V136.276H136.174V130.991Z" fill="black"/>
<path d="M141.422 130.991H136.174V136.276H141.422V130.991Z" fill="black"/>
<path d="M15.4239 136.276H10.1758V141.56H15.4239V136.276Z" fill="black"/>
<path d="M20.672 136.276H15.4238V141.56H20.672V136.276Z" fill="black"/>
<path d="M25.9239 136.276H20.6758V141.56H25.9239V136.276Z" fill="black"/>
<path d="M31.1739 136.276H25.9258V141.56H31.1739V136.276Z" fill="black"/>
<path d="M36.422 136.276H31.1738V141.56H36.422V136.276Z" fill="black"/>
<path d="M41.6739 136.276H36.4258V141.56H41.6739V136.276Z" fill="black"/>
<path d="M46.922 136.276H41.6738V141.56H46.922V136.276Z" fill="black"/>
<path d="M57.4239 136.276H52.1758V141.56H57.4239V136.276Z" fill="black"/>
<path d="M62.672 136.276H57.4238V141.56H62.672V136.276Z" fill="black"/>
<path d="M67.9259 136.276H62.6777V141.56H67.9259V136.276Z" fill="black"/>
<path d="M78.422 136.276H73.1738V141.56H78.422V136.276Z" fill="black"/>
<path d="M99.4259 136.276H94.1777V141.56H99.4259V136.276Z" fill="black"/>
<path d="M104.674 136.276H99.4258V141.56H104.674V136.276Z" fill="black"/>
<path d="M125.672 136.276H120.424V141.56H125.672V136.276Z" fill="black"/>
<path d="M141.422 136.276H136.174V141.56H141.422V136.276Z" fill="black"/>
</g>
<defs>
<clipPath id="clip0_80_2468">
<rect x="0.800781" width="150" height="151" rx="12" fill="white"/>
</clipPath>
</defs>
</svg>
